<?xml version="1.0" encoding="UTF-8" standalone="no"?>
<!-- Created with Inkscape (http://www.inkscape.org/) -->

<svg
   version="1.1"
   id="svg2"
   xml:space="preserve"
   width="100"
   height="100"
   viewBox="0 0 100 100"
   sodipodi:docname="monochrome.svg"
   inkscape:version="1.1.1 (3bf5ae0d25, 2021-09-20)"
   xmlns:inkscape="http://www.inkscape.org/namespaces/inkscape"
   xmlns:sodipodi="http://sodipodi.sourceforge.net/DTD/sodipodi-0.dtd"
   xmlns="http://www.w3.org/2000/svg"
   xmlns:svg="http://www.w3.org/2000/svg"><defs
     id="defs6"><clipPath
       clipPathUnits="userSpaceOnUse"
       id="clipPath48"><path
         d="M 0,500 H 500 V 0 H 0 Z"
         id="path46" /></clipPath></defs><sodipodi:namedview
     id="namedview4"
     pagecolor="#ffffff"
     bordercolor="#666666"
     borderopacity="1.0"
     inkscape:pageshadow="2"
     inkscape:pageopacity="0.0"
     inkscape:pagecheckerboard="0"
     showgrid="false"
     inkscape:zoom="5.656854"
     inkscape:cx="57.540817"
     inkscape:cy="49.232312"
     inkscape:window-width="1920"
     inkscape:window-height="1017"
     inkscape:window-x="-8"
     inkscape:window-y="-8"
     inkscape:window-maximized="1"
     inkscape:current-layer="g8" /><g
     id="g8"
     inkscape:groupmode="layer"
     inkscape:label="Design"
     transform="matrix(1.3333333,0,0,-1.3333333,-245.97243,593.3064)"><path
       id="path704-7"
       style="fill:#ef1d1d;fill-opacity:1;fill-rule:nonzero;stroke:none;stroke-width:1.33333"
       d="M 37.996094 17.34375 C 37.530612 17.350977 36.963984 17.472266 36.333984 17.759766 C 35.335318 18.223766 34.951172 19.128906 34.951172 19.128906 C 34.551172 19.372906 34.408599 19.850083 34.447266 19.96875 C 34.485242 20.090536 34.478779 20.165266 34.478516 20.167969 C 34.478516 20.167969 33.526573 20.924286 33.003906 21.626953 C 32.94924 21.69762 32.902042 21.769891 32.859375 21.837891 C 32.843167 21.864224 32.826812 21.890441 32.8125 21.917969 C 32.812238 21.918464 32.812762 21.919426 32.8125 21.919922 C 32.808148 21.928319 32.803008 21.936808 32.798828 21.945312 C 32.36606 22.80466 32.676203 24.24329 33.021484 25.341797 C 33.381484 26.485797 33.933594 26.546875 33.933594 26.546875 C 34.186927 26.265542 34.138094 26.040031 34.246094 25.332031 C 34.281616 25.100481 34.351126 24.848392 34.4375 24.603516 C 34.438457 24.600801 34.440445 24.598416 34.441406 24.595703 C 34.441612 24.595128 34.441201 24.594325 34.441406 24.59375 C 34.620014 24.094399 34.863265 23.627326 35.039062 23.435547 C 35.489729 22.942214 35.710938 22.515625 35.710938 22.515625 C 35.71439 22.48582 35.722251 22.424086 35.730469 22.367188 L 35.732422 22.369141 L 35.732422 22.373047 C 35.732422 22.373047 36.075005 22.265677 36.513672 22.152344 C 36.573672 22.132344 36.643031 22.116229 36.707031 22.101562 C 36.759031 22.085563 36.815188 22.07326 36.867188 22.058594 C 36.911187 22.050594 36.948901 22.041917 36.990234 22.03125 C 37.111568 22.000583 37.239469 21.975172 37.355469 21.951172 C 37.587469 21.903172 37.860438 21.841193 38.148438 21.755859 C 38.267104 21.722526 38.384526 21.680099 38.505859 21.634766 C 38.565859 21.610766 38.625453 21.59112 38.689453 21.564453 C 38.87612 21.48712 39.063427 21.396255 39.246094 21.294922 C 39.33676 21.244255 39.481073 21.153036 39.566406 21.095703 C 39.61574 21.059703 39.669417 21.024281 39.71875 20.988281 C 39.868083 20.869615 40.012438 20.745562 40.148438 20.601562 C 40.300437 20.438896 40.456135 20.30951 40.605469 20.214844 C 40.621469 20.204177 40.63625 20.188401 40.65625 20.177734 C 40.694917 20.156401 40.732292 20.13976 40.765625 20.121094 L 40.765625 20.117188 C 40.804292 20.099854 40.839807 20.084979 40.869141 20.070312 C 40.886474 20.062313 40.907208 20.056828 40.921875 20.048828 C 40.937875 20.043495 40.958609 20.03863 40.974609 20.029297 C 40.990609 20.02663 41.007964 20.023625 41.029297 20.015625 C 41.057297 20.007625 41.090953 19.999568 41.126953 19.990234 C 41.22562 19.976901 41.323396 19.967849 41.414062 19.978516 C 41.444729 19.978516 41.473953 19.982948 41.501953 19.988281 C 41.52062 19.990948 41.534161 19.993333 41.548828 20 C 41.768828 20.044 41.974917 20.16174 42.15625 20.316406 C 42.40825 20.55374 42.603745 20.846411 42.705078 21.205078 C 43.009078 22.269078 42.480495 23.792276 41.673828 25.349609 C 41.631161 25.422943 40.925151 26.635839 40.146484 27.701172 C 39.343818 28.799839 37.873323 30.673276 37.722656 32.474609 C 37.721323 32.486609 37.722036 32.497766 37.720703 32.509766 C 37.652703 33.065766 37.679094 33.670547 37.871094 34.310547 L 37.871094 34.314453 C 38.02576 34.827786 38.27251 35.291219 38.589844 35.699219 C 39.089844 36.343219 39.720693 36.85475 40.443359 37.21875 C 40.520693 37.257417 40.604646 37.294604 40.695312 37.335938 C 40.720646 37.346604 40.742245 37.358474 40.767578 37.369141 C 40.775578 37.371807 40.783729 37.37624 40.789062 37.378906 C 40.809062 37.386906 40.827656 37.392391 40.847656 37.400391 C 40.96899 37.449724 41.092797 37.493109 41.216797 37.537109 C 41.272797 37.554443 41.328859 37.570557 41.380859 37.587891 C 41.464859 37.611891 41.544286 37.637583 41.626953 37.65625 C 41.712286 37.678917 41.797479 37.702036 41.882812 37.720703 C 41.890812 37.72337 41.89949 37.723896 41.910156 37.726562 C 43.330156 38.031896 44.65688 37.829245 45.435547 37.642578 C 45.84488 37.543911 46.27463 37.688771 46.529297 38.023438 C 47.147964 38.831437 48.555214 40.201609 51.060547 40.349609 L 51.376953 40.369141 L 51.730469 40.369141 C 51.858853 41.204151 52.469686 41.878914 53.269531 42.103516 L 53.269531 49.634766 L 48.066406 49.634766 C 47.934406 49.634766 47.814656 49.681719 47.722656 49.761719 L 47.720703 49.761719 C 47.711731 49.769506 47.704958 49.779417 47.697266 49.787109 L 47.662109 49.824219 L 44.667969 52.955078 L 45.064453 53.095703 L 47.185547 51.632812 L 47.349609 52.232422 L 47.605469 52.232422 L 48.552734 50.681641 L 53.269531 50.681641 L 53.269531 51.460938 C 52.924198 51.647604 52.6875 52.013594 52.6875 52.433594 C 52.6875 52.854927 52.924198 53.219583 53.269531 53.40625 L 53.269531 64.400391 L 49.673828 65.876953 L 49.673828 66.146484 L 54.460938 66.146484 C 54.643604 66.146484 54.766693 65.960969 54.693359 65.792969 L 54.316406 64.931641 L 54.316406 53.404297 C 54.660502 53.217264 54.896484 52.854002 54.896484 52.433594 C 54.896484 52.014505 54.660517 51.649925 54.316406 51.462891 L 54.316406 50.681641 L 58.478516 50.681641 C 58.68276 50.999016 59.039 51.208984 59.443359 51.208984 C 60.079359 51.208984 60.59375 50.69326 60.59375 50.058594 C 60.59375 49.510594 60.211219 49.0535 59.699219 48.9375 L 55.451172 41.466797 C 55.720159 41.165114 55.906444 40.787112 55.970703 40.369141 L 67.412109 40.369141 C 66.937443 39.642474 66.480677 38.958641 66.027344 38.306641 L 52.265625 38.306641 C 50.341625 38.306641 48.585943 37.22124 47.724609 35.503906 C 47.668609 35.50924 47.617167 35.521484 47.5625 35.521484 C 46.9265 35.521484 46.430745 34.933437 46.580078 34.273438 C 46.664078 33.908104 46.958885 33.610724 47.324219 33.525391 C 47.985552 33.370724 48.572266 33.873766 48.572266 34.509766 C 48.572266 34.763099 48.473026 34.991875 48.318359 35.171875 L 48.320312 35.179688 C 49.061646 36.678354 50.589719 37.626953 52.261719 37.626953 L 65.552734 37.626953 C 65.022068 36.874953 64.507812 36.177391 64.007812 35.525391 L 54.28125 35.525391 C 52.310583 35.525391 50.492583 34.451896 49.53125 32.726562 L 49.53125 32.720703 C 49.47925 32.726036 49.423094 32.738281 49.371094 32.738281 C 48.74176 32.738281 48.24424 32.162479 48.378906 31.507812 C 48.45624 31.146479 48.744849 30.845286 49.103516 30.751953 C 49.766182 30.57462 50.378906 31.079896 50.378906 31.726562 C 50.378906 31.979896 50.28162 32.210625 50.126953 32.390625 L 50.128906 32.394531 C 50.879573 33.895865 52.41313 34.84375 54.091797 34.84375 L 63.480469 34.84375 C 62.877802 34.074417 62.302526 33.374901 61.755859 32.740234 L 56.199219 32.740234 C 54.221885 32.740234 52.401932 31.668693 51.447266 29.943359 L 51.439453 29.9375 C 51.388786 29.942833 51.33325 29.953125 51.28125 29.953125 C 50.722583 29.953125 50.271484 29.502026 50.271484 28.943359 C 50.271484 28.388693 50.722583 27.931641 51.28125 27.931641 C 51.838583 27.931641 52.291016 28.388693 52.291016 28.943359 C 52.291016 29.198026 52.19249 29.426802 52.035156 29.605469 L 52.039062 29.615234 C 52.872396 31.121901 54.467219 32.060547 56.199219 32.060547 L 61.152344 32.060547 C 57.475011 27.96988 55.28125 26.982422 55.28125 26.982422 L 55.279297 26.982422 C 54.64463 26.598422 53.326812 26.116297 51.882812 25.904297 L 51.878906 25.904297 C 51.814906 25.892297 51.746109 25.881047 51.662109 25.873047 C 51.643443 25.87038 51.627422 25.871807 51.607422 25.869141 C 51.599422 25.869141 51.591365 25.865234 51.582031 25.865234 C 50.846031 25.793234 49.961411 25.776693 49.080078 25.943359 C 48.130745 26.119359 47.184729 26.505193 46.414062 27.255859 C 44.904729 28.733193 44.980469 31.029297 44.980469 31.029297 L 44.984375 31.029297 C 44.868375 32.741297 44.749797 33.960516 43.341797 34.228516 C 42.25913 34.435182 41.354125 33.841536 41.078125 32.908203 C 41.003458 32.59087 41.003479 32.201229 41.132812 31.726562 C 41.191479 31.505229 41.300073 31.255755 41.441406 30.982422 C 41.457406 30.965089 41.472656 30.919922 41.472656 30.919922 C 42.708656 28.583922 46.346974 24.538713 45.181641 20.748047 C 45.148307 20.642714 45.116078 20.540073 45.080078 20.441406 C 45.077411 20.433406 45.074932 20.425349 45.072266 20.416016 C 44.958932 20.106682 44.828833 19.827365 44.6875 19.582031 C 44.6715 19.554031 44.656625 19.52924 44.640625 19.503906 C 44.093958 18.658573 43.323172 18.17399 42.951172 17.972656 C 42.928505 17.960656 42.912578 17.949406 42.892578 17.941406 C 42.840578 17.916073 42.787089 17.890568 42.732422 17.865234 C 42.729755 17.862568 42.728516 17.861328 42.728516 17.861328 L 42.724609 17.861328 C 42.588609 17.797328 42.449026 17.737359 42.318359 17.693359 C 42.274359 17.676026 42.230786 17.663818 42.189453 17.646484 C 42.17612 17.643818 42.161057 17.643292 42.150391 17.640625 C 42.083724 17.616625 42.012693 17.599458 41.943359 17.578125 C 41.876693 17.563458 41.806094 17.546536 41.746094 17.533203 C 40.810094 17.325203 40.027349 17.381781 39.666016 17.425781 C 39.574016 17.436448 39.505896 17.447792 39.476562 17.453125 C 39.468563 17.457125 39.459172 17.452318 39.451172 17.458984 C 39.169839 17.500318 38.888797 17.500073 38.716797 17.441406 C 38.518297 17.375406 38.275383 17.339414 37.996094 17.34375 z M 51.279297 28.560547 C 51.06863 28.560547 50.896484 28.732693 50.896484 28.943359 C 50.896484 29.154026 51.06863 29.326172 51.279297 29.326172 C 51.489964 29.326172 51.660156 29.154026 51.660156 28.943359 C 51.660156 28.732693 51.489964 28.560547 51.279297 28.560547 z M 49.349609 31.34375 C 49.147993 31.354038 48.986328 31.522479 48.986328 31.726562 C 48.986328 31.937229 49.158474 32.109375 49.369141 32.109375 C 49.578474 32.109375 49.75 31.937229 49.75 31.726562 C 49.75 31.515896 49.578474 31.34375 49.369141 31.34375 C 49.362557 31.34375 49.356113 31.343418 49.349609 31.34375 z M 47.564453 34.125 C 47.353786 34.125 47.181641 34.297146 47.181641 34.507812 C 47.181641 34.718479 47.353786 34.890625 47.564453 34.890625 C 47.77512 34.890625 47.945312 34.718479 47.945312 34.507812 C 47.945312 34.297146 47.77512 34.125 47.564453 34.125 z M 54.580078 42.058594 L 58.654297 49.220703 C 58.532964 49.33537 58.435714 49.476099 58.373047 49.634766 L 54.316406 49.634766 L 54.316406 42.132812 C 54.406471 42.112865 54.494664 42.089478 54.580078 42.058594 z M 59.443359 49.597656 C 59.698026 49.597656 59.904297 49.803927 59.904297 50.058594 C 59.904297 50.297045 59.722359 50.493537 59.490234 50.517578 C 59.474731 50.519154 59.459276 50.519531 59.443359 50.519531 C 59.432739 50.519531 59.422551 50.518285 59.412109 50.517578 C 59.406949 50.517228 59.401597 50.518097 59.396484 50.517578 C 59.380981 50.516002 59.364621 50.514793 59.349609 50.511719 C 59.274507 50.496339 59.207378 50.461125 59.150391 50.414062 C 59.138997 50.404659 59.127625 50.395203 59.117188 50.384766 C 59.10678 50.374358 59.09727 50.36292 59.087891 50.351562 C 59.078487 50.340169 59.06884 50.328678 59.060547 50.316406 C 59.010789 50.242773 58.982422 50.154094 58.982422 50.058594 C 58.982422 49.947131 59.022014 49.845394 59.087891 49.765625 C 59.097295 49.754231 59.10675 49.742859 59.117188 49.732422 C 59.200687 49.648922 59.316026 49.597656 59.443359 49.597656 z M 53.792969 51.990234 C 54.006982 51.990234 54.184474 52.144245 54.226562 52.345703 C 54.232474 52.374615 54.236328 52.402927 54.236328 52.433594 C 54.236328 52.663295 54.061445 52.851873 53.837891 52.875 C 53.822959 52.876515 53.808302 52.876953 53.792969 52.876953 C 53.783375 52.876953 53.773113 52.875598 53.763672 52.875 C 53.728071 52.872641 53.692966 52.867673 53.660156 52.857422 C 53.646251 52.8531 53.632422 52.849365 53.619141 52.84375 C 53.605738 52.838084 53.592769 52.831125 53.580078 52.824219 C 53.567495 52.817386 53.554779 52.810711 53.542969 52.802734 C 53.483788 52.762763 53.436517 52.707626 53.402344 52.644531 C 53.395511 52.631949 53.388427 52.620703 53.382812 52.607422 C 53.360354 52.554297 53.347656 52.494927 53.347656 52.433594 C 53.347656 52.402927 53.35151 52.372661 53.357422 52.34375 C 53.366367 52.300931 53.382042 52.259963 53.402344 52.222656 C 53.409176 52.210074 53.415852 52.197357 53.423828 52.185547 C 53.503594 52.067448 53.639635 51.990234 53.792969 51.990234 z "
       transform="matrix(0.75000002,0,0,-0.75000002,184.47933,444.97981)" /><path
       id="path108894"
       style="fill:#ef1d1d;fill-opacity:1;fill-rule:nonzero;stroke:none;stroke-width:1.51717"
       d="M 64.953125 69.714844 C 63.941178 69.714844 63.079388 70.066198 62.363281 70.765625 C 61.645655 71.465038 61.287109 72.310494 61.287109 73.302734 C 61.287109 74.293454 61.645655 75.14043 62.363281 75.839844 C 63.079388 76.539257 63.941178 76.886719 64.953125 76.886719 C 65.959018 76.886719 66.794898 76.540137 67.460938 75.84375 C 68.126977 75.147377 68.458984 74.301041 68.458984 73.302734 C 68.458984 73.091841 68.439371 72.874937 68.398438 72.650391 L 64.546875 72.650391 L 64.546875 74.117188 L 66.441406 74.117188 C 66.30486 74.416081 66.106663 74.654078 65.845703 74.830078 C 65.584743 75.006118 65.286912 75.095703 64.953125 75.095703 C 64.478258 75.095703 64.075961 74.919259 63.742188 74.570312 C 63.409921 74.219846 63.242188 73.798854 63.242188 73.302734 C 63.242188 72.806614 63.409921 72.38215 63.742188 72.033203 C 64.075961 71.682736 64.478258 71.509766 64.953125 71.509766 C 65.497792 71.509766 65.939444 71.728415 66.279297 72.169922 L 68.123047 71.671875 C 67.802927 71.068048 67.373225 70.590701 66.830078 70.240234 C 66.286931 69.889768 65.660138 69.714844 64.953125 69.714844 z M 72.697266 69.714844 C 71.665572 69.714844 70.783148 70.066212 70.048828 70.765625 C 69.316028 71.465038 68.947266 72.310508 68.947266 73.302734 C 68.947266 74.294974 69.316028 75.138477 70.048828 75.837891 C 70.783148 76.537317 71.665572 76.888672 72.697266 76.888672 C 73.728946 76.888672 74.611383 76.537317 75.345703 75.837891 C 76.078503 75.138477 76.445312 74.294974 76.445312 73.302734 C 76.445312 72.310508 76.078503 71.465038 75.345703 70.765625 C 74.611383 70.066212 73.728946 69.714844 72.697266 69.714844 z M 23.554688 69.878906 L 23.554688 76.724609 L 25.509766 76.724609 L 25.509766 74.117188 L 27.628906 74.117188 L 27.628906 72.488281 L 25.509766 72.488281 L 25.509766 71.671875 L 28.117188 71.671875 L 28.117188 69.878906 L 23.554688 69.878906 z M 28.933594 69.878906 L 28.933594 76.724609 L 33.496094 76.724609 L 33.496094 74.931641 L 30.888672 74.931641 L 30.888672 69.878906 L 28.933594 69.878906 z M 36.818359 69.878906 L 33.986328 76.724609 L 35.970703 76.724609 L 36.410156 75.583984 L 39.058594 75.583984 L 39.498047 76.724609 L 41.347656 76.724609 L 38.650391 69.878906 L 36.818359 69.878906 z M 42.470703 69.878906 L 41.816406 76.724609 L 43.771484 76.724609 L 44.113281 73.144531 L 45.248047 76.724609 L 46.869141 76.724609 L 48.003906 73.134766 L 48.357422 76.724609 L 50.292969 76.724609 L 49.619141 69.878906 L 47.685547 69.878906 L 46.054688 73.955078 L 44.423828 69.878906 L 42.470703 69.878906 z M 54.033203 69.878906 L 54.033203 76.724609 L 55.990234 76.724609 L 55.990234 72.976562 L 58.597656 76.724609 L 60.552734 76.724609 L 60.552734 69.878906 L 58.597656 69.878906 L 58.597656 73.628906 L 55.990234 69.878906 L 54.033203 69.878906 z M 51.107422 69.880859 L 51.107422 76.726562 L 53.0625 76.726562 L 53.0625 69.880859 L 51.107422 69.880859 z M 72.697266 71.507812 C 73.193372 71.507812 73.614364 71.684256 73.964844 72.033203 C 74.31379 72.38367 74.490234 72.806614 74.490234 73.302734 C 74.490234 73.798854 74.31379 74.219846 73.964844 74.570312 C 73.614364 74.920779 73.193372 75.095703 72.697266 75.095703 C 72.201146 75.095703 71.778201 74.920779 71.427734 74.570312 C 71.077254 74.219846 70.904297 73.798854 70.904297 73.302734 C 70.904297 72.806614 71.077254 72.38367 71.427734 72.033203 C 71.778201 71.684256 72.201146 71.507812 72.697266 71.507812 z M 37.742188 72.158203 L 38.494141 74.117188 L 36.988281 74.117188 L 37.742188 72.158203 z M 74.271484 78.761719 C 73.858804 78.761719 73.523991 78.862233 73.267578 79.0625 C 73.011205 79.264287 72.884766 79.539518 72.884766 79.894531 C 72.884766 80.132731 72.938515 80.325929 73.050781 80.474609 C 73.163048 80.621783 73.296412 80.73468 73.451172 80.810547 C 73.607439 80.886414 73.808901 80.961243 74.054688 81.037109 C 74.224607 81.087203 74.354732 81.132408 74.447266 81.171875 C 74.538292 81.211328 74.615954 81.263552 74.679688 81.324219 C 74.743287 81.386419 74.773438 81.46446 74.773438 81.558594 C 74.773438 81.669354 74.73323 81.756579 74.654297 81.820312 C 74.575404 81.882579 74.466625 81.914062 74.330078 81.914062 C 74.196571 81.914062 74.087726 81.879087 74.005859 81.804688 C 73.922419 81.730341 73.872622 81.621995 73.857422 81.482422 L 72.873047 81.482422 C 72.880634 81.731235 72.950031 81.943574 73.082031 82.121094 C 73.214018 82.29708 73.389388 82.432018 73.609375 82.521484 C 73.829362 82.611044 74.078249 82.65625 74.357422 82.65625 C 74.642649 82.65625 74.890236 82.604667 75.099609 82.5 C 75.308983 82.395307 75.467325 82.253679 75.578125 82.076172 C 75.687365 81.900172 75.744141 81.703288 75.744141 81.486328 C 75.744141 81.258755 75.688439 81.073388 75.576172 80.927734 C 75.463892 80.783601 75.330974 80.675476 75.177734 80.599609 C 75.022988 80.523743 74.823898 80.443195 74.578125 80.361328 C 74.332338 80.280915 74.152443 80.206939 74.037109 80.138672 C 73.921749 80.070405 73.865234 79.974496 73.865234 79.851562 C 73.865234 79.739296 73.897064 79.654417 73.966797 79.59375 C 74.035064 79.53455 74.126015 79.505859 74.238281 79.505859 C 74.368761 79.505859 74.475127 79.539642 74.558594 79.609375 C 74.64202 79.680682 74.685359 79.777457 74.693359 79.900391 L 75.693359 79.900391 C 75.676666 79.542337 75.539616 79.264287 75.283203 79.0625 C 75.026803 78.862233 74.690218 78.761719 74.271484 78.761719 z M 57.929688 78.773438 C 57.561008 78.773438 57.2327 78.854158 56.941406 79.019531 C 56.6501 79.183385 56.424065 79.412698 56.261719 79.707031 C 56.099332 80.001365 56.017578 80.338144 56.017578 80.712891 C 56.017578 81.089144 56.099385 81.42203 56.261719 81.714844 C 56.424065 82.007657 56.6501 82.234584 56.941406 82.398438 C 57.2327 82.563744 57.561008 82.646484 57.929688 82.646484 C 58.380287 82.646484 58.768204 82.527696 59.089844 82.291016 C 59.409964 82.054336 59.624689 81.729519 59.732422 81.318359 L 58.714844 81.318359 C 58.63899 81.477666 58.530645 81.599774 58.392578 81.681641 C 58.253005 81.765107 58.095489 81.806641 57.917969 81.806641 C 57.632742 81.806641 57.402116 81.706559 57.224609 81.507812 C 57.048623 81.309053 56.960938 81.045144 56.960938 80.712891 C 56.960938 80.380624 57.048623 80.115195 57.224609 79.917969 C 57.402116 79.719209 57.632742 79.619141 57.917969 79.619141 C 58.095489 79.619141 58.253005 79.660321 58.392578 79.742188 C 58.530645 79.825627 58.638977 79.947682 58.714844 80.105469 L 59.732422 80.105469 C 59.624702 79.694322 59.409964 79.369059 59.089844 79.130859 C 58.768204 78.892673 58.380287 78.773438 57.929688 78.773438 z M 24.255859 78.816406 L 24.255859 82.619141 L 25.679688 82.619141 C 26.077194 82.619141 26.426596 82.538646 26.728516 82.380859 C 27.030436 82.221553 27.262361 81.997251 27.427734 81.708984 C 27.591641 81.419198 27.673828 81.090457 27.673828 80.71875 C 27.673828 80.342497 27.591588 80.010923 27.427734 79.722656 C 27.262361 79.43591 27.031302 79.214427 26.732422 79.056641 C 26.432022 78.897321 26.080221 78.816406 25.679688 78.816406 L 24.255859 78.816406 z M 33.068359 78.816406 L 33.068359 82.619141 L 35.398438 82.619141 L 35.398438 81.876953 L 33.994141 81.876953 L 33.994141 81.042969 L 35.236328 81.042969 L 35.236328 80.328125 L 33.994141 80.328125 L 33.994141 79.558594 L 35.398438 79.558594 L 35.398438 78.816406 L 33.068359 78.816406 z M 40.585938 78.816406 L 41.935547 82.619141 L 43.09375 82.619141 L 44.443359 78.816406 L 43.462891 78.816406 L 42.513672 81.6875 L 41.572266 78.816406 L 40.585938 78.816406 z M 49.703125 78.816406 L 49.703125 82.619141 L 50.628906 82.619141 L 50.628906 78.816406 L 49.703125 78.816406 z M 65.175781 78.816406 L 65.175781 82.619141 L 67.505859 82.619141 L 67.505859 81.876953 L 66.101562 81.876953 L 66.101562 81.042969 L 67.34375 81.042969 L 67.34375 80.328125 L 66.101562 80.328125 L 66.101562 79.558594 L 67.505859 79.558594 L 67.505859 78.816406 L 65.175781 78.816406 z M 25.181641 79.607422 L 25.621094 79.607422 C 25.97156 79.607422 26.243733 79.704238 26.439453 79.898438 C 26.6352 80.094157 26.732422 80.368283 26.732422 80.71875 C 26.732422 81.067697 26.63516 81.340077 26.439453 81.53125 C 26.243733 81.722397 25.97156 81.816406 25.621094 81.816406 L 25.181641 81.816406 L 25.181641 79.607422 z "
       transform="matrix(0.75000002,0,0,-0.75000002,184.47933,444.97981)" /></g></svg>
