<?xml version="1.0" encoding="UTF-8" standalone="no"?>
<!-- Created with Inkscape (http://www.inkscape.org/) -->

<svg
   version="1.1"
   id="svg2"
   xml:space="preserve"
   width="10.837262mm"
   height="13.367614mm"
   viewBox="0 0 40.95973 50.523264"
   sodipodi:docname="eagle-preconversion.svg"
   inkscape:version="1.1.1 (3bf5ae0d25, 2021-09-20)"
   xmlns:inkscape="http://www.inkscape.org/namespaces/inkscape"
   xmlns:sodipodi="http://sodipodi.sourceforge.net/DTD/sodipodi-0.dtd"
   xmlns="http://www.w3.org/2000/svg"
   xmlns:svg="http://www.w3.org/2000/svg"><defs
     id="defs6" /><sodipodi:namedview
     id="namedview4"
     pagecolor="#ffffff"
     bordercolor="#666666"
     borderopacity="1.0"
     inkscape:pageshadow="2"
     inkscape:pageopacity="0.0"
     inkscape:pagecheckerboard="0"
     showgrid="false"
     inkscape:zoom="11.313709"
     inkscape:cx="18.163805"
     inkscape:cy="24.2626"
     inkscape:window-width="1920"
     inkscape:window-height="1017"
     inkscape:window-x="-8"
     inkscape:window-y="-8"
     inkscape:window-maximized="1"
     inkscape:current-layer="layer1"
     units="mm"
     inkscape:document-units="mm" /><g
     inkscape:groupmode="layer"
     id="layer1"
     inkscape:label="Layer 1"><path
       id="path2703"
       style="fill:#ef1d1d;fill-opacity:1;fill-rule:nonzero;stroke:none;stroke-width:1.17492"
       d="m 0.54289684,47.54823 c 0,0.197334 0,0.393334 0,0.590667 0,0.196 0,0.392 0,0.588 0,0.197333 0,0.393333 0,0.590667 0,0.196 0,0.392 0,0.588 0,0.196 0,0.392 0,0.588 0.20800001,-0.0013 0.41466668,0 0.62266666,0.0013 0.208,0 0.4146667,0 0.6226667,-0.0053 0.156,-0.0067 0.3133334,-0.03733 0.4613334,-0.08933 0.1493333,-0.052 0.2893333,-0.125333 0.4133333,-0.221333 0.124,-0.09467 0.2306667,-0.210667 0.3120001,-0.348 0.088,-0.144 0.148,-0.301333 0.1826666,-0.465333 0.034667,-0.164 0.044,-0.333334 0.028,-0.5 -0.016,-0.166667 -0.056,-0.330667 -0.1213333,-0.484 -0.062667,-0.149334 -0.1546667,-0.282667 -0.2666667,-0.396 -0.112,-0.113334 -0.244,-0.206667 -0.388,-0.276 -0.144,-0.07067 -0.2986667,-0.117334 -0.4573334,-0.138667 -0.1466666,-0.01867 -0.2933333,-0.02267 -0.4413333,-0.02267 -0.148,0 -0.2946667,0.004 -0.4426667,0.0013 -0.17466668,0 -0.35066669,0 -0.52533336,0 0,0 0,-0.0013 0,-0.0013 m 0.71866666,0.613334 c 0.1426667,0.0027 0.2920001,-0.0053 0.4360001,0.0053 0.1453333,0.01067 0.2853333,0.04133 0.412,0.122667 0.1293333,0.07733 0.22,0.194666 0.2773333,0.329333 0.057333,0.134667 0.08,0.285333 0.073333,0.429333 0.00267,0.138667 -0.026667,0.281334 -0.088,0.406667 -0.06,0.125333 -0.1533334,0.234667 -0.2800001,0.302667 -0.1253333,0.07467 -0.2626666,0.102666 -0.404,0.112 -0.1413333,0.0093 -0.2866667,0 -0.4266667,0.004 0,-0.190667 0,-0.381334 0,-0.572 0,-0.189334 0,-0.38 0,-0.569334 0,-0.190666 0,-0.38 0,-0.570666 0,0 0,0 0,0" /><path
       id="path2687"
       style="fill:#ef1d1d;fill-opacity:1;fill-rule:nonzero;stroke:none;stroke-width:1.17492"
       d="m 11.001964,40.675763 c -0.916027,1.709427 -1.8136001,3.42912 -2.7486801,5.128054 0.030933,0.1084 0.20884,0.03667 0.3062133,0.05747 0.4524267,-0.0027 0.9052001,0.004 1.3574001,-0.004 0.1879197,-0.141294 0.2085597,-0.429307 0.3292137,-0.62936 0.585933,0 1.17188,0 1.757813,0 0.138013,0.195093 0.144947,0.529773 0.36524,0.632813 0.606067,-0.0011 1.212227,0.0027 1.81824,-0.0013 -0.06427,-0.2922 -0.32488,-0.597427 -0.458667,-0.89432 -0.793226,-1.426334 -1.566506,-2.863641 -2.349813,-4.295427 -0.1256,0.0013 -0.251307,0.004 -0.37696,0.0053 z m 0.134773,2.36328 c 0.143427,0.360214 0.307827,0.711614 0.45508,1.070307 -0.304693,0 -0.609373,0 -0.914066,0 0.158746,-0.354133 0.32308,-0.7066 0.458986,-1.070307 z"
       sodipodi:nodetypes="cccccccscscccccscscccccccccccccccc" /><path
       id="path696-4"
       style="fill:#ef1d1d;fill-opacity:1;fill-rule:nonzero;stroke:none;stroke-width:1.17492"
       d="m 38.121107,40.5859 c -0.1136,0.0026 -0.2257,0.0116 -0.3359,0.0266 -0.113,0.0154 -0.2239,0.037 -0.3323,0.0647 -0.1101,0.028 -0.2176,0.0622 -0.322,0.1021 -0.1131,0.0436 -0.2226,0.094 -0.3277,0.1509 -0.1067,0.0579 -0.209,0.1224 -0.3063,0.1934 -0.0973,0.0709 -0.1896,0.1484 -0.2762,0.2319 -0.0865,0.0838 -0.1672,0.1738 -0.2414,0.2695 -0.0733,0.0946 -0.1404,0.1947 -0.2007,0.2999 -0.0593,0.1036 -0.112,0.2121 -0.1575,0.3251 -0.0447,0.1102 -0.0826,0.2249 -0.1129,0.3437 -0.0293,0.1147 -0.0517,0.2332 -0.0666,0.3552 -0.0143,0.1174 -0.0217,0.238 -0.0217,0.3616 0,0.1168 0.0068,0.2314 0.0199,0.3436 0.0135,0.1155 0.0338,0.2285 0.0605,0.3388 0.0272,0.1128 0.0612,0.2227 0.1013,0.3294 0.0409,0.1087 0.0886,0.2138 0.1426,0.3148 0.0546,0.1021 0.1156,0.2 0.1825,0.2932 0.0674,0.094 0.1409,0.1831 0.2198,0.267 0.0784,0.0833 0.1622,0.1614 0.2511,0.2338 0.0885,0.0722 0.1822,0.1387 0.2806,0.1992 0.0969,0.0596 0.1984,0.1133 0.3042,0.1607 0.1041,0.0468 0.2121,0.0875 0.3239,0.1219 0.1083,0.0332 0.2201,0.0604 0.3351,0.081 0.1114,0.0201 0.2258,0.0339 0.343,0.0413 0,0 0,0.0019 0,0.0019 0.068,0.004 0.1363,0.0078 0.207,0.0078 0.1208,0 0.2403,-0.0076 0.358,-0.0226 0.1196,-0.0152 0.2372,-0.0379 0.3524,-0.0678 0.117,-0.0303 0.2313,-0.068 0.3423,-0.1127 0.112,-0.0447 0.2208,-0.0963 0.3257,-0.1544 0.1055,-0.0584 0.2069,-0.1235 0.3036,-0.1948 0.0967,-0.0714 0.1886,-0.1491 0.275,-0.2328 0.086,-0.0833 0.1666,-0.1725 0.2411,-0.2671 0.0742,-0.0942 0.1423,-0.1937 0.2037,-0.298 0.0603,-0.1027 0.1141,-0.2101 0.1607,-0.3217 0.0454,-0.1095 0.084,-0.2233 0.1152,-0.341 0.0303,-0.1145 0.0536,-0.2327 0.0691,-0.3542 0.015,-0.1168 0.0227,-0.2368 0.0227,-0.3594 0,-0.1176 -0.0066,-0.2323 -0.0194,-0.3437 -0.0135,-0.117 -0.0337,-0.2305 -0.0602,-0.3403 -0.0275,-0.1141 -0.0617,-0.2241 -0.102,-0.3297 -0.0413,-0.1087 -0.089,-0.213 -0.1427,-0.3125 -0.055,-0.102 -0.1162,-0.1991 -0.1831,-0.291 -0.068,-0.0933 -0.1419,-0.1813 -0.2211,-0.2637 -0.0797,-0.0837 -0.1648,-0.1618 -0.2546,-0.2339 -0.0895,-0.0718 -0.1837,-0.1378 -0.2818,-0.1975 -0.0981,-0.0598 -0.2001,-0.1133 -0.3054,-0.1604 -0.1043,-0.0475 -0.2119,-0.0886 -0.322,-0.1231 -0.1093,-0.0343 -0.2209,-0.0621 -0.3343,-0.0833 -0.1125,-0.0211 -0.2266,-0.0357 -0.3417,-0.0436 -0.068,-0.004 -0.1345,-0.0098 -0.2012,-0.0098 -0.0233,0 -0.0471,-5e-4 -0.0703,0 0,0 0,0 0,0 m 0.0703,1.7735 c 0.0227,0 0.0444,0.0026 0.0684,0.0039 0.1291,0.0069 0.2473,0.0324 0.3524,0.0747 0.1164,0.0469 0.2167,0.1145 0.298,0.2007 0.0808,0.085 0.1432,0.1889 0.1841,0.3085 0.0367,0.1072 0.0561,0.227 0.0561,0.3575 0,0.1393 -0.022,0.2666 -0.0622,0.38 -0.0452,0.1275 -0.1134,0.2374 -0.1995,0.327 -0.0894,0.0935 -0.1975,0.1654 -0.3197,0.213 -0.1148,0.0448 -0.242,0.0683 -0.3776,0.0683 -0.0253,0 -0.0502,-0.0026 -0.0742,-0.0039 -0.1307,-0.0077 -0.2513,-0.0358 -0.3586,-0.0826 -0.1161,-0.0507 -0.2166,-0.1234 -0.2977,-0.2163 -0.0777,-0.0892 -0.1383,-0.1967 -0.1777,-0.3216 -0.0343,-0.1085 -0.0527,-0.23 -0.0527,-0.3639 0,-0.1345 0.0223,-0.2597 0.0645,-0.3721 0.0456,-0.1216 0.1144,-0.2281 0.203,-0.3154 0.0883,-0.0861 0.1959,-0.1533 0.3208,-0.1975 0.1111,-0.0392 0.2358,-0.0603 0.3726,-0.0603 0,0 0,0 0,0" /><path
       id="path704"
       style="fill:#ef1d1d;fill-opacity:1;fill-rule:nonzero;stroke:none;stroke-width:1.03255"
       d="m 18.593564,13.589562 c 0.082,0 0.156,-0.03333 0.209494,-0.0872 0.05347,-0.05387 0.08653,-0.128133 0.08653,-0.210173 0,-0.08133 -0.03307,-0.155334 -0.08653,-0.209 -0.05347,-0.05373 -0.127467,-0.08693 -0.209494,-0.08693 -0.0053,0 -0.0093,0 -0.01467,0 v 0 c -0.08453,-0.0067 -0.14516,0.06707 -0.199174,0.092 -0.0508,0.05333 -0.08213,0.125334 -0.08213,0.204 0,0.082 0.03333,0.156334 0.08693,0.210174 0.05373,0.05387 0.127734,0.0872 0.209,0.0872 z"
       sodipodi:nodetypes="sssscccccsss" /><path
       id="path8830"
       style="fill:#ef1d1d;fill-opacity:1;fill-rule:nonzero;stroke:none;stroke-width:1.03255"
       d="m 19.992231,11.433562 c 0.04027,0 0.07893,-0.008 0.114133,-0.02333 0.0352,-0.01507 0.06693,-0.0368 0.09373,-0.0636 0.0268,-0.0268 0.0484,-0.0588 0.06347,-0.09413 0.01507,-0.03533 0.02333,-0.07427 0.02333,-0.114934 0,-0.04107 -0.008,-0.08 -0.02333,-0.115466 -0.01507,-0.03547 -0.03667,-0.06733 -0.06347,-0.094 -0.0268,-0.0268 -0.05853,-0.0484 -0.09373,-0.06333 -0.0352,-0.01493 -0.07373,-0.0232 -0.121466,-0.02253 -0.04773,6.67e-4 -0.0848,0.01067 -0.1184,0.02667 -0.03373,0.01573 -0.064,0.0376 -0.08933,0.06427 -0.02547,0.02653 -0.046,0.05787 -0.06013,0.0924 -0.01413,0.03453 -0.022,0.0724 -0.022,0.112 0,0.04067 0.008,0.07947 0.02333,0.114933 0.01507,0.03533 0.0368,0.06733 0.06373,0.09413 0.02693,0.0268 0.05893,0.04853 0.09453,0.0636 0.0356,0.01507 0.07467,0.02333 0.1156,0.02333 z"
       sodipodi:nodetypes="sssssssscssscssss" /><path
       id="path8826"
       style="fill:#ef1d1d;fill-opacity:1;fill-rule:nonzero;stroke:none;stroke-width:1.03255"
       d="M 11.191413,1.3420949e-8 C 10.985074,0.00169001 10.762111,0.03303601 10.523445,0.09570301 c -0.197336,0.052 -0.6250009,0.2265625 -0.6250009,0.2265625 -0.26,0.12 -0.4682865,0.2801667 -0.6269531,0.4375 C 8.9568243,1.0730989 8.8261785,1.3808593 8.8261785,1.3808593 8.6715118,1.475526 8.5667358,1.6162213 8.5039128,1.7441405 8.4410898,1.8720598 8.4202208,1.987203 8.4355538,2.033203 c 0.029333,0.093333 0.025391,0.1529636 0.025391,0.1542969 0,0 -0.288849,0.2278698 -0.6035156,0.5332031 C 7.6680952,2.9033698 7.470366,3.1124062 7.318366,3.3164062 v 0.00195 C 7.23631,3.4055162 7.1968813,3.5116888 7.1367254,3.6074219 v 0.00195 c -0.00133,0.004 -0.00319,0.00967 -0.00586,0.013672 -0.1533325,0.3520061 -0.1636088,0.8149246 -0.099609,1.2949249 0.057333,0.4346666 0.1748281,0.8833906 0.2988281,1.2753906 0.069667,0.2216667 0.149169,0.3906274 0.2285157,0.5195312 0.079347,0.1289039 0.1595065,0.2182585 0.2304687,0.2792969 0.070962,0.061038 0.1332211,0.093257 0.1777344,0.1113281 0.044513,0.018071 0.070312,0.021484 0.070312,0.021484 0.049,-0.054333 0.083941,-0.1065817 0.109375,-0.1621094 0.025434,-0.055528 0.041831,-0.1138346 0.054687,-0.1835937 0.012857,-0.069759 0.021935,-0.1510192 0.033203,-0.2480469 0.011268,-0.097028 0.024256,-0.2103229 0.044922,-0.3476562 0.014,-0.090667 0.034461,-0.1838737 0.060547,-0.2792969 C 8.3659353,5.8088735 8.3976463,5.711234 8.4316463,5.615234 8.570313,5.227234 8.7565838,4.8647965 8.8925838,4.7167965 9.2419177,4.3341302 9.4140682,4.0039058 9.4140682,4.0039058 c 0.00267,-0.024 0.00896,-0.071234 0.015625,-0.1152343 l 0.00195,0.00195 v 0.00195 c 0,0 0.2648488,-0.081922 0.6035158,-0.1699219 0.04667,-0.014667 0.09972,-0.028396 0.150391,-0.039062 0.04,-0.012 0.08171,-0.022537 0.123047,-0.033203 0.03333,-0.00667 0.0637,-0.013484 0.0957,-0.021484 0.09467,-0.024 0.191917,-0.04188 0.28125,-0.060547 0.18,-0.037333 0.392568,-0.08763 0.615234,-0.1542969 0.092,-0.025333 0.184011,-0.05713 0.277344,-0.091797 0.04667,-0.018667 0.09324,-0.034687 0.142578,-0.054687 0.144,-0.06 0.288354,-0.1322708 0.429688,-0.2109375 0.07067,-0.038667 0.182711,-0.1083437 0.248047,-0.1523437 0.171343,-0.1035748 0.316785,-0.2687876 0.451171,-0.3828121 0.05933,-0.063333 0.119201,-0.1201953 0.178735,-0.1703906 0.05953,-0.050195 0.118734,-0.093724 0.176734,-0.1303907 0.06638,-0.046491 0.130067,-0.078569 0.195607,-0.1044689 0.06554,-0.0259 0.132938,-0.045623 0.206743,-0.067404 0.160285,-0.042813 0.310991,-0.021931 0.446126,0.030952 0.135135,0.052883 0.254699,0.1377684 0.3527,0.2229613 0.09733,0.092 0.183624,0.1942083 0.255414,0.30825 0.07179,0.1140416 0.129081,0.2399166 0.168414,0.37925 0.072,0.2493333 0.08349,0.5306041 0.04883,0.8359375 -0.02933,0.2586666 -0.09293,0.5355989 -0.183594,0.8222656 -0.08,0.256 -0.181494,0.517776 -0.298828,0.7871094 -0.109333,0.2506666 -0.231901,0.5076716 -0.365234,0.7636719 -0.02,0.036 -0.250312,0.4291614 -0.570312,0.9238281 -0.182669,0.2826666 -0.393282,0.5964843 -0.613282,0.8964843 -0.176,0.2400003 -0.391234,0.530229 -0.615234,0.8515626 -0.190667,0.2733333 -0.385787,0.5714322 -0.564453,0.8847656 -0.173334,0.3026675 -0.330459,0.6226455 -0.453125,0.9453125 -0.126667,0.336 -0.216141,0.676959 -0.244141,1.015625 0,0.0093 -5.73e-4,0.01996 -0.002,0.0293 -0.02667,0.224 -0.03367,0.459125 -0.01367,0.703125 0.01867,0.224 0.05886,0.454073 0.13086,0.691406 0.12,0.397333 0.311307,0.758219 0.55664,1.074219 0.193333,0.249333 0.412344,0.471969 0.652344,0.667968 0.241333,0.196003 0.503203,0.364527 0.783203,0.50586 0.289852,0.174793 0.603063,0.234094 0.916016,0.3418 0.143621,0.04436 0.300511,0.07287 0.4556,0.09532 0.155089,0.02245 0.308377,0.03884 0.44479,0.05898 0.118667,0.01 0.235876,0.01606 0.350751,0.01879 0.114875,0.0027 0.227416,0.0021 0.336749,-0.0012 0.122,-0.0033 0.24072,-0.01002 0.355273,-0.01936 0.114554,-0.0093 0.224941,-0.02133 0.330274,-0.03533 0.13,-0.018 0.251945,-0.03841 0.364891,-0.05998 0.112945,-0.02157 0.21689,-0.04431 0.31089,-0.06698 0.158667,-0.038 0.321736,-0.02894 0.469805,0.02196 0.148069,0.0509 0.281138,0.143627 0.379805,0.272963 0.08133,0.106 0.179936,0.224284 0.297039,0.348234 0.117103,0.123951 0.252706,0.253568 0.408039,0.382235 0.118,0.098 0.247402,0.19516 0.388804,0.28882 0.141403,0.09366 0.294805,0.18382 0.460805,0.26782 0.140667,0.07067 0.289793,0.137022 0.448086,0.197211 0.158293,0.06019 0.325753,0.114211 0.503086,0.160211 0.152667,0.03934 0.312155,0.07258 0.478976,0.09865 0.166822,0.02607 0.340977,0.04498 0.522977,0.05565 l 0.122071,0.0078 0.12207,0.0078 h 0.27539 c 0.04933,0.322667 0.190438,0.614323 0.398438,0.847656 0.208,0.234667 0.482302,0.410047 0.792969,0.498047 v 5.830078 h -4.029297 c -0.102667,0 -0.193625,0.03694 -0.349204,0.193705 -0.155578,0.156765 -2.281654,2.378562 -2.281656,2.378562 l 0.306641,0.107422 1.642578,-1.130859 0.126953,0.464842 h 0.197312 l 0.734375,-1.203125 h 3.652344 v 0.605469 c -0.067,0.036 -0.128917,0.0808 -0.183594,0.132813 -0.05468,0.05201 -0.101222,0.110876 -0.140625,0.175781 -0.0394,0.0649 -0.07062,0.136259 -0.0918,0.210937 -0.02118,0.07468 -0.0332,0.153042 -0.0332,0.234375 0,0.03417 0.0018,0.06839 0.0059,0.101563 0.0042,0.03318 0.01117,0.0648 0.01953,0.09766 0.0084,0.03286 0.01863,0.06638 0.03125,0.09961 0.01262,0.03323 0.02797,0.06728 0.04492,0.101563 0.01694,0.03428 0.03686,0.06688 0.06055,0.09961 0.0237,0.03272 0.05047,0.06573 0.08008,0.0957 0.0296,0.02998 0.06104,0.05794 0.0957,0.08398 0.03466,0.02605 0.07246,0.04937 0.111328,0.07031 v 8.513672 l -2.785157,1.146485 v 0.207031 h 3.708985 c 0.141333,0 0.235687,-0.144104 0.179687,-0.273438 l -0.292968,-0.667969 v -8.927734 c 0.06667,-0.036 0.128979,-0.08135 0.183593,-0.132812 0.05461,-0.05146 0.101139,-0.109656 0.140625,-0.173828 0.03948,-0.06417 0.07052,-0.132903 0.0918,-0.207032 0.02128,-0.07413 0.0332,-0.153042 0.0332,-0.234375 0,-0.02633 -0.0027,-0.05885 -0.0078,-0.0918 -0.0051,-0.03295 -0.01269,-0.06689 -0.01953,-0.09766 -0.0068,-0.03077 -0.0144,-0.05834 -0.01953,-0.07813 -0.01212,-0.06355 -0.05198,-0.119689 -0.07422,-0.169922 -0.02636,-0.044 -0.05635,-0.08661 -0.08984,-0.125 -0.03348,-0.03839 -0.07163,-0.07363 -0.111328,-0.105469 -0.0397,-0.03184 -0.08195,-0.05965 -0.126953,-0.08398 v -0.607422 h 3.222656 c 0.03967,0.06167 0.08765,0.118138 0.140625,0.167969 0.05298,0.04983 0.111859,0.0933 0.175781,0.128906 0.06392,0.03561 0.132594,0.06303 0.205078,0.08203 0.07248,0.019 0.147896,0.0293 0.226563,0.0293 0.06167,0 0.121586,-0.0059 0.179687,-0.01758 0.0581,-0.01175 0.114612,-0.03034 0.167969,-0.05273 0.05336,-0.02239 0.102957,-0.04817 0.150391,-0.08008 0.04744,-0.03192 0.09248,-0.06904 0.132812,-0.109375 0.04033,-0.04033 0.07745,-0.08528 0.109375,-0.132813 0.03192,-0.04754 0.05964,-0.09695 0.08203,-0.15039 0.02239,-0.05344 0.03903,-0.10993 0.05078,-0.167969 0.01175,-0.05804 0.01758,-0.118355 0.01758,-0.179688 0,-0.03233 -0.0046,-0.07139 -0.01172,-0.111328 -0.0071,-0.03994 -0.01587,-0.0801 -0.02539,-0.117187 -0.0095,-0.03708 -0.0202,-0.06998 -0.02734,-0.09375 -0.0071,-0.02377 -0.01172,-0.03906 -0.01172,-0.03906 -0.02833,-0.063 -0.06376,-0.121441 -0.105469,-0.175781 -0.04171,-0.05434 -0.08968,-0.104872 -0.142578,-0.148437 -0.0529,-0.04357 -0.109992,-0.08066 -0.171875,-0.111329 -0.06188,-0.03067 -0.128599,-0.05464 -0.197266,-0.07031 l -3.289062,-5.785156 c 0.208,-0.233334 0.35301,-0.52623 0.402344,-0.851563 h 8.861328 c -0.18,-0.274667 -0.355964,-0.542734 -0.529297,-0.802734 -0.182667,-0.272 -0.362969,-0.536255 -0.542969,-0.794922 h -10.65826 c -0.184666,0 -0.366888,-0.01293 -0.546109,-0.03819 -0.179221,-0.02526 -0.355443,-0.06286 -0.52811,-0.112197 -0.175333,-0.04933 -0.34638,-0.110555 -0.512093,-0.183275 -0.165714,-0.07272 -0.326094,-0.156939 -0.480094,-0.252272 -0.154,-0.09467 -0.301163,-0.20003 -0.440492,-0.315226 -0.13933,-0.115197 -0.270826,-0.240227 -0.393493,-0.374227 -0.121333,-0.132 -0.234296,-0.272966 -0.337593,-0.422265 -0.103297,-0.1493 -0.196927,-0.306933 -0.279594,-0.472266 -0.07555,0.02528 -0.152308,0.0292 -0.226563,0.01953 -0.07425,-0.0097 -0.146791,-0.03234 -0.21289,-0.06445 -0.0661,-0.0321 -0.1247,-0.0732 -0.175782,-0.115234 -0.05108,-0.04203 -0.09385,-0.08556 -0.123046,-0.125 -0.03333,-0.04502 -0.06343,-0.09315 -0.08789,-0.144532 -0.02446,-0.05138 -0.04308,-0.105619 -0.05664,-0.162109 -0.01356,-0.05649 -0.02084,-0.115415 -0.02148,-0.175781 -6.3e-4,-0.06037 0.0052,-0.122547 0.01953,-0.185547 0.016,-0.07067 0.04319,-0.138748 0.07813,-0.201172 0.03493,-0.06242 0.07855,-0.119246 0.128906,-0.169922 0.05035,-0.05068 0.105703,-0.09543 0.167969,-0.130859 0.06227,-0.03542 0.130505,-0.06147 0.201172,-0.07813 0.06333,-0.01467 0.126674,-0.02161 0.1875,-0.02149 0.06083,1.25e-4 0.118957,0.0081 0.175781,0.02149 0.05682,0.01339 0.110784,0.03152 0.16211,0.05664 0.05133,0.02512 0.100198,0.05647 0.144531,0.0918 0.04533,0.036 0.08672,0.07615 0.123047,0.121094 0.03633,0.04495 0.06797,0.09417 0.09375,0.146484 0.02578,0.05232 0.04493,0.1079 0.05859,0.166016 0.01367,0.05812 0.02148,0.119308 0.02148,0.181641 0,0.049 -0.0045,0.09618 -0.01367,0.142578 -0.0091,0.04641 -0.0219,0.09156 -0.03906,0.134765 -0.01716,0.04321 -0.03838,0.08559 -0.0625,0.125 -0.02412,0.03941 -0.05203,0.07633 -0.08203,0.111329 0.06869,0.152606 0.16111,0.291733 0.256795,0.421289 0.09568,0.129556 0.194638,0.249542 0.276409,0.363867 0.106666,0.117333 0.221152,0.226391 0.342304,0.326781 0.121152,0.100391 0.248971,0.192114 0.382305,0.274781 0.133333,0.08333 0.272332,0.15737 0.416164,0.221406 0.143832,0.06404 0.292497,0.118073 0.445164,0.161407 0.149333,0.04267 0.302398,0.07538 0.458297,0.09743 0.155898,0.02205 0.31463,0.03343 0.475297,0.03343 h 10.292969 c -0.200003,-0.282666 -0.397131,-0.556312 -0.591797,-0.820312 -0.204,-0.278667 -0.404849,-0.546641 -0.603516,-0.806641 h -7.533211 c -0.189334,0 -0.377189,-0.01277 -0.562211,-0.03772 -0.185022,-0.02494 -0.367211,-0.06205 -0.545211,-0.11072 -0.180667,-0.05 -0.357014,-0.112042 -0.528195,-0.18525 -0.171182,-0.07321 -0.337196,-0.157584 -0.497196,-0.25225 -0.16,-0.09467 -0.313905,-0.199542 -0.460476,-0.31425 -0.146572,-0.114708 -0.28581,-0.23925 -0.416477,-0.37325 -0.129333,-0.132 -0.250325,-0.273121 -0.361984,-0.422743 -0.111659,-0.149621 -0.213984,-0.307742 -0.305984,-0.473742 -0.07589,0.02265 -0.150521,0.02718 -0.222657,0.01953 -0.07214,-0.0077 -0.140909,-0.02739 -0.205078,-0.05664 -0.06417,-0.02925 -0.123792,-0.06724 -0.175781,-0.109375 -0.05199,-0.04214 -0.09722,-0.08844 -0.132813,-0.134766 -0.03394,-0.04417 -0.06476,-0.09199 -0.08984,-0.142578 -0.02508,-0.05059 -0.0443,-0.104345 -0.05859,-0.160156 -0.0143,-0.05581 -0.02378,-0.11399 -0.02539,-0.173828 -0.0016,-0.05984 0.0046,-0.120927 0.01758,-0.183594 0.015,-0.07 0.04052,-0.13697 0.07422,-0.199219 0.0337,-0.06225 0.07601,-0.118924 0.125,-0.169922 0.04898,-0.051 0.105152,-0.09657 0.166016,-0.132812 0.06086,-0.03625 0.125979,-0.06403 0.195312,-0.08203 0.06333,-0.017 0.126175,-0.02567 0.1875,-0.02734 0.06133,-0.0017 0.121977,0.0035 0.179688,0.01563 0.05771,0.0121 0.111571,0.03036 0.164062,0.05469 0.05249,0.02433 0.102771,0.05484 0.148438,0.08984 0.04667,0.03567 0.08928,0.07597 0.126953,0.121094 0.03768,0.04512 0.07075,0.09555 0.09766,0.148437 0.02691,0.05289 0.04815,0.109012 0.0625,0.167969 0.01435,0.05896 0.02148,0.120261 0.02148,0.183594 0,0.049 -0.0046,0.09625 -0.01367,0.142578 -0.009,0.04633 -0.02206,0.09172 -0.03906,0.134766 -0.017,0.04305 -0.03862,0.08388 -0.0625,0.123046 -0.02387,0.03916 -0.05041,0.07667 -0.08008,0.111329 0.06955,0.152462 0.162599,0.291519 0.258878,0.421076 0.09628,0.129557 0.195782,0.249615 0.278231,0.36408 0.107333,0.117333 0.222462,0.226546 0.344258,0.327258 0.121796,0.100712 0.250258,0.192924 0.384258,0.276257 0.134,0.08267 0.27413,0.156216 0.419093,0.219931 0.144963,0.06371 0.29476,0.117595 0.448095,0.160929 0.15,0.04266 0.303708,0.07538 0.460249,0.09743 0.156541,0.02205 0.315916,0.03343 0.477251,0.03343 h 7.269531 c -0.224,-0.286666 -0.442917,-0.558979 -0.65625,-0.820312 -0.232,-0.282667 -0.457735,-0.550641 -0.677735,-0.806641 0,0 -5.054156,-0.0511 -5.410156,-0.148437 -0.180666,-0.04933 -0.357502,-0.110245 -0.529172,-0.182321 -0.171669,-0.07208 -0.338172,-0.15532 -0.498172,-0.24932 -0.160666,-0.09467 -0.31506,-0.199696 -0.461953,-0.314726 -0.146893,-0.11503 -0.286286,-0.24006 -0.416953,-0.374727 -0.128666,-0.132 -0.249659,-0.273121 -0.361484,-0.422742 -0.111826,-0.149621 -0.214485,-0.3077422 -0.306485,-0.4737424 -0.06301,0.032941 -0.127803,0.046349 -0.191406,0.044922 -0.0636,-0.00143 -0.126269,-0.018208 -0.185547,-0.042969 -0.05928,-0.024761 -0.114025,-0.058643 -0.164062,-0.095703 -0.05004,-0.03706 -0.09498,-0.076911 -0.13086,-0.1152344 -0.03552,-0.037939 -0.06849,-0.077897 -0.09766,-0.1210937 -0.02917,-0.043197 -0.05504,-0.08901 -0.07617,-0.1367188 -0.02113,-0.047709 -0.03742,-0.098915 -0.04883,-0.1503906 -0.01142,-0.051476 -0.01759,-0.1037073 -0.01759,-0.1582042 0,-0.053667 0.0057,-0.1064052 0.01637,-0.1574437 0.01067,-0.051039 0.02629,-0.1003771 0.04613,-0.1472438 0.01984,-0.046867 0.04411,-0.09105 0.07228,-0.1324316 0.02817,-0.041381 0.06024,-0.07996 0.09569,-0.1156153 0.03545,-0.035656 0.07404,-0.06812 0.115482,-0.096678 0.04144,-0.028558 0.08573,-0.053211 0.132565,-0.073244 0.04684,-0.020034 0.09601,-0.035659 0.146973,-0.046276 0.05096,-0.010616 0.103714,-0.016224 0.157714,-0.016224 0.054,0 0.106753,0.00561 0.157716,0.016225 0.05096,0.010617 0.100134,0.026242 0.146972,0.046275 0.04684,0.020034 0.09113,0.044687 0.132565,0.073245 0.04144,0.028558 0.08003,0.061021 0.115482,0.096677 0.03545,0.035655 0.06752,0.074234 0.09569,0.1156148 0.02817,0.041381 0.05244,0.085565 0.07228,0.1324321 0.01984,0.046867 0.03546,0.096205 0.04613,0.1472436 0.01067,0.051039 0.01637,0.1037772 0.01637,0.1574439 0,0.049333 -0.0046,0.097958 -0.01367,0.1445312 -0.0091,0.046573 -0.02182,0.091557 -0.03906,0.1347657 -0.01724,0.043209 -0.05809,0.089243 -0.0918,0.1308593 -0.0337,0.041616 -0.06114,0.078352 -0.05469,0.1035157 0,0 0.171663,0.2907658 0.269492,0.421888 0.09783,0.1311222 0.203825,0.2550782 0.316492,0.3710782 0.114666,0.117334 0.236716,0.226392 0.365265,0.326782 0.12855,0.100391 0.263599,0.192114 0.404266,0.274781 0.140667,0.082 0.286765,0.154571 0.437196,0.217476 0.150431,0.06291 0.305195,0.116143 0.463195,0.159477 0.312,0.08533 4.804687,0.13086 4.804687,0.13086 C 28.879153,11.135835 28.651648,10.88887 28.431648,10.658203 28.186314,10.40087 27.94995,10.163359 27.724616,9.9433594 27.46595,9.690026 27.220908,9.4599531 26.990241,9.2519531 26.714241,9.0026198 26.459905,8.7856565 26.226569,8.5976562 25.918569,8.3483229 25.651122,8.148901 25.425788,7.9902344 c -0.557333,-0.3906667 -0.9375,-0.5742188 -0.9375,-0.5742188 -0.08,-0.048 -0.291588,-0.1512396 -0.544922,-0.2539062 -0.196,-0.078667 -0.416961,-0.1545625 -0.654297,-0.2265625 -0.210666,-0.064 -0.435255,-0.1263542 -0.669921,-0.1796875 -0.22,-0.049333 -0.449201,-0.092023 -0.830079,-0.1386719 -0.380878,-0.046648 -0.710687,-0.062688 -1.054687,-0.054687 -0.314667,0.008 -0.641464,0.036323 -0.966797,0.097656 -0.376,0.070667 -0.752042,0.182849 -1.109375,0.3535157 -0.341333,0.164 -0.666364,0.3800625 -0.957031,0.6640625 -0.198667,0.1946666 -0.361427,0.4069531 -0.496094,0.6269531 -0.145333,0.2386667 -0.256463,0.4839894 -0.341797,0.7226563 -0.09867,0.276 -0.161172,0.5414374 -0.201172,0.7734374 -0.08,0.4666675 -0.07031,0.7968755 -0.07031,0.7968755 h 0.0039 c -0.01867,0.269334 -0.03779,0.523766 -0.06445,0.759766 -0.01534,0.138667 -0.03333,0.271639 -0.05664,0.396484 -0.02331,0.124846 -0.05194,0.241563 -0.08594,0.351562 -0.04134,0.132 -0.09306,0.252564 -0.15625,0.361328 -0.06319,0.108765 -0.137849,0.205729 -0.228516,0.289062 -0.084,0.078 -0.180225,0.143522 -0.292968,0.197266 -0.112744,0.05374 -0.242005,0.09571 -0.388672,0.123047 -0.203333,0.03866 -0.398237,0.04041 -0.580078,0.01172 -0.181842,-0.02869 -0.35062,-0.08782 -0.501954,-0.173829 -0.160666,-0.092 -0.300093,-0.21403 -0.414062,-0.359374 -0.113969,-0.145344 -0.202479,-0.314 -0.257813,-0.5 -0.02867,-0.123334 -0.04252,-0.259939 -0.03711,-0.412109 0.0054,-0.152171 0.03008,-0.319906 0.08008,-0.503906 0.04533,-0.170667 0.130901,-0.364172 0.240234,-0.576172 0.012,-0.01333 0.02344,-0.04687 0.02344,-0.04687 0.148,-0.278667 0.340641,-0.5904017 0.556641,-0.9277351 0.182666,-0.2853333 0.382557,-0.5882031 0.58789,-0.9082031 0.189334,-0.2946667 0.379738,-0.6025885 0.566407,-0.9199219 0.181333,-0.308 0.358197,-0.6258385 0.519531,-0.9511718 0.16,-0.3240003 0.307021,-0.6561873 0.429687,-0.9921876 0.125334,-0.3426666 0.226922,-0.6903489 0.294922,-1.0410156 0.06933,-0.3573333 0.103083,-0.7155521 0.09375,-1.0742187 -0.01067,-0.356 -0.06645,-0.7111198 -0.175781,-1.0644531 -0.02667,-0.082667 -0.05013,-0.1622813 -0.07813,-0.2382813 -0.07603,-0.2372062 -0.214425,-0.4651827 -0.306636,-0.6640683 -0.152389,-0.2886508 -0.425966,-0.518957 -0.617187,-0.734375 -0.284,-0.25466669 -0.557229,-0.41971879 -0.726563,-0.51171879 -0.154641,-0.090948 -0.338678,-0.1503783 -0.488281,-0.2167968 -0.14491,-0.065136 -0.29867,-0.082527 -0.445312,-0.123047 -0.290669,-0.065333 -0.562115,-0.096042 -0.800782,-0.109375 -0.356,-0.018667 -0.640591,0.00539 -0.808594,0.025391 -0.07067,0.008 -0.123817,0.015531 -0.146484,0.019531 -0.190082,0.064858 -0.412789,-0.0041 -0.589844,-0.00586 C 11.586908,0.02745791 11.397752,-0.00169009 11.191413,1.3420949e-8 Z M 24.027351,19.138672 27.181648,24.6875 c -0.02333,0.022 -0.04546,0.04592 -0.06641,0.07031 -0.02095,0.02439 -0.04032,0.04954 -0.05859,0.07617 -0.01827,0.02663 -0.0355,0.05331 -0.05078,0.08203 -0.01528,0.02872 -0.02902,0.05917 -0.04102,0.08984 H 23.82227 v -5.808593 c 0.06933,-0.016 0.138411,-0.03459 0.205078,-0.05859 z m 3.771484,5.80664 c 0.05259,0 0.102683,0.01066 0.148248,0.02993 0.04557,0.01927 0.0866,0.04716 0.121061,0.08162 0.03446,0.03446 0.06235,0.0755 0.08162,0.121061 0.01927,0.04556 0.02993,0.09566 0.02993,0.148248 0,0.05259 -0.01066,0.102682 -0.02993,0.148248 -0.01927,0.04556 -0.04716,0.0866 -0.08162,0.12106 -0.03446,0.03446 -0.0755,0.06235 -0.12106,0.08162 -0.04557,0.01927 -0.09566,0.02993 -0.148248,0.02993 -0.05259,0 -0.102682,-0.01066 -0.148247,-0.02993 -0.04557,-0.01927 -0.0866,-0.04716 -0.121061,-0.08162 -0.03446,-0.03446 -0.06235,-0.0755 -0.08162,-0.121061 -0.01927,-0.04556 -0.02993,-0.09566 -0.02993,-0.148247 0,-0.05259 0.01066,-0.102682 0.02993,-0.148248 0.01927,-0.04556 0.04716,-0.0866 0.08162,-0.12106 0.03446,-0.03446 0.0755,-0.06235 0.12106,-0.08162 0.04557,-0.01927 0.09566,-0.02993 0.148248,-0.02993 z m -4.365234,1.884766 c 0.04679,0.0013 0.08992,0.01725 0.128906,0.04102 0.03898,0.02377 0.07476,0.056 0.103516,0.0918 0.02876,0.0358 0.05028,0.07399 0.06641,0.111328 0.01614,0.03734 0.02623,0.07316 0.02734,0.101562 0.0011,0.0284 -0.0076,0.064 -0.02344,0.101563 -0.01576,0.03756 -0.03823,0.07751 -0.06836,0.113281 -0.03014,0.03578 -0.06734,0.06678 -0.109375,0.08984 -0.04204,0.02306 -0.08917,0.0377 -0.140625,0.03711 -0.05145,-5.93e-4 -0.09877,-0.0097 -0.140625,-0.02539 -0.04185,-0.01572 -0.07919,-0.03893 -0.109375,-0.06836 -0.03019,-0.02943 -0.05385,-0.06374 -0.07031,-0.105469 -0.01645,-0.04173 -0.02475,-0.08997 -0.02539,-0.142578 -6.47e-4,-0.05261 0.01012,-0.09991 0.0293,-0.142578 0.01916,-0.04267 0.04642,-0.08096 0.08008,-0.111328 0.03366,-0.03037 0.07431,-0.05458 0.117187,-0.07031 0.04287,-0.01573 0.08797,-0.02274 0.134766,-0.02148 z"
       sodipodi:nodetypes="sccccsccccccccccssscssscscccccccccccccccccscscscsccccccscccccccccccscscscscscscscscscccccccscccccccccssssccscccsccccscccssssscccsscccsssscsssssssscccsssccccccsscscscscccscssccccccccscsscscsscscscscsscccsscssscsccsssscccscccccsccssscsccscscscssccccscscscssssssssscssssssssssscsscsccscscscccccccccccsccccccccccscscscscscccccccccccccccccccccccsscsssccccssssssssssssssssscsscccssssscscsscscs" /><path
       style="fill:#ef1d1d;fill-opacity:1;fill-rule:nonzero;stroke:none;stroke-width:1.17492"
       d="m 32.232445,47.548804 c 0,0.981773 0,1.963546 0,2.94532 0.60156,0 1.20312,0 1.80468,0 0,-0.191414 0,-0.382814 0,-0.574227 -0.362627,0 -0.725253,0 -1.087893,0 0,-0.215493 0,-0.430987 0,-0.64648 0.32032,0 0.640626,0 0.960947,0 0,-0.184253 0,-0.368493 0,-0.552733 -0.320321,0 -0.640627,0 -0.960947,0 0,-0.198574 0,-0.397134 0,-0.595707 0.36264,0 0.725266,0 1.087893,0 0,-0.192053 0,-0.38412 0,-0.576173 -0.60156,0 -1.20312,0 -1.80468,0 z"
       id="path2711" /><path
       style="fill:#ef1d1d;fill-opacity:1;fill-rule:nonzero;stroke:none;stroke-width:1.17492"
       d="m 20.250018,47.548804 c 0,0.981773 0,1.963546 0,2.94532 0.238933,0 0.477867,0 0.7168,0 0,-0.981774 0,-1.963547 0,-2.94532 -0.238933,0 -0.477867,0 -0.7168,0 z"
       id="path2709" /><path
       style="fill:#ef1d1d;fill-opacity:1;fill-rule:nonzero;stroke:none;stroke-width:1.17492"
       d="m 13.189471,47.548804 c 0.350266,0.98108 0.695093,1.96408 1.04492,2.94532 0.29948,0 0.59896,0 0.89844,0 0.346773,-0.982094 0.694773,-1.963747 1.042973,-2.94532 -0.252613,0 -0.505213,0 -0.757813,0 -0.24528,0.74072 -0.48936,1.481853 -0.734373,2.222653 -0.24464,-0.740507 -0.486707,-1.481853 -0.73048,-2.222653 -0.254547,0 -0.509107,0 -0.763667,0 z"
       id="path2707" /><path
       style="fill:#ef1d1d;fill-opacity:1;fill-rule:nonzero;stroke:none;stroke-width:1.17492"
       d="m 7.3691638,47.548804 c 0,0.981773 0,1.963546 0,2.94532 0.6009067,0 1.2018134,0 1.8027335,0 0,-0.191414 0,-0.382814 0,-0.574227 -0.3619867,0 -0.7239601,0 -1.0859468,0 0,-0.215493 0,-0.430987 0,-0.64648 0.3203201,0 0.6406267,0 0.9609468,0 0,-0.184253 0,-0.368493 0,-0.552733 -0.3203201,0 -0.6406267,0 -0.9609468,0 0,-0.198574 0,-0.397134 0,-0.595707 0.3619867,0 0.7239601,0 1.0859468,0 0,-0.192053 0,-0.38412 0,-0.576173 -0.6009201,0 -1.2018268,0 -1.8027335,0 z"
       id="path2705" /><path
       style="fill:#ef1d1d;fill-opacity:1;fill-rule:nonzero;stroke:none;stroke-width:1.17492"
       d="m 26.621565,47.51623 c -0.168,-0.004 -0.337334,0.02133 -0.497334,0.07333 -0.158666,0.052 -0.309333,0.130666 -0.441333,0.233333 -0.132,0.102667 -0.245333,0.228 -0.330667,0.374667 -0.08267,0.141333 -0.141333,0.296 -0.176,0.456 -0.03333,0.158666 -0.044,0.324 -0.032,0.486666 0.012,0.164 0.04533,0.324 0.101334,0.477334 0.05867,0.16 0.149333,0.304 0.262666,0.429333 0.113334,0.124 0.249334,0.228 0.398667,0.305333 0.149333,0.07733 0.313333,0.129334 0.48,0.148 0.161333,0.02267 0.328,0.02267 0.490667,-0.0027 0.162666,-0.024 0.321333,-0.07333 0.465333,-0.148 0.145334,-0.07467 0.277334,-0.174667 0.385334,-0.301334 0.14,-0.16 0.236,-0.356 0.289333,-0.561333 -0.132,0 -0.262667,0 -0.394667,0 -0.132,0 -0.262666,0 -0.394666,0 -0.056,0.133333 -0.160001,0.236 -0.285334,0.3 -0.126667,0.064 -0.272,0.09067 -0.412,0.07333 -0.153333,-0.008 -0.293333,-0.07333 -0.404,-0.173333 -0.110667,-0.1 -0.190667,-0.234667 -0.222667,-0.381333 -0.03867,-0.166667 -0.04667,-0.349334 -0.012,-0.521334 0.03467,-0.172 0.113334,-0.330666 0.249334,-0.448 0.150666,-0.132 0.361333,-0.184 0.561333,-0.16 0.198667,0.024 0.386667,0.126667 0.490667,0.305334 0.01333,0.09333 0.101333,0.06 0.168,0.06533 0.218667,0 0.437333,0 0.656,0 -0.036,-0.154667 -0.102667,-0.3 -0.190667,-0.430667 -0.088,-0.129333 -0.198666,-0.244 -0.325333,-0.336 -0.126667,-0.09333 -0.269333,-0.162666 -0.422667,-0.204 -0.148,-0.04267 -0.304,-0.06133 -0.457333,-0.06133 0,0 0,0.0013 0,0.0013"
       id="path2701" /><path
       style="fill:#ef1d1d;fill-opacity:1;fill-rule:nonzero;stroke:none;stroke-width:1.17492"
       d="m 39.216232,47.50823 c -0.176,0.0027 -0.362667,0.03867 -0.526667,0.114667 -0.164,0.076 -0.305333,0.192 -0.394666,0.354667 -0.06,0.117333 -0.09067,0.248 -0.09467,0.38 -0.004,0.132 0.02,0.264 0.07333,0.384 0.05733,0.116 0.145334,0.206666 0.249334,0.28 0.102666,0.072 0.221333,0.125333 0.34,0.165333 0.110666,0.04533 0.226666,0.076 0.341333,0.110667 0.114667,0.036 0.226667,0.07733 0.328,0.144 0.164,0.08933 0.181333,0.354666 0.01733,0.452 -0.170666,0.096 -0.434666,0.07733 -0.54,-0.106667 -0.05733,-0.05733 -0.0093,-0.204 -0.12,-0.173333 -0.116,0 -0.232,0 -0.349333,0 -0.116,0 -0.232,0 -0.349333,0 0.0013,0.148 0.04267,0.293333 0.117333,0.418666 0.07333,0.126667 0.178667,0.234667 0.305333,0.310667 0.161334,0.09333 0.34,0.148 0.524,0.169333 0.184,0.02267 0.372,0.01067 0.550667,-0.028 0.169333,-0.03733 0.330667,-0.12 0.457333,-0.238666 0.128,-0.118667 0.221334,-0.270667 0.253334,-0.446667 0.02667,-0.124 0.02667,-0.258667 -0.004,-0.382667 -0.032,-0.125333 -0.09467,-0.24 -0.193334,-0.328 -0.104,-0.09867 -0.226666,-0.166666 -0.357333,-0.221333 -0.129333,-0.05467 -0.266667,-0.096 -0.397333,-0.144 -0.149334,-0.05867 -0.318667,-0.09867 -0.433334,-0.217333 -0.113333,-0.137334 -0.04,-0.386667 0.146667,-0.413334 0.173333,-0.044 0.394667,0.04 0.433333,0.229334 -0.016,0.08933 0.064,0.064 0.122667,0.06667 0.22,0 0.44,0 0.661333,0 -0.0013,-0.149333 -0.044,-0.296 -0.118666,-0.422666 -0.076,-0.126667 -0.184,-0.234667 -0.317334,-0.304 -0.109333,-0.06267 -0.228,-0.102667 -0.350666,-0.125334 -0.122667,-0.024 -0.249334,-0.03067 -0.374667,-0.028 0,0 0,0 0,0"
       id="path2699" /><path
       style="fill:#ef1d1d;fill-opacity:1;fill-rule:nonzero;stroke:none;stroke-width:1.17492"
       d="m 21.212911,40.744123 c -0.06427,0.09093 -0.01627,0.2528 -0.0312,0.37356 8.14e-4,1.57248 -0.0013,3.145001 0.0012,4.717441 0.100266,0.05547 0.2552,0.012 0.378213,0.02613 0.46812,-0.0013 0.9364,0.0027 1.40444,-0.0027 0.072,-0.09147 0.01747,-0.25008 0.03453,-0.369573 -0.0013,-1.57068 0.0027,-3.141547 -0.0027,-4.71212 -0.09667,-0.06907 -0.25336,-0.01733 -0.375254,-0.03347 -0.469866,0 -0.939746,0 -1.409626,0 z"
       id="path2693" /><path
       style="fill:#ef1d1d;fill-opacity:1;fill-rule:nonzero;stroke:none;stroke-width:1.17492"
       d="m 4.4843904,40.744123 c -0.063733,0.05267 -0.016667,0.176827 -0.0312,0.259427 7.333e-4,1.61052 -0.00133,3.22108 0.00111,4.831574 0.0668,0.05253 0.1854267,0.01453 0.2748534,0.02613 1.1233467,-0.0013 2.2468401,0.0027 3.3701068,-0.0027 0.068267,-0.0588 0.021867,-0.18092 0.0356,-0.268053 -0.00267,-0.365227 0.004,-0.730813 -0.00267,-1.0958 -0.065733,-0.0712 -0.1886,-0.0252 -0.2805066,-0.0384 -0.5466934,0 -1.0933734,0 -1.6400668,0 -0.00133,-1.226454 0.00267,-2.453107 -0.00267,-3.67944 -0.065733,-0.06387 -0.1855867,-0.0208 -0.2755734,-0.03347 -0.48288,0 -0.9657734,0 -1.4486534,0 z"
       id="path2691" /><path
       style="fill:#ef1d1d;fill-opacity:1;fill-rule:nonzero;stroke:none;stroke-width:1.17492"
       d="m 0.07619015,40.744123 c -0.13293334,0.008 -0.05586667,0.19064 -0.07613334034,0.28388 0.0013333303,1.597174 -0.0026666697,3.194494 0.0026666703,4.791561 0.0516,0.07987 0.18781334,0.02573 0.27793334,0.04173 0.48428003,-0.0027 0.96948008,0.0067 1.45317338,-0.0053 0.059867,-0.08307 0.021333,-0.203947 0.0324,-0.304334 0,-0.409893 0,-0.819786 0,-1.22968 0.6010401,-0.0013 1.2023068,0.004 1.8032135,-0.0027 0.046267,-0.07413 0.012,-0.186681 0.022933,-0.277547 -0.00267,-0.341734 0.00667,-0.68468 -0.00533,-1.025627 -0.095467,-0.04493 -0.2162134,-0.012 -0.3228934,-0.0224 -0.4993334,0 -0.9986667,0 -1.4980001,0 0,-0.329427 0,-0.658853 0,-0.988293 0.6690401,-0.0013 1.3382668,0.0027 2.0072001,-0.0027 0.0488,-0.0692 0.013333,-0.18196 0.024,-0.270027 -0.004,-0.324586 0.00667,-0.65084 -0.00533,-0.97436 -0.14408,-0.032 -0.3019067,-0.0067 -0.4518134,-0.01507 -1.0877067,0 -2.1754267,0 -3.26313345,0 z"
       id="path2689" /><path
       style="fill:#ef1d1d;fill-opacity:1;fill-rule:nonzero;stroke:none;stroke-width:1.17492"
       d="m 19.976578,40.607403 c -0.49656,0.329747 -0.953814,0.721014 -1.42352,1.089374 -0.415374,0.337333 -0.82728,0.678933 -1.23468,1.025853 -0.811094,-0.70852 -1.645254,-1.391493 -2.505867,-2.039053 -0.206147,-0.05787 -0.0752,0.368893 -0.129067,0.505493 -0.07267,1.540827 -0.136733,3.082667 -0.149013,4.62528 0.06307,0.09 0.21892,0.02893 0.323507,0.04693 0.394306,-0.0013 0.788826,0.004 1.183,-0.0027 0.08587,-0.08027 0.0344,-0.236387 0.05413,-0.351133 0.01653,-0.553854 0.0304,-1.1078 0.0456,-1.661707 0.361453,0.330093 0.714813,0.671013 1.09932,0.9744 0.24644,-0.09347 0.447,-0.34656 0.674133,-0.501733 0.191694,-0.157201 0.38308,-0.314774 0.574214,-0.472667 0.0236,0.66288 0.04333,1.32596 0.0704,1.988667 0.07827,0.06867 0.21232,0.02013 0.314853,0.0348 0.439947,0 0.87988,0 1.319813,0 0.123067,-0.175454 0.004,-0.489907 0.03173,-0.718134 -0.0508,-1.50796 -0.1184,-3.01548 -0.218067,-4.521027 l -0.0168,-0.02067 -0.0136,-0.0027 z"
       id="path2685" /><path
       style="fill:#ef1d1d;fill-opacity:1;fill-rule:nonzero;stroke:none;stroke-width:1.17492"
       d="m 24.099631,40.59959 c -0.0632,0.217573 -0.01333,0.49648 -0.03173,0.737507 -0.01067,1.490866 -0.01653,2.982427 0.008,4.47292 0.08933,0.0988 0.257493,0.03147 0.382027,0.05133 0.396146,-0.0053 0.795586,0.01067 1.1896,-0.0093 0.02107,-0.53868 0.0027,-1.083933 0.0093,-1.625173 0,-0.116801 0,-0.233681 0,-0.350521 1.07244,0.723934 2.14224,1.456361 3.252707,2.119894 0.101733,-0.180893 0.0236,-0.504547 0.052,-0.742227 0.012,-1.48888 0.01067,-2.97792 -0.0067,-4.466747 -0.0872,-0.0872 -0.25992,-0.02467 -0.384093,-0.04373 -0.393973,0.0013 -0.788133,-0.0027 -1.181987,0.0027 -0.05133,0.1096 -0.012,0.26272 -0.02453,0.39068 0,0.53628 0,1.072573 0,1.608853 -1.082014,-0.723787 -2.152894,-1.468573 -3.263667,-2.14652 z"
       id="path2683" /><path
       style="fill:#ef1d1d;fill-opacity:1;fill-rule:nonzero;stroke:none;stroke-width:1.17492"
       d="m 32.438898,40.593563 c -0.184,-0.0027 -0.369333,0.012 -0.552,0.04533 -0.182666,0.032 -0.362666,0.08133 -0.536,0.146666 -0.174666,0.06667 -0.341333,0.149334 -0.497333,0.246667 -0.157333,0.09867 -0.304,0.213333 -0.434667,0.344 -0.130666,0.129333 -0.248,0.273333 -0.346666,0.432 -0.105334,0.165333 -0.189334,0.342667 -0.254667,0.526667 -0.06533,0.184 -0.110667,0.374666 -0.137333,0.568 -0.02533,0.194666 -0.032,0.390666 -0.02133,0.586666 0.012,0.194667 0.04267,0.389334 0.09067,0.58 0.04933,0.189334 0.116,0.373334 0.2,0.549334 0.096,0.2 0.22,0.382667 0.366667,0.544 0.146666,0.162667 0.314666,0.305333 0.498666,0.425333 0.184,0.118667 0.382667,0.216 0.589334,0.288 0.208,0.072 0.424,0.12 0.641333,0.14 0.208,0.02667 0.42,0.028 0.629333,0.0053 0.209334,-0.024 0.414667,-0.072 0.610667,-0.148 0.194667,-0.076 0.38,-0.178667 0.546667,-0.310667 0.1,-0.154667 0.217333,-0.02133 0.330667,0.032 0.118666,0.064 0.234666,0.130667 0.352,0.196 0.118666,0.06667 0.236,0.130667 0.356,0.190667 0.172,0.05333 0.09467,-0.157334 0.112,-0.250667 0,-0.170667 0,-0.34 0,-0.510667 0,-0.169333 0,-0.34 0,-0.510666 0,-0.169334 0,-0.34 0,-0.509334 0,-0.169333 -0.0013,-0.34 -0.0013,-0.509333 -0.07733,-0.052 -0.204,-0.012 -0.301333,-0.02533 -0.216,0.0013 -0.430667,0 -0.646667,0 -0.216,0 -0.430667,0 -0.646667,0.004 -0.048,0.09867 -0.09733,0.204 -0.158666,0.297334 -0.06267,0.09467 -0.138667,0.177333 -0.241334,0.233333 -0.185333,0.101334 -0.401333,0.144 -0.614666,0.130667 -0.213334,-0.012 -0.424,-0.08 -0.596,-0.2 -0.136,-0.108 -0.230667,-0.250667 -0.288,-0.410667 -0.056,-0.157333 -0.07467,-0.332 -0.05733,-0.501333 0.01733,-0.170667 0.07067,-0.337334 0.157334,-0.478667 0.09733,-0.152 0.237333,-0.262667 0.397333,-0.332 0.158667,-0.068 0.336,-0.096 0.512,-0.08533 0.176,0.01067 0.349333,0.06133 0.498667,0.150666 0.148,0.08933 0.272,0.216 0.346666,0.381334 0.110667,0.04133 0.229334,-0.004 0.348,-0.06667 0.110667,-0.05733 0.221334,-0.128 0.328001,-0.156 0.144,-0.06667 0.290666,-0.128 0.437333,-0.192 0.146667,-0.06267 0.292,-0.128 0.433333,-0.2 -0.01333,-0.142667 -0.072,-0.28 -0.149333,-0.410667 -0.07467,-0.126666 -0.166667,-0.248 -0.249333,-0.361333 -0.122667,-0.152 -0.262667,-0.284 -0.417334,-0.394667 -0.156,-0.112 -0.325333,-0.204 -0.504,-0.276 -0.178667,-0.072 -0.365333,-0.124 -0.556,-0.157333 -0.189333,-0.03467 -0.382667,-0.04933 -0.574667,-0.04667 0,0 0,0 0,0"
       id="path2681" /><path
       id="path7648"
       style="fill:#ef1d1d;fill-opacity:1;fill-rule:nonzero;stroke:none;stroke-width:1.03255"
       d="m 21.468791,9.2304417 c 0.04027,0 0.07893,-0.008 0.114134,-0.023333 0.0352,-0.015067 0.06693,-0.0368 0.09373,-0.0636 0.0268,-0.0268 0.0484,-0.0588 0.06347,-0.094133 0.01507,-0.035333 0.02333,-0.074267 0.02333,-0.1149334 0,-0.041067 -0.008,-0.08 -0.02333,-0.1154666 -0.01507,-0.035467 -0.03667,-0.067333 -0.06347,-0.094 -0.0268,-0.0268 -0.05853,-0.0484 -0.09373,-0.063333 -0.0352,-0.014933 -0.07373,-0.0232 -0.121334,-0.021867 -0.04773,0.00133 -0.0848,0.010667 -0.118533,0.026 -0.03373,0.015733 -0.064,0.0376 -0.08933,0.064133 -0.02547,0.026533 -0.046,0.057867 -0.06013,0.0924 -0.01413,0.034533 -0.022,0.0724 -0.022,0.1121333 0,0.040667 0.008,0.079467 0.02333,0.1149334 0.01507,0.035333 0.0368,0.067333 0.06373,0.094133 0.02693,0.0268 0.05893,0.048533 0.09453,0.0636 0.0356,0.015067 0.07467,0.023333 0.1156,0.023333 z"
       sodipodi:nodetypes="sssssssscssscssss" /></g></svg>
