999
"DXF R12 Output" (www.mydxf.blogspot.com)
 0 
SECTION
 2 
HEADER
 9 
$ACADVER
 1 
AC1009
 9 
$EXTMIN
 10 
 0 
 20 
 0 
 9 
$EXTMAX
 10 
 8.5 
 20 
 11 
 0 
ENDSEC
 0 
SECTION
 2 
ENTITIES
0
LINE
8
Layer 1
10
5.642250
20
7.439200
11
5.674461
21
7.445784
0
LINE
8
Layer 1
10
5.674461
20
7.445784
11
5.700913
21
7.463734
0
LINE
8
Layer 1
10
5.700913
20
7.463734
11
5.718826
21
7.490299
0
LINE
8
Layer 1
10
5.718826
20
7.490299
11
5.725410
21
7.522736
0
LINE
8
Layer 1
10
5.725410
20
7.522736
11
5.718826
21
7.555323
0
LINE
8
Layer 1
10
5.718826
20
7.555323
11
5.700913
21
7.581852
0
LINE
8
Layer 1
10
5.700913
20
7.581852
11
5.674461
21
7.599725
0
LINE
8
Layer 1
10
5.674461
20
7.599725
11
5.640180
21
7.606083
0
LINE
8
Layer 1
10
5.640180
20
7.606083
11
5.606765
21
7.598557
0
LINE
8
Layer 1
10
5.606765
20
7.598557
11
5.581554
21
7.580418
0
LINE
8
Layer 1
10
5.581554
20
7.580418
11
5.564584
21
7.554341
0
LINE
8
Layer 1
10
5.564584
20
7.554341
11
5.558376
21
7.522732
0
LINE
8
Layer 1
10
5.558376
20
7.522732
11
5.564960
21
7.490295
0
LINE
8
Layer 1
10
5.564960
20
7.490295
11
5.582946
21
7.463730
0
LINE
8
Layer 1
10
5.582946
20
7.463730
11
5.609624
21
7.445781
0
LINE
8
Layer 1
10
5.609624
20
7.445781
11
5.642249
21
7.439196
0
LINE
8
Layer 1
10
5.642249
20
7.439196
11
5.642250
21
7.439200
0
LINE
8
Layer 1
10
3.158460
20
10.666000
11
2.969950
21
10.639000
0
LINE
8
Layer 1
10
2.969950
20
10.639000
11
2.793561
21
10.575059
0
LINE
8
Layer 1
10
2.793561
20
10.575059
11
2.616621
21
10.451587
0
LINE
8
Layer 1
10
2.616621
20
10.451587
11
2.490940
21
10.276300
0
LINE
8
Layer 1
10
2.490940
20
10.276300
11
2.399990
21
10.173800
0
LINE
8
Layer 1
10
2.399990
20
10.173800
11
2.380700
21
10.092200
0
LINE
8
Layer 1
10
2.380700
20
10.092200
11
2.387866
21
10.048654
0
LINE
8
Layer 1
10
2.387866
20
10.048654
11
2.217541
21
9.898172
0
LINE
8
Layer 1
10
2.217541
20
9.898172
11
2.065400
21
9.730040
0
LINE
8
Layer 1
10
2.065400
20
9.730040
11
2.065400
21
9.729490
0
LINE
8
Layer 1
10
2.065400
20
9.729490
11
2.014140
21
9.647910
0
LINE
8
Layer 1
10
2.014140
20
9.647910
11
2.014140
21
9.647360
0
LINE
8
Layer 1
10
2.014140
20
9.647360
11
2.012486
21
9.643501
0
LINE
8
Layer 1
10
2.012486
20
9.643501
11
1.984374
21
9.278045
0
LINE
8
Layer 1
10
1.984374
20
9.278045
11
2.068710
21
8.918102
0
LINE
8
Layer 1
10
2.068710
20
8.918102
11
2.133202
21
8.771479
0
LINE
8
Layer 1
10
2.133202
20
8.771479
11
2.198246
21
8.692656
0
LINE
8
Layer 1
10
2.198246
20
8.692656
11
2.248406
21
8.661237
0
LINE
8
Layer 1
10
2.248406
20
8.661237
11
2.268250
21
8.655173
0
LINE
8
Layer 1
10
2.268250
20
8.655173
11
2.299118
21
8.700924
0
LINE
8
Layer 1
10
2.299118
20
8.700924
11
2.314552
21
8.752738
0
LINE
8
Layer 1
10
2.314552
20
8.752738
11
2.323922
21
8.822743
0
LINE
8
Layer 1
10
2.323922
20
8.822743
11
2.336600
21
8.920859
0
LINE
8
Layer 1
10
2.336600
20
8.920859
11
2.353688
21
8.999683
0
LINE
8
Layer 1
10
2.353688
20
8.999683
11
2.379600
21
9.081260
0
LINE
8
Layer 1
10
2.379600
20
9.081260
11
2.509680
21
9.334820
0
LINE
8
Layer 1
10
2.509680
20
9.334820
11
2.656860
21
9.536010
0
LINE
8
Layer 1
10
2.656860
20
9.536010
11
2.661270
21
9.568532
0
LINE
8
Layer 1
10
2.661270
20
9.568532
11
2.661820
21
9.567981
0
LINE
8
Layer 1
10
2.661820
20
9.567981
11
2.661820
21
9.567430
0
LINE
8
Layer 1
10
2.661820
20
9.567430
11
2.832145
21
9.615386
0
LINE
8
Layer 1
10
2.832145
20
9.615386
11
2.874589
21
9.626410
0
LINE
8
Layer 1
10
2.874589
20
9.626410
11
2.909315
21
9.635781
0
LINE
8
Layer 1
10
2.909315
20
9.635781
11
2.936324
21
9.641844
0
LINE
8
Layer 1
10
2.936324
20
9.641844
11
3.015699
21
9.658931
0
LINE
8
Layer 1
10
3.015699
20
9.658931
11
3.189332
21
9.702477
0
LINE
8
Layer 1
10
3.189332
20
9.702477
11
3.267604
21
9.728385
0
LINE
8
Layer 1
10
3.267604
20
9.728385
11
3.307843
21
9.743818
0
LINE
8
Layer 1
10
3.307843
20
9.743818
11
3.429110
21
9.803350
0
LINE
8
Layer 1
10
3.429110
20
9.803350
11
3.499114
21
9.846344
0
LINE
8
Layer 1
10
3.499114
20
9.846344
11
3.626444
21
9.954382
0
LINE
8
Layer 1
10
3.626444
20
9.954382
11
3.676887
21
10.002470
0
LINE
8
Layer 1
10
3.676887
20
10.002470
11
3.726765
21
10.039269
0
LINE
8
Layer 1
10
3.726765
20
10.039269
11
3.781970
21
10.068753
0
LINE
8
Layer 1
10
3.781970
20
10.068753
11
3.840317
21
10.087776
0
LINE
8
Layer 1
10
3.840317
20
10.087776
11
3.966224
21
10.079040
0
LINE
8
Layer 1
10
3.966224
20
10.079040
11
4.065764
21
10.016116
0
LINE
8
Layer 1
10
4.065764
20
10.016116
11
4.137847
21
9.929121
0
LINE
8
Layer 1
10
4.137847
20
9.929121
11
4.185378
21
9.822088
0
LINE
8
Layer 1
10
4.185378
20
9.822088
11
4.199158
21
9.586168
0
LINE
8
Layer 1
10
4.199158
20
9.586168
11
4.147344
21
9.354107
0
LINE
8
Layer 1
10
4.147344
20
9.354107
11
4.063008
21
9.131967
0
LINE
8
Layer 1
10
4.063008
20
9.131967
11
3.959931
21
8.916442
0
LINE
8
Layer 1
10
3.959931
20
8.916442
11
3.798976
21
8.655717
0
LINE
8
Layer 1
10
3.798976
20
8.655717
11
3.625894
21
8.402709
0
LINE
8
Layer 1
10
3.625894
20
8.402709
11
3.452261
21
8.162379
0
LINE
8
Layer 1
10
3.452261
20
8.162379
11
3.292960
21
7.912679
0
LINE
8
Layer 1
10
3.292960
20
7.912679
11
3.165078
21
7.645891
0
LINE
8
Layer 1
10
3.165078
20
7.645891
11
3.096176
21
7.359259
0
LINE
8
Layer 1
10
3.096176
20
7.359259
11
3.095612
21
7.350990
0
LINE
8
Layer 1
10
3.095612
20
7.350990
11
3.091754
21
7.152553
0
LINE
8
Layer 1
10
3.091754
20
7.152553
11
3.128685
21
6.957423
0
LINE
8
Layer 1
10
3.128685
20
6.957423
11
3.285781
21
6.654255
0
LINE
8
Layer 1
10
3.285781
20
6.654255
11
3.469887
21
6.465740
0
LINE
8
Layer 1
10
3.469887
20
6.465740
11
3.690924
21
6.322975
0
LINE
8
Layer 1
10
3.690924
20
6.322975
11
3.949444
21
6.226511
0
LINE
8
Layer 1
10
3.949444
20
6.226511
11
4.078024
21
6.199610
0
LINE
8
Layer 1
10
4.078024
20
6.199610
11
4.203554
21
6.182964
0
LINE
8
Layer 1
10
4.203554
20
6.182964
11
4.302544
21
6.177661
0
LINE
8
Layer 1
10
4.302544
20
6.177661
11
4.397582
21
6.178000
0
LINE
8
Layer 1
10
4.397582
20
6.178000
11
4.497848
21
6.183464
0
LINE
8
Layer 1
10
4.497848
20
6.183464
11
4.591059
21
6.193435
0
LINE
8
Layer 1
10
4.591059
20
6.193435
11
4.694039
21
6.210363
0
LINE
8
Layer 1
10
4.694039
20
6.210363
11
4.781779
21
6.229266
0
LINE
8
Layer 1
10
4.781779
20
6.229266
11
4.914368
21
6.223068
0
LINE
8
Layer 1
10
4.914368
20
6.223068
11
5.021557
21
6.146032
0
LINE
8
Layer 1
10
5.021557
20
6.146032
11
5.105388
21
6.047753
0
LINE
8
Layer 1
10
5.105388
20
6.047753
11
5.220546
21
5.939878
0
LINE
8
Layer 1
10
5.220546
20
5.939878
11
5.330275
21
5.858366
0
LINE
8
Layer 1
10
5.330275
20
5.858366
11
5.460324
21
5.782782
0
LINE
8
Layer 1
10
5.460324
20
5.782782
11
5.586784
21
5.727124
0
LINE
8
Layer 1
10
5.586784
20
5.727124
11
5.728766
21
5.681909
0
LINE
8
Layer 1
10
5.728766
20
5.681909
11
5.863944
21
5.654068
0
LINE
8
Layer 1
10
5.863944
20
5.654068
11
6.011540
21
5.638362
0
LINE
8
Layer 1
10
6.011540
20
5.638362
11
6.045991
21
5.636161
0
LINE
8
Layer 1
10
6.045991
20
5.636161
11
6.080441
21
5.633960
0
LINE
8
Layer 1
10
6.080441
20
5.633960
11
6.158160
21
5.633960
0
LINE
8
Layer 1
10
6.158160
20
5.633960
11
6.173349
21
5.567424
0
LINE
8
Layer 1
10
6.173349
20
5.567424
11
6.197592
21
5.504892
0
LINE
8
Layer 1
10
6.197592
20
5.504892
11
6.230231
21
5.447088
0
LINE
8
Layer 1
10
6.230231
20
5.447088
11
6.270609
21
5.394733
0
LINE
8
Layer 1
10
6.270609
20
5.394733
11
6.318012
21
5.348323
0
LINE
8
Layer 1
10
6.318012
20
5.348323
11
6.371639
21
5.308931
0
LINE
8
Layer 1
10
6.371639
20
5.308931
11
6.430700
21
5.277300
0
LINE
8
Layer 1
10
6.430700
20
5.277300
11
6.494402
21
5.254174
0
LINE
8
Layer 1
10
6.494402
20
5.254174
11
6.494400
21
3.608800
0
LINE
8
Layer 1
10
6.494400
20
3.608800
11
5.357250
21
3.608800
0
LINE
8
Layer 1
10
5.357250
20
3.608800
11
5.258697
21
3.554132
0
LINE
8
Layer 1
10
5.258697
20
3.554132
11
4.614763
21
2.882849
0
LINE
8
Layer 1
10
4.614763
20
2.882849
11
4.701304
21
2.852532
0
LINE
8
Layer 1
10
4.701304
20
2.852532
11
5.164876
21
3.171685
0
LINE
8
Layer 1
10
5.164876
20
3.171685
11
5.200705
21
3.040496
0
LINE
8
Layer 1
10
5.200705
20
3.040496
11
5.256390
21
3.040500
0
LINE
8
Layer 1
10
5.256390
20
3.040500
11
5.463647
21
3.380048
0
LINE
8
Layer 1
10
5.463647
20
3.380048
11
6.494420
21
3.380050
0
LINE
8
Layer 1
10
6.494420
20
3.380050
11
6.494420
21
3.209170
0
LINE
8
Layer 1
10
6.494420
20
3.209170
11
6.442606
21
3.171687
0
LINE
8
Layer 1
10
6.442606
20
3.171687
11
6.402918
21
3.122078
0
LINE
8
Layer 1
10
6.402918
20
3.122078
11
6.377010
21
3.062547
0
LINE
8
Layer 1
10
6.377010
20
3.062547
11
6.367640
21
2.996401
0
LINE
8
Layer 1
10
6.367640
20
2.996401
11
6.369306
21
2.967738
0
LINE
8
Layer 1
10
6.369306
20
2.967738
11
6.374817
21
2.940176
0
LINE
8
Layer 1
10
6.374817
20
2.940176
11
6.383637
21
2.912064
0
LINE
8
Layer 1
10
6.383637
20
2.912064
11
6.396314
21
2.883401
0
LINE
8
Layer 1
10
6.396314
20
2.883401
11
6.413403
21
2.855288
0
LINE
8
Layer 1
10
6.413403
20
2.855288
11
6.436003
21
2.828280
0
LINE
8
Layer 1
10
6.436003
20
2.828280
11
6.463012
21
2.804579
0
LINE
8
Layer 1
10
6.463012
20
2.804579
11
6.494431
21
2.784736
0
LINE
8
Layer 1
10
6.494431
20
2.784736
11
6.494430
21
0.381989
0
LINE
8
Layer 1
10
6.494430
20
0.381989
11
5.708397
21
0.058426
0
LINE
8
Layer 1
10
5.708397
20
0.058426
11
5.708390
21
-0.000003
0
LINE
8
Layer 1
10
5.708390
20
-0.000003
11
6.755150
21
-0.000003
0
LINE
8
Layer 1
10
6.755150
20
-0.000003
11
6.805862
21
0.077167
0
LINE
8
Layer 1
10
6.805862
20
0.077167
11
6.723180
21
0.265683
0
LINE
8
Layer 1
10
6.723180
20
0.265683
11
6.723180
21
2.785290
0
LINE
8
Layer 1
10
6.723180
20
2.785290
11
6.774994
21
2.822772
0
LINE
8
Layer 1
10
6.774994
20
2.822772
11
6.814682
21
2.871831
0
LINE
8
Layer 1
10
6.814682
20
2.871831
11
6.840590
21
2.930260
0
LINE
8
Layer 1
10
6.840590
20
2.930260
11
6.849959
21
2.996405
0
LINE
8
Layer 1
10
6.849959
20
2.996405
11
6.847758
21
3.022313
0
LINE
8
Layer 1
10
6.847758
20
3.022313
11
6.842246
21
3.049875
0
LINE
8
Layer 1
10
6.842246
20
3.049875
11
6.836734
21
3.071925
0
LINE
8
Layer 1
10
6.836734
20
3.071925
11
6.815788
21
3.119881
0
LINE
8
Layer 1
10
6.815788
20
3.119881
11
6.790433
21
3.155159
0
LINE
8
Layer 1
10
6.790433
20
3.155159
11
6.759014
21
3.184924
0
LINE
8
Layer 1
10
6.759014
20
3.184924
11
6.723185
21
3.208625
0
LINE
8
Layer 1
10
6.723185
20
3.208625
11
6.723190
21
3.380050
0
LINE
8
Layer 1
10
6.723190
20
3.380050
11
7.632690
21
3.380050
0
LINE
8
Layer 1
10
7.632690
20
3.380050
11
7.672378
21
3.332646
0
LINE
8
Layer 1
10
7.672378
20
3.332646
11
7.721987
21
3.296265
0
LINE
8
Layer 1
10
7.721987
20
3.296265
11
7.779864
21
3.273115
0
LINE
8
Layer 1
10
7.779864
20
3.273115
11
7.843805
21
3.264846
0
LINE
8
Layer 1
10
7.843805
20
3.264846
11
7.894517
21
3.269807
0
LINE
8
Layer 1
10
7.894517
20
3.269807
11
7.941922
21
3.284689
0
LINE
8
Layer 1
10
7.941922
20
3.284689
11
7.984365
21
3.307289
0
LINE
8
Layer 1
10
7.984365
20
3.307289
11
8.021848
21
3.338157
0
LINE
8
Layer 1
10
8.021848
20
3.338157
11
8.052716
21
3.375640
0
LINE
8
Layer 1
10
8.052716
20
3.375640
11
8.075866
21
3.418083
0
LINE
8
Layer 1
10
8.075866
20
3.418083
11
8.090198
21
3.465488
0
LINE
8
Layer 1
10
8.090198
20
3.465488
11
8.095159
21
3.516200
0
LINE
8
Layer 1
10
8.095159
20
3.516200
11
8.091851
21
3.547619
0
LINE
8
Layer 1
10
8.091851
20
3.547619
11
8.084686
21
3.580691
0
LINE
8
Layer 1
10
8.084686
20
3.580691
11
8.076970
21
3.607150
0
LINE
8
Layer 1
10
8.076970
20
3.607150
11
8.073662
21
3.618173
0
LINE
8
Layer 1
10
8.073662
20
3.618173
11
8.043896
21
3.667783
0
LINE
8
Layer 1
10
8.043896
20
3.667783
11
8.003658
21
3.709675
0
LINE
8
Layer 1
10
8.003658
20
3.709675
11
7.955151
21
3.741094
0
LINE
8
Layer 1
10
7.955151
20
3.741094
11
7.899478
21
3.760937
0
LINE
8
Layer 1
10
7.899478
20
3.760937
11
6.971232
21
5.393637
0
LINE
8
Layer 1
10
6.971232
20
5.393637
11
7.011782
21
5.446059
0
LINE
8
Layer 1
10
7.011782
20
5.446059
11
7.044800
21
5.504066
0
LINE
8
Layer 1
10
7.044800
20
5.504066
11
7.069421
21
5.566941
0
LINE
8
Layer 1
10
7.069421
20
5.566941
11
7.084782
21
5.633967
0
LINE
8
Layer 1
10
7.084782
20
5.633967
11
9.585640
21
5.633960
0
LINE
8
Layer 1
10
9.585640
20
5.633960
11
9.436261
21
5.860509
0
LINE
8
Layer 1
10
9.436261
20
5.860509
11
9.283023
21
6.084853
0
LINE
8
Layer 1
10
9.283023
20
6.084853
11
6.275030
21
6.084860
0
LINE
8
Layer 1
10
6.275030
20
6.084860
11
6.120906
21
6.095638
0
LINE
8
Layer 1
10
6.120906
20
6.095638
11
5.971862
21
6.127303
0
LINE
8
Layer 1
10
5.971862
20
6.127303
11
5.827338
21
6.179027
0
LINE
8
Layer 1
10
5.827338
20
6.179027
11
5.691845
21
6.250223
0
LINE
8
Layer 1
10
5.691845
20
6.250223
11
5.567528
21
6.339187
0
LINE
8
Layer 1
10
5.567528
20
6.339187
11
5.456476
21
6.444802
0
LINE
8
Layer 1
10
5.456476
20
6.444802
11
5.361200
21
6.563974
0
LINE
8
Layer 1
10
5.361200
20
6.563974
11
5.282292
21
6.697258
0
LINE
8
Layer 1
10
5.282292
20
6.697258
11
5.218351
21
6.691746
0
LINE
8
Layer 1
10
5.218351
20
6.691746
11
5.158269
21
6.709936
0
LINE
8
Layer 1
10
5.158269
20
6.709936
11
5.108659
21
6.742457
0
LINE
8
Layer 1
10
5.108659
20
6.742457
11
5.073933
21
6.777735
0
LINE
8
Layer 1
10
5.073933
20
6.777735
11
5.049129
21
6.818525
0
LINE
8
Layer 1
10
5.049129
20
6.818525
11
5.033144
21
6.864276
0
LINE
8
Layer 1
10
5.033144
20
6.864276
11
5.027081
21
6.913885
0
LINE
8
Layer 1
10
5.027081
20
6.913885
11
5.032593
21
6.966250
0
LINE
8
Layer 1
10
5.032593
20
6.966250
11
5.054643
21
7.023026
0
LINE
8
Layer 1
10
5.054643
20
7.023026
11
5.091023
21
7.070981
0
LINE
8
Layer 1
10
5.091023
20
7.070981
11
5.138428
21
7.107913
0
LINE
8
Layer 1
10
5.138428
20
7.107913
11
5.195203
21
7.129963
0
LINE
8
Layer 1
10
5.195203
20
7.129963
11
5.248120
21
7.136028
0
LINE
8
Layer 1
10
5.248120
20
7.136028
11
5.297729
21
7.129963
0
LINE
8
Layer 1
10
5.297729
20
7.129963
11
5.343480
21
7.113978
0
LINE
8
Layer 1
10
5.343480
20
7.113978
11
5.384270
21
7.088070
0
LINE
8
Layer 1
10
5.384270
20
7.088070
11
5.418996
21
7.053894
0
LINE
8
Layer 1
10
5.418996
20
7.053894
11
5.445455
21
7.012553
0
LINE
8
Layer 1
10
5.445455
20
7.012553
11
5.461990
21
6.965700
0
LINE
8
Layer 1
10
5.461990
20
6.965700
11
5.468052
21
6.914437
0
LINE
8
Layer 1
10
5.468052
20
6.914437
11
5.464194
21
6.874198
0
LINE
8
Layer 1
10
5.464194
20
6.874198
11
5.453171
21
6.836164
0
LINE
8
Layer 1
10
5.453171
20
6.836164
11
5.435532
21
6.800887
0
LINE
8
Layer 1
10
5.435532
20
6.800887
11
5.412381
21
6.769467
0
LINE
8
Layer 1
10
5.412381
20
6.769467
11
5.484854
21
6.650570
0
LINE
8
Layer 1
10
5.484854
20
6.650570
11
5.562863
21
6.547879
0
LINE
8
Layer 1
10
5.562863
20
6.547879
11
5.659469
21
6.455654
0
LINE
8
Layer 1
10
5.659469
20
6.455654
11
5.767364
21
6.378105
0
LINE
8
Layer 1
10
5.767364
20
6.378105
11
5.884815
21
6.315620
0
LINE
8
Layer 1
10
5.884815
20
6.315620
11
6.010450
21
6.270067
0
LINE
8
Layer 1
10
6.010450
20
6.270067
11
6.139791
21
6.242570
0
LINE
8
Layer 1
10
6.139791
20
6.242570
11
6.273930
21
6.233136
0
LINE
8
Layer 1
10
6.273930
20
6.233136
11
9.178830
21
6.233130
0
LINE
8
Layer 1
10
9.178830
20
6.233130
11
9.011812
21
6.464640
0
LINE
8
Layer 1
10
9.011812
20
6.464640
11
8.841487
21
6.692292
0
LINE
8
Layer 1
10
8.841487
20
6.692292
11
6.715450
21
6.692300
0
LINE
8
Layer 1
10
6.715450
20
6.692300
11
6.556782
21
6.702945
0
LINE
8
Layer 1
10
6.556782
20
6.702945
11
6.402911
21
6.734193
0
LINE
8
Layer 1
10
6.402911
20
6.734193
11
6.253843
21
6.786475
0
LINE
8
Layer 1
10
6.253843
20
6.786475
11
6.113523
21
6.857665
0
LINE
8
Layer 1
10
6.113523
20
6.857665
11
5.983567
21
6.946353
0
LINE
8
Layer 1
10
5.983567
20
6.946353
11
5.866028
21
7.051692
0
LINE
8
Layer 1
10
5.866028
20
7.051692
11
5.763868
21
7.170999
0
LINE
8
Layer 1
10
5.763868
20
7.170999
11
5.677513
21
7.304699
0
LINE
8
Layer 1
10
5.677513
20
7.304699
11
5.614674
21
7.299188
0
LINE
8
Layer 1
10
5.614674
20
7.299188
11
5.556796
21
7.315173
0
LINE
8
Layer 1
10
5.556796
20
7.315173
11
5.507187
21
7.346041
0
LINE
8
Layer 1
10
5.507187
20
7.346041
11
5.469704
21
7.384075
0
LINE
8
Layer 1
10
5.469704
20
7.384075
11
5.444350
21
7.424313
0
LINE
8
Layer 1
10
5.444350
20
7.424313
11
5.427814
21
7.469513
0
LINE
8
Layer 1
10
5.427814
20
7.469513
11
5.420648
21
7.518571
0
LINE
8
Layer 1
10
5.420648
20
7.518571
11
5.425610
21
7.570385
0
LINE
8
Layer 1
10
5.425610
20
7.570385
11
5.446556
21
7.626609
0
LINE
8
Layer 1
10
5.446556
20
7.626609
11
5.481834
21
7.674565
0
LINE
8
Layer 1
10
5.481834
20
7.674565
11
5.528688
21
7.712047
0
LINE
8
Layer 1
10
5.528688
20
7.712047
11
5.583809
21
7.735198
0
LINE
8
Layer 1
10
5.583809
20
7.735198
11
5.636725
21
7.742914
0
LINE
8
Layer 1
10
5.636725
20
7.742914
11
5.687437
21
7.738503
0
LINE
8
Layer 1
10
5.687437
20
7.738503
11
5.733739
21
7.723068
0
LINE
8
Layer 1
10
5.733739
20
7.723068
11
5.775632
21
7.697713
0
LINE
8
Layer 1
10
5.775632
20
7.697713
11
5.811461
21
7.663538
0
LINE
8
Layer 1
10
5.811461
20
7.663538
11
5.839022
21
7.621646
0
LINE
8
Layer 1
10
5.839022
20
7.621646
11
5.856661
21
7.574241
0
LINE
8
Layer 1
10
5.856661
20
7.574241
11
5.862723
21
7.522427
0
LINE
8
Layer 1
10
5.862723
20
7.522427
11
5.858865
21
7.482188
0
LINE
8
Layer 1
10
5.858865
20
7.482188
11
5.847842
21
7.444154
0
LINE
8
Layer 1
10
5.847842
20
7.444154
11
5.830203
21
7.409428
0
LINE
8
Layer 1
10
5.830203
20
7.409428
11
5.807603
21
7.378009
0
LINE
8
Layer 1
10
5.807603
20
7.378009
11
5.880664
21
7.259172
0
LINE
8
Layer 1
10
5.880664
20
7.259172
11
5.959187
21
7.156421
0
LINE
8
Layer 1
10
5.959187
20
7.156421
11
6.056344
21
7.064061
0
LINE
8
Layer 1
10
6.056344
20
7.064061
11
6.164790
21
6.986095
0
LINE
8
Layer 1
10
6.164790
20
6.986095
11
6.283067
21
6.924026
0
LINE
8
Layer 1
10
6.283067
20
6.924026
11
6.409529
21
6.878608
0
LINE
8
Layer 1
10
6.409529
20
6.878608
11
6.539421
21
6.851111
0
LINE
8
Layer 1
10
6.539421
20
6.851111
11
6.674112
21
6.841677
0
LINE
8
Layer 1
10
6.674112
20
6.841677
11
8.725740
21
6.841670
0
LINE
8
Layer 1
10
8.725740
20
6.841670
11
8.540532
21
7.073180
0
LINE
8
Layer 1
10
8.540532
20
7.073180
11
8.349260
21
7.300832
0
LINE
8
Layer 1
10
8.349260
20
7.300832
11
6.822390
21
7.342724
0
LINE
8
Layer 1
10
6.822390
20
7.342724
11
6.673046
21
7.394179
0
LINE
8
Layer 1
10
6.673046
20
7.394179
11
6.532451
21
7.464543
0
LINE
8
Layer 1
10
6.532451
20
7.464543
11
6.402078
21
7.553365
0
LINE
8
Layer 1
10
6.402078
20
7.553365
11
6.284405
21
7.659121
0
LINE
8
Layer 1
10
6.284405
20
7.659121
11
6.182386
21
7.778428
0
LINE
8
Layer 1
10
6.182386
20
7.778428
11
6.095889
21
7.912129
0
LINE
8
Layer 1
10
6.095889
20
7.912129
11
5.943203
21
7.938588
0
LINE
8
Layer 1
10
5.943203
20
7.938588
11
5.906272
21
7.971110
0
LINE
8
Layer 1
10
5.906272
20
7.971110
11
5.878710
21
8.005285
0
LINE
8
Layer 1
10
5.878710
20
8.005285
11
5.857213
21
8.043870
0
LINE
8
Layer 1
10
5.857213
20
8.043870
11
5.843432
21
8.086314
0
LINE
8
Layer 1
10
5.843432
20
8.086314
11
5.838468
21
8.130962
0
LINE
8
Layer 1
10
5.838468
20
8.130962
11
5.843088
21
8.175396
0
LINE
8
Layer 1
10
5.843088
20
8.175396
11
5.856107
21
8.216952
0
LINE
8
Layer 1
10
5.856107
20
8.216952
11
5.876506
21
8.254327
0
LINE
8
Layer 1
10
5.876506
20
8.254327
11
5.903511
21
8.286956
0
LINE
8
Layer 1
10
5.903511
20
8.286956
11
5.936103
21
8.314241
0
LINE
8
Layer 1
10
5.936103
20
8.314241
11
5.973516
21
8.334912
0
LINE
8
Layer 1
10
5.973516
20
8.334912
11
6.014995
21
8.347972
0
LINE
8
Layer 1
10
6.014995
20
8.347972
11
6.059505
21
8.352551
0
LINE
8
Layer 1
10
6.059505
20
8.352551
11
6.104016
21
8.347972
0
LINE
8
Layer 1
10
6.104016
20
8.347972
11
6.145495
21
8.334912
0
LINE
8
Layer 1
10
6.145495
20
8.334912
11
6.182908
21
8.314241
0
LINE
8
Layer 1
10
6.182908
20
8.314241
11
6.215499
21
8.286956
0
LINE
8
Layer 1
10
6.215499
20
8.286956
11
6.242505
21
8.254327
0
LINE
8
Layer 1
10
6.242505
20
8.254327
11
6.262904
21
8.216952
0
LINE
8
Layer 1
10
6.262904
20
8.216952
11
6.275923
21
8.175396
0
LINE
8
Layer 1
10
6.275923
20
8.175396
11
6.280543
21
8.130962
0
LINE
8
Layer 1
10
6.280543
20
8.130962
11
6.276685
21
8.090172
0
LINE
8
Layer 1
10
6.276685
20
8.090172
11
6.265661
21
8.052139
0
LINE
8
Layer 1
10
6.265661
20
8.052139
11
6.239753
21
8.015207
0
LINE
8
Layer 1
10
6.239753
20
8.015207
11
6.224319
21
7.985993
0
LINE
8
Layer 1
10
6.224319
20
7.985993
11
6.300375
21
7.866927
0
LINE
8
Layer 1
10
6.300375
20
7.866927
11
6.389696
21
7.762200
0
LINE
8
Layer 1
10
6.389696
20
7.762200
11
6.492782
21
7.669975
0
LINE
8
Layer 1
10
6.492782
20
7.669975
11
6.606875
21
7.592426
0
LINE
8
Layer 1
10
6.606875
20
7.592426
11
6.730261
21
7.531049
0
LINE
8
Layer 1
10
6.730261
20
7.531049
11
6.860985
21
7.486041
0
LINE
8
Layer 1
10
6.860985
20
7.486041
11
8.216975
21
7.449110
0
LINE
8
Layer 1
10
8.216975
20
7.449110
11
8.024040
21
7.658020
0
LINE
8
Layer 1
10
8.024040
20
7.658020
11
7.824500
21
7.859770
0
LINE
8
Layer 1
10
7.824500
20
7.859770
11
7.617240
21
8.054900
0
LINE
8
Layer 1
10
7.617240
20
8.054900
11
7.401710
21
8.239550
0
LINE
8
Layer 1
10
7.401710
20
8.239550
11
7.175720
21
8.410980
0
LINE
8
Layer 1
10
7.175720
20
8.410980
11
6.911137
21
8.573037
0
LINE
8
Layer 1
10
6.911137
20
8.573037
11
6.757348
21
8.644695
0
LINE
8
Layer 1
10
6.757348
20
8.644695
11
6.572691
21
8.708636
0
LINE
8
Layer 1
10
6.572691
20
8.708636
11
6.383625
21
8.759348
0
LINE
8
Layer 1
10
6.383625
20
8.759348
11
6.149358
21
8.798484
0
LINE
8
Layer 1
10
6.149358
20
8.798484
11
5.851702
21
8.813918
0
LINE
8
Layer 1
10
5.851702
20
8.813918
11
5.578851
21
8.786357
0
LINE
8
Layer 1
10
5.578851
20
8.786357
11
5.265761
21
8.686587
0
LINE
8
Layer 1
10
5.265761
20
8.686587
11
4.995666
21
8.499174
0
LINE
8
Layer 1
10
4.995666
20
8.499174
11
4.855657
21
8.322234
0
LINE
8
Layer 1
10
4.855657
20
8.322234
11
4.759194
21
8.118284
0
LINE
8
Layer 1
10
4.759194
20
8.118284
11
4.702419
21
7.900003
0
LINE
8
Layer 1
10
4.702419
20
7.900003
11
4.682576
21
7.675107
0
LINE
8
Layer 1
10
4.682576
20
7.675107
11
4.683670
21
7.675110
0
LINE
8
Layer 1
10
4.683670
20
7.675110
11
4.665481
21
7.460687
0
LINE
8
Layer 1
10
4.665481
20
7.460687
11
4.649496
21
7.348790
0
LINE
8
Layer 1
10
4.649496
20
7.348790
11
4.625242
21
7.249572
0
LINE
8
Layer 1
10
4.625242
20
7.249572
11
4.581144
21
7.147596
0
LINE
8
Layer 1
10
4.581144
20
7.147596
11
4.516652
21
7.066017
0
LINE
8
Layer 1
10
4.516652
20
7.066017
11
4.433970
21
7.010344
0
LINE
8
Layer 1
10
4.433970
20
7.010344
11
4.324278
21
6.975617
0
LINE
8
Layer 1
10
4.324278
20
6.975617
11
4.160567
21
6.972310
0
LINE
8
Layer 1
10
4.160567
20
6.972310
11
4.018905
21
7.021368
0
LINE
8
Layer 1
10
4.018905
20
7.021368
11
3.902048
21
7.122791
0
LINE
8
Layer 1
10
3.902048
20
7.122791
11
3.829288
21
7.263902
0
LINE
8
Layer 1
10
3.829288
20
7.263902
11
3.818814
21
7.380208
0
LINE
8
Layer 1
10
3.818814
20
7.380208
11
3.841415
21
7.522421
0
LINE
8
Layer 1
10
3.841415
20
7.522421
11
3.909214
21
7.685029
0
LINE
8
Layer 1
10
3.909214
20
7.685029
11
3.915829
21
7.698257
0
LINE
8
Layer 1
10
3.915829
20
7.698257
11
4.072925
21
7.960084
0
LINE
8
Layer 1
10
4.072925
20
7.960084
11
4.238840
21
8.216399
0
LINE
8
Layer 1
10
4.238840
20
8.216399
11
4.398693
21
8.476021
0
LINE
8
Layer 1
10
4.398693
20
8.476021
11
4.545316
21
8.744463
0
LINE
8
Layer 1
10
4.545316
20
8.744463
11
4.666583
21
9.024480
0
LINE
8
Layer 1
10
4.666583
20
9.024480
11
4.749817
21
9.318278
0
LINE
8
Layer 1
10
4.749817
20
9.318278
11
4.776275
21
9.621446
0
LINE
8
Layer 1
10
4.776275
20
9.621446
11
4.726666
21
9.921858
0
LINE
8
Layer 1
10
4.726666
20
9.921858
11
4.704616
21
9.989106
0
LINE
8
Layer 1
10
4.704616
20
9.989106
11
4.618076
21
10.176521
0
LINE
8
Layer 1
10
4.618076
20
10.176521
11
4.443892
21
10.383778
0
LINE
8
Layer 1
10
4.443892
20
10.383778
11
4.238840
21
10.528196
0
LINE
8
Layer 1
10
4.238840
20
10.528196
11
4.101036
21
10.589381
0
LINE
8
Layer 1
10
4.101036
20
10.589381
11
3.975359
21
10.624107
0
LINE
8
Layer 1
10
3.975359
20
10.624107
11
3.749361
21
10.654975
0
LINE
8
Layer 1
10
3.749361
20
10.654975
11
3.521158
21
10.647810
0
LINE
8
Layer 1
10
3.521158
20
10.647810
11
3.479817
21
10.642297
0
LINE
8
Layer 1
10
3.479817
20
10.642297
11
3.313350
21
10.643951
0
LINE
8
Layer 1
10
3.313350
20
10.643951
11
3.158460
21
10.666000
0
LINE
8
Layer 1
10
3.158460
20
10.666000
11
3.158460
21
10.666000
0
LINE
8
Layer 1
10
7.671260
20
3.698640
11
7.652518
21
3.678797
0
LINE
8
Layer 1
10
7.652518
20
3.678797
11
7.635982
21
3.657300
0
LINE
8
Layer 1
10
7.635982
20
3.657300
11
7.621651
21
3.634150
0
LINE
8
Layer 1
10
7.621651
20
3.634150
11
7.610074
21
3.608795
0
LINE
8
Layer 1
10
7.610074
20
3.608795
11
6.723170
21
3.608800
0
LINE
8
Layer 1
10
6.723170
20
3.608800
11
6.723170
21
5.248110
0
LINE
8
Layer 1
10
6.723170
20
5.248110
11
6.766649
21
5.260621
0
LINE
8
Layer 1
10
6.766649
20
5.260621
11
6.802508
21
5.272282
0
LINE
8
Layer 1
10
6.802508
20
5.272282
11
7.671260
21
3.698640
0
LINE
8
Layer 1
10
7.845444
20
3.625880
11
7.887283
21
3.617433
0
LINE
8
Layer 1
10
7.887283
20
3.617433
11
7.921449
21
3.594398
0
LINE
8
Layer 1
10
7.921449
20
3.594398
11
7.944484
21
3.560232
0
LINE
8
Layer 1
10
7.944484
20
3.560232
11
7.952931
21
3.518393
0
LINE
8
Layer 1
10
7.952931
20
3.518393
11
7.944484
21
3.476554
0
LINE
8
Layer 1
10
7.944484
20
3.476554
11
7.921449
21
3.442388
0
LINE
8
Layer 1
10
7.921449
20
3.442388
11
7.887283
21
3.419353
0
LINE
8
Layer 1
10
7.887283
20
3.419353
11
7.845444
21
3.410907
0
LINE
8
Layer 1
10
7.845444
20
3.410907
11
7.803606
21
3.419353
0
LINE
8
Layer 1
10
7.803606
20
3.419353
11
7.769440
21
3.442388
0
LINE
8
Layer 1
10
7.769440
20
3.442388
11
7.746405
21
3.476555
0
LINE
8
Layer 1
10
7.746405
20
3.476555
11
7.737958
21
3.518393
0
LINE
8
Layer 1
10
7.737958
20
3.518393
11
7.746405
21
3.560232
0
LINE
8
Layer 1
10
7.746405
20
3.560232
11
7.769440
21
3.594398
0
LINE
8
Layer 1
10
7.769440
20
3.594398
11
7.803605
21
3.617433
0
LINE
8
Layer 1
10
7.803605
20
3.617433
11
7.845444
21
3.625880
0
LINE
8
Layer 1
10
7.845444
20
3.625880
11
7.845444
21
3.625880
0
LINE
8
Layer 1
10
6.613474
20
3.093958
11
6.649854
21
3.082381
0
LINE
8
Layer 1
10
6.649854
20
3.082381
11
6.679069
21
3.056473
0
LINE
8
Layer 1
10
6.679069
20
3.056473
11
6.697811
21
3.025054
0
LINE
8
Layer 1
10
6.697811
20
3.025054
11
6.705527
21
2.996391
0
LINE
8
Layer 1
10
6.705527
20
2.996391
11
6.698912
21
2.967728
0
LINE
8
Layer 1
10
6.698912
20
2.967728
11
6.679619
21
2.935757
0
LINE
8
Layer 1
10
6.679619
20
2.935757
11
6.648751
21
2.910402
0
LINE
8
Layer 1
10
6.648751
20
2.910402
11
6.609063
21
2.899929
0
LINE
8
Layer 1
10
6.609063
20
2.899929
11
6.569376
21
2.907095
0
LINE
8
Layer 1
10
6.569376
20
2.907095
11
6.538508
21
2.926387
0
LINE
8
Layer 1
10
6.538508
20
2.926387
11
6.518665
21
2.956153
0
LINE
8
Layer 1
10
6.518665
20
2.956153
11
6.511499
21
2.996392
0
LINE
8
Layer 1
10
6.511499
20
2.996392
11
6.519768
21
3.036630
0
LINE
8
Layer 1
10
6.519768
20
3.036630
11
6.542369
21
3.068050
0
LINE
8
Layer 1
10
6.542369
20
3.068050
11
6.575441
21
3.087893
0
LINE
8
Layer 1
10
6.575441
20
3.087893
11
6.613475
21
3.093955
0
LINE
8
Layer 1
10
6.613475
20
3.093955
11
6.613474
21
3.093958
0
LINE
8
Layer 1
10
6.058970
20
8.056560
11
6.091181
21
8.063145
0
LINE
8
Layer 1
10
6.091181
20
8.063145
11
6.117634
21
8.081094
0
LINE
8
Layer 1
10
6.117634
20
8.081094
11
6.135546
21
8.107661
0
LINE
8
Layer 1
10
6.135546
20
8.107661
11
6.142131
21
8.140097
0
LINE
8
Layer 1
10
6.142131
20
8.140097
11
6.135546
21
8.172685
0
LINE
8
Layer 1
10
6.135546
20
8.172685
11
6.117634
21
8.199214
0
LINE
8
Layer 1
10
6.117634
20
8.199214
11
6.091181
21
8.217088
0
LINE
8
Layer 1
10
6.091181
20
8.217088
11
6.056938
21
8.223259
0
LINE
8
Layer 1
10
6.056938
20
8.223259
11
6.023485
21
8.215921
0
LINE
8
Layer 1
10
6.023485
20
8.215921
11
5.998274
21
8.197821
0
LINE
8
Layer 1
10
5.998274
20
8.197821
11
5.981304
21
8.171744
0
LINE
8
Layer 1
10
5.981304
20
8.171744
11
5.975096
21
8.140098
0
LINE
8
Layer 1
10
5.975096
20
8.140098
11
5.981680
21
8.107661
0
LINE
8
Layer 1
10
5.981680
20
8.107661
11
5.999666
21
8.081095
0
LINE
8
Layer 1
10
5.999666
20
8.081095
11
6.026344
21
8.063145
0
LINE
8
Layer 1
10
6.026344
20
8.063145
11
6.058969
21
8.056560
0
LINE
8
Layer 1
10
6.058969
20
8.056560
11
6.058970
21
8.056560
0
LINE
8
Layer 1
10
5.243130
20
6.831160
11
5.275341
21
6.837744
0
LINE
8
Layer 1
10
5.275341
20
6.837744
11
5.301793
21
6.855694
0
LINE
8
Layer 1
10
5.301793
20
6.855694
11
5.319706
21
6.882259
0
LINE
8
Layer 1
10
5.319706
20
6.882259
11
5.326290
21
6.914696
0
LINE
8
Layer 1
10
5.326290
20
6.914696
11
5.319706
21
6.947283
0
LINE
8
Layer 1
10
5.319706
20
6.947283
11
5.301793
21
6.973812
0
LINE
8
Layer 1
10
5.301793
20
6.973812
11
5.275341
21
6.991685
0
LINE
8
Layer 1
10
5.275341
20
6.991685
11
5.241060
21
6.998043
0
LINE
8
Layer 1
10
5.241060
20
6.998043
11
5.207645
21
6.990517
0
LINE
8
Layer 1
10
5.207645
20
6.990517
11
5.182434
21
6.972378
0
LINE
8
Layer 1
10
5.182434
20
6.972378
11
5.165464
21
6.946301
0
LINE
8
Layer 1
10
5.165464
20
6.946301
11
5.159256
21
6.914692
0
LINE
8
Layer 1
10
5.159256
20
6.914692
11
5.165840
21
6.882255
0
LINE
8
Layer 1
10
5.165840
20
6.882255
11
5.183826
21
6.855690
0
LINE
8
Layer 1
10
5.183826
20
6.855690
11
5.210504
21
6.837741
0
LINE
8
Layer 1
10
5.210504
20
6.837741
11
5.243129
21
6.831156
0
LINE
8
Layer 1
10
5.243129
20
6.831156
11
5.243130
21
6.831160
 0 
ENDSEC
 0 
EOF