999
"DXF R12 Output" (www.mydxf.blogspot.com)
 0 
SECTION
 2 
HEADER
 9 
$ACADVER
 1 
AC1009
 9 
$EXTMIN
 10 
 0 
 20 
 0 
 9 
$EXTMAX
 10 
 8.5 
 20 
 11 
 0 
ENDSEC
 0 
SECTION
 2 
ENTITIES
0
LINE
8
Design
10
210.250000
20
419.972000
11
210.061000
21
419.997000
0
LINE
8
Design
10
210.061000
20
419.997000
11
209.841000
21
420.074000
0
LINE
8
Design
10
209.841000
20
420.074000
11
209.756000
21
420.121000
0
LINE
8
Design
10
209.756000
20
420.121000
11
209.685000
21
420.175000
0
LINE
8
Design
10
209.685000
20
420.175000
11
209.626000
21
420.231000
0
LINE
8
Design
10
209.626000
20
420.231000
11
209.579000
21
420.285000
0
LINE
8
Design
10
209.579000
20
420.285000
11
209.520000
21
420.374000
0
LINE
8
Design
10
209.520000
20
420.374000
11
209.501000
21
420.411000
0
LINE
8
Design
10
209.501000
20
420.411000
11
209.439000
21
420.464000
0
LINE
8
Design
10
209.439000
20
420.464000
11
209.399000
21
420.526000
0
LINE
8
Design
10
209.399000
20
420.526000
11
209.379000
21
420.581000
0
LINE
8
Design
10
209.379000
20
420.581000
11
209.377000
21
420.617000
0
LINE
8
Design
10
209.377000
20
420.617000
11
209.385000
21
420.653000
0
LINE
8
Design
10
209.385000
20
420.653000
11
209.385000
21
420.667000
0
LINE
8
Design
10
209.385000
20
420.667000
11
209.252000
21
420.781000
0
LINE
8
Design
10
209.252000
20
420.781000
11
209.023000
21
421.025000
0
LINE
8
Design
10
209.023000
20
421.025000
11
209.004000
21
421.051000
0
LINE
8
Design
10
209.004000
20
421.051000
11
208.987000
21
421.077000
0
LINE
8
Design
10
208.987000
20
421.077000
11
208.981000
21
421.087000
0
LINE
8
Design
10
208.981000
20
421.087000
11
208.975000
21
421.097000
0
LINE
8
Design
10
208.975000
20
421.097000
11
208.975000
21
421.097000
0
LINE
8
Design
10
208.975000
20
421.097000
11
208.975000
21
421.097000
0
LINE
8
Design
10
208.975000
20
421.097000
11
208.973336
21
421.100058
0
LINE
8
Design
10
208.973336
20
421.100058
11
208.971693
21
421.103201
0
LINE
8
Design
10
208.971693
20
421.103201
11
208.940000
21
421.189000
0
LINE
8
Design
10
208.940000
20
421.189000
11
208.924000
21
421.285000
0
LINE
8
Design
10
208.924000
20
421.285000
11
208.920000
21
421.389000
0
LINE
8
Design
10
208.920000
20
421.389000
11
208.928000
21
421.499000
0
LINE
8
Design
10
208.928000
20
421.499000
11
208.944000
21
421.611000
0
LINE
8
Design
10
208.944000
20
421.611000
11
208.967000
21
421.724000
0
LINE
8
Design
10
208.967000
20
421.724000
11
208.996000
21
421.834000
0
LINE
8
Design
10
208.996000
20
421.834000
11
209.027000
21
421.939000
0
LINE
8
Design
10
209.027000
20
421.939000
11
209.062060
21
422.032499
0
LINE
8
Design
10
209.062060
20
422.032499
11
209.099419
21
422.103986
0
LINE
8
Design
10
209.099419
20
422.103986
11
209.136928
21
422.156403
0
LINE
8
Design
10
209.136928
20
422.156403
11
209.172436
21
422.192694
0
LINE
8
Design
10
209.172436
20
422.192694
11
209.203795
21
422.215798
0
LINE
8
Design
10
209.203795
20
422.215798
11
209.228855
21
422.228659
0
LINE
8
Design
10
209.228855
20
422.228659
11
209.245468
21
422.234217
0
LINE
8
Design
10
209.245468
20
422.234217
11
209.251483
21
422.235424
0
LINE
8
Design
10
209.251483
20
422.235424
11
209.271582
21
422.209860
0
LINE
8
Design
10
209.271582
20
422.209860
11
209.286043
21
422.184019
0
LINE
8
Design
10
209.286043
20
422.184019
11
209.296185
21
422.156354
0
LINE
8
Design
10
209.296185
20
422.156354
11
209.303331
21
422.125318
0
LINE
8
Design
10
209.303331
20
422.125318
11
209.308802
21
422.089364
0
LINE
8
Design
10
209.308802
20
422.089364
11
209.313919
21
422.046945
0
LINE
8
Design
10
209.313919
20
422.046945
11
209.320003
21
421.996515
0
LINE
8
Design
10
209.320003
20
421.996515
11
209.328377
21
421.936527
0
LINE
8
Design
10
209.328377
20
421.936527
11
209.332035
21
421.914959
0
LINE
8
Design
10
209.332035
20
421.914959
11
209.336433
21
421.893005
0
LINE
8
Design
10
209.336433
20
421.893005
11
209.353560
21
421.825606
0
LINE
8
Design
10
209.353560
20
421.825606
11
209.360408
21
421.802884
0
LINE
8
Design
10
209.360408
20
421.802884
11
209.367741
21
421.780163
0
LINE
8
Design
10
209.367741
20
421.780163
11
209.375506
21
421.757519
0
LINE
8
Design
10
209.375506
20
421.757519
11
209.375609
21
421.757303
0
LINE
8
Design
10
209.375609
20
421.757303
11
209.375735
21
421.757077
0
LINE
8
Design
10
209.375735
20
421.757077
11
209.375871
21
421.756840
0
LINE
8
Design
10
209.375871
20
421.756840
11
209.376008
21
421.756590
0
LINE
8
Design
10
209.376008
20
421.756590
11
209.376134
21
421.756328
0
LINE
8
Design
10
209.376134
20
421.756328
11
209.376238
21
421.756050
0
LINE
8
Design
10
209.376238
20
421.756050
11
209.376308
21
421.755758
0
LINE
8
Design
10
209.376308
20
421.755758
11
209.376334
21
421.755449
0
LINE
8
Design
10
209.376334
20
421.755449
11
209.376000
21
421.755000
0
LINE
8
Design
10
209.376000
20
421.755000
11
209.376000
21
421.755000
0
LINE
8
Design
10
209.376000
20
421.755000
11
209.376000
21
421.755000
0
LINE
8
Design
10
209.376000
20
421.755000
11
209.376000
21
421.755000
0
LINE
8
Design
10
209.376000
20
421.755000
11
209.376000
21
421.755000
0
LINE
8
Design
10
209.376000
20
421.755000
11
209.376000
21
421.755000
0
LINE
8
Design
10
209.376000
20
421.755000
11
209.376000
21
421.755000
0
LINE
8
Design
10
209.376000
20
421.755000
11
209.376000
21
421.755000
0
LINE
8
Design
10
209.376000
20
421.755000
11
209.393000
21
421.709000
0
LINE
8
Design
10
209.393000
20
421.709000
11
209.411000
21
421.665000
0
LINE
8
Design
10
209.411000
20
421.665000
11
209.430000
21
421.623000
0
LINE
8
Design
10
209.430000
20
421.623000
11
209.450000
21
421.584000
0
LINE
8
Design
10
209.450000
20
421.584000
11
209.469000
21
421.548000
0
LINE
8
Design
10
209.469000
20
421.548000
11
209.488000
21
421.517000
0
LINE
8
Design
10
209.488000
20
421.517000
11
209.506000
21
421.491000
0
LINE
8
Design
10
209.506000
20
421.491000
11
209.523000
21
421.470000
0
LINE
8
Design
10
209.523000
20
421.470000
11
209.562000
21
421.425000
0
LINE
8
Design
10
209.562000
20
421.425000
11
209.595000
21
421.383000
0
LINE
8
Design
10
209.595000
20
421.383000
11
209.624000
21
421.345000
0
LINE
8
Design
10
209.624000
20
421.345000
11
209.647000
21
421.311000
0
LINE
8
Design
10
209.647000
20
421.311000
11
209.688128
21
421.243421
0
LINE
8
Design
10
209.688128
20
421.243421
11
209.689978
21
421.227721
0
LINE
8
Design
10
209.689978
20
421.227721
11
209.692675
21
421.207041
0
LINE
8
Design
10
209.692675
20
421.207041
11
209.693090
21
421.207247
0
LINE
8
Design
10
209.693090
20
421.207247
11
209.693505
21
421.207454
0
LINE
8
Design
10
209.693505
20
421.207454
11
209.693000
21
421.208000
0
LINE
8
Design
10
209.693000
20
421.208000
11
209.693000
21
421.209000
0
LINE
8
Design
10
209.693000
20
421.209000
11
209.748463
21
421.192376
0
LINE
8
Design
10
209.748463
20
421.192376
11
209.884823
21
421.154843
0
LINE
8
Design
10
209.884823
20
421.154843
11
210.185000
21
421.084000
0
LINE
8
Design
10
210.185000
20
421.084000
11
210.288000
21
421.057000
0
LINE
8
Design
10
210.288000
20
421.057000
11
210.331000
21
421.043000
0
LINE
8
Design
10
210.331000
20
421.043000
11
210.375000
21
421.027000
0
LINE
8
Design
10
210.375000
20
421.027000
11
210.397000
21
421.019000
0
LINE
8
Design
10
210.397000
20
421.019000
11
210.420000
21
421.010000
0
LINE
8
Design
10
210.420000
20
421.010000
11
210.489000
21
420.979000
0
LINE
8
Design
10
210.489000
20
420.979000
11
210.557000
21
420.944000
0
LINE
8
Design
10
210.557000
20
420.944000
11
210.597000
21
420.920000
0
LINE
8
Design
10
210.597000
20
420.920000
11
210.636000
21
420.894000
0
LINE
8
Design
10
210.636000
20
420.894000
11
210.654807
21
420.880771
0
LINE
8
Design
10
210.654807
20
420.880771
11
210.673620
21
420.867542
0
LINE
8
Design
10
210.673620
20
420.867542
11
210.727559
21
420.822336
0
LINE
8
Design
10
210.727559
20
420.822336
11
210.779041
21
420.772457
0
LINE
8
Design
10
210.779041
20
420.772457
11
210.835510
21
420.718644
0
LINE
8
Design
10
210.835510
20
420.718644
11
210.891489
21
420.677372
0
LINE
8
Design
10
210.891489
20
420.677372
11
211.055735
21
420.618728
0
LINE
8
Design
10
211.055735
20
420.618728
11
211.090339
21
420.619492
0
LINE
8
Design
10
211.090339
20
420.619492
11
211.201598
21
420.653519
0
LINE
8
Design
10
211.201598
20
420.653519
11
211.272654
21
420.702588
0
LINE
8
Design
10
211.272654
20
420.702588
11
211.354139
21
420.800748
0
LINE
8
Design
10
211.354139
20
420.800748
11
211.407840
21
420.921283
0
LINE
8
Design
10
211.407840
20
420.921283
11
211.427605
21
421.137033
0
LINE
8
Design
10
211.427605
20
421.137033
11
211.383333
21
421.385324
0
LINE
8
Design
10
211.383333
20
421.385324
11
211.287855
21
421.656359
0
LINE
8
Design
10
211.287855
20
421.656359
11
211.117847
21
422.001484
0
LINE
8
Design
10
211.117847
20
422.001484
11
211.034177
21
422.138056
0
LINE
8
Design
10
211.034177
20
422.138056
11
210.916577
21
422.320365
0
LINE
8
Design
10
210.916577
20
422.320365
11
210.778627
21
422.518709
0
LINE
8
Design
10
210.778627
20
422.518709
11
210.607427
21
422.753778
0
LINE
8
Design
10
210.607427
20
422.753778
11
210.420438
21
423.040757
0
LINE
8
Design
10
210.420438
20
423.040757
11
210.263509
21
423.360131
0
LINE
8
Design
10
210.263509
20
423.360131
11
210.182487
21
423.692386
0
LINE
8
Design
10
210.182487
20
423.692386
11
210.182329
21
423.696737
0
LINE
8
Design
10
210.182329
20
423.696737
11
210.182073
21
423.701068
0
LINE
8
Design
10
210.182073
20
423.701068
11
210.176497
21
423.914704
0
LINE
8
Design
10
210.176497
20
423.914704
11
210.218867
21
424.143832
0
LINE
8
Design
10
210.218867
20
424.143832
11
210.219000
21
424.145000
0
LINE
8
Design
10
210.219000
20
424.145000
11
210.219000
21
424.145000
0
LINE
8
Design
10
210.219000
20
424.145000
11
210.292473
21
424.324832
0
LINE
8
Design
10
210.292473
20
424.324832
11
210.395940
21
424.485238
0
LINE
8
Design
10
210.395940
20
424.485238
11
210.603199
21
424.697920
0
LINE
8
Design
10
210.603199
20
424.697920
11
210.851520
21
424.858963
0
LINE
8
Design
10
210.851520
20
424.858963
11
211.205399
21
424.982589
0
LINE
8
Design
10
211.205399
20
424.982589
11
211.208668
21
424.983415
0
LINE
8
Design
10
211.208668
20
424.983415
11
211.212427
21
424.984240
0
LINE
8
Design
10
211.212427
20
424.984240
11
211.468260
21
425.019140
0
LINE
8
Design
10
211.468260
20
425.019140
11
211.705024
21
425.019277
0
LINE
8
Design
10
211.705024
20
425.019277
11
211.912221
21
424.996728
0
LINE
8
Design
10
211.912221
20
424.996728
11
212.079352
21
424.963569
0
LINE
8
Design
10
212.079352
20
424.963569
11
212.227972
21
424.970319
0
LINE
8
Design
10
212.227972
20
424.970319
11
212.348070
21
425.056999
0
LINE
8
Design
10
212.348070
20
425.056999
11
212.414352
21
425.137134
0
LINE
8
Design
10
212.414352
20
425.137134
11
212.499703
21
425.225099
0
LINE
8
Design
10
212.499703
20
425.225099
11
212.605015
21
425.315749
0
LINE
8
Design
10
212.605015
20
425.315749
11
212.731180
21
425.403938
0
LINE
8
Design
10
212.731180
20
425.403938
11
212.879090
21
425.484519
0
LINE
8
Design
10
212.879090
20
425.484519
11
213.049638
21
425.552348
0
LINE
8
Design
10
213.049638
20
425.552348
11
213.243716
21
425.602277
0
LINE
8
Design
10
213.243716
20
425.602277
11
213.462216
21
425.629161
0
LINE
8
Design
10
213.462216
20
425.629161
11
213.544639
21
425.633229
0
LINE
8
Design
10
213.544639
20
425.633229
11
213.627167
21
425.633716
0
LINE
8
Design
10
213.627167
20
425.633716
11
213.644418
21
425.708732
0
LINE
8
Design
10
213.644418
20
425.708732
11
213.671933
21
425.779231
0
LINE
8
Design
10
213.671933
20
425.779231
11
213.708871
21
425.844373
0
LINE
8
Design
10
213.708871
20
425.844373
11
213.754390
21
425.903320
0
LINE
8
Design
10
213.754390
20
425.903320
11
213.807648
21
425.955232
0
LINE
8
Design
10
213.807648
20
425.955232
11
213.867804
21
425.999268
0
LINE
8
Design
10
213.867804
20
425.999268
11
213.934015
21
426.034590
0
LINE
8
Design
10
213.934015
20
426.034590
11
214.005440
21
426.060357
0
LINE
8
Design
10
214.005440
20
426.060357
11
214.005000
21
427.912000
0
LINE
8
Design
10
214.005000
20
427.912000
11
212.726000
21
427.912000
0
LINE
8
Design
10
212.726000
20
427.912000
11
212.680145
21
427.920331
0
LINE
8
Design
10
212.680145
20
427.920331
11
212.641664
21
427.943419
0
LINE
8
Design
10
212.641664
20
427.943419
11
212.641000
21
427.943000
0
LINE
8
Design
10
212.641000
20
427.943000
11
212.641000
21
427.943000
0
LINE
8
Design
10
212.641000
20
427.943000
11
212.638174
21
427.946128
0
LINE
8
Design
10
212.638174
20
427.946128
11
212.635626
21
427.949202
0
LINE
8
Design
10
212.635626
20
427.949202
11
212.631284
21
427.953748
0
LINE
8
Design
10
212.631284
20
427.953748
11
212.626943
21
427.958295
0
LINE
8
Design
10
212.626943
20
427.958295
11
212.258799
21
428.343182
0
LINE
8
Design
10
212.258799
20
428.343182
11
211.890655
21
428.728069
0
LINE
8
Design
10
211.890655
20
428.728069
11
211.939438
21
428.745432
0
LINE
8
Design
10
211.939438
20
428.745432
11
211.988221
21
428.762795
0
LINE
8
Design
10
211.988221
20
428.762795
11
212.248877
21
428.582961
0
LINE
8
Design
10
212.248877
20
428.582961
11
212.509533
21
428.403127
0
LINE
8
Design
10
212.509533
20
428.403127
11
212.529789
21
428.476714
0
LINE
8
Design
10
212.529789
20
428.476714
11
212.550046
21
428.550302
0
LINE
8
Design
10
212.550046
20
428.550302
11
212.581000
21
428.551000
0
LINE
8
Design
10
212.581000
20
428.551000
11
212.613000
21
428.551000
0
LINE
8
Design
10
212.613000
20
428.551000
11
212.729376
21
428.360417
0
LINE
8
Design
10
212.729376
20
428.360417
11
212.845752
21
428.169834
0
LINE
8
Design
10
212.845752
20
428.169834
11
214.005000
21
428.170000
0
LINE
8
Design
10
214.005000
20
428.170000
11
214.005000
21
428.265000
0
LINE
8
Design
10
214.005000
20
428.265000
11
214.005000
21
428.361000
0
LINE
8
Design
10
214.005000
20
428.361000
11
213.946828
21
428.403241
0
LINE
8
Design
10
213.946828
20
428.403241
11
213.901637
21
428.459168
0
LINE
8
Design
10
213.901637
20
428.459168
11
213.872369
21
428.525852
0
LINE
8
Design
10
213.872369
20
428.525852
11
213.861959
21
428.600366
0
LINE
8
Design
10
213.861959
20
428.600366
11
213.872369
21
428.674954
0
LINE
8
Design
10
213.872369
20
428.674954
11
213.901638
21
428.741480
0
LINE
8
Design
10
213.901638
20
428.741480
11
213.946828
21
428.797186
0
LINE
8
Design
10
213.946828
20
428.797186
11
214.005000
21
428.839318
0
LINE
8
Design
10
214.005000
20
428.839318
11
214.005000
21
431.543000
0
LINE
8
Design
10
214.005000
20
431.543000
11
213.562856
21
431.724695
0
LINE
8
Design
10
213.562856
20
431.724695
11
213.120712
21
431.906390
0
LINE
8
Design
10
213.120712
20
431.906390
11
213.121000
21
431.939000
0
LINE
8
Design
10
213.121000
20
431.939000
11
213.121000
21
431.972000
0
LINE
8
Design
10
213.121000
20
431.972000
11
213.710000
21
431.972000
0
LINE
8
Design
10
213.710000
20
431.972000
11
214.298000
21
431.972000
0
LINE
8
Design
10
214.298000
20
431.972000
11
214.350336
21
431.944083
0
LINE
8
Design
10
214.350336
20
431.944083
11
214.355465
21
431.885183
0
LINE
8
Design
10
214.355465
20
431.885183
11
214.308955
21
431.779145
0
LINE
8
Design
10
214.308955
20
431.779145
11
214.262446
21
431.673107
0
LINE
8
Design
10
214.262446
20
431.673107
11
214.263000
21
428.839000
0
LINE
8
Design
10
214.263000
20
428.839000
11
214.320981
21
428.796864
0
LINE
8
Design
10
214.320981
20
428.796864
11
214.366043
21
428.741250
0
LINE
8
Design
10
214.366043
20
428.741250
11
214.395240
21
428.674876
0
LINE
8
Design
10
214.395240
20
428.674876
11
214.405627
21
428.600461
0
LINE
8
Design
10
214.405627
20
428.600461
11
214.395240
21
428.526119
0
LINE
8
Design
10
214.395240
20
428.526119
11
214.366043
21
428.459589
0
LINE
8
Design
10
214.366043
20
428.459589
11
214.320981
21
428.403757
0
LINE
8
Design
10
214.320981
20
428.403757
11
214.263000
21
428.361509
0
LINE
8
Design
10
214.263000
20
428.361509
11
214.263000
21
428.266000
0
LINE
8
Design
10
214.263000
20
428.266000
11
214.263000
21
428.170000
0
LINE
8
Design
10
214.263000
20
428.170000
11
215.286000
21
428.170000
0
LINE
8
Design
10
215.286000
20
428.170000
11
215.330283
21
428.223140
0
LINE
8
Design
10
215.330283
20
428.223140
11
215.386197
21
428.263963
0
LINE
8
Design
10
215.386197
20
428.263963
11
215.451337
21
428.290154
0
LINE
8
Design
10
215.451337
20
428.290154
11
215.523299
21
428.299397
0
LINE
8
Design
10
215.523299
20
428.299397
11
215.633456
21
428.277159
0
LINE
8
Design
10
215.633456
20
428.277159
11
215.723329
21
428.216531
0
LINE
8
Design
10
215.723329
20
428.216531
11
215.783880
21
428.126642
0
LINE
8
Design
10
215.783880
20
428.126642
11
215.806072
21
428.016623
0
LINE
8
Design
10
215.806072
20
428.016623
11
215.789410
21
427.920704
0
LINE
8
Design
10
215.789410
20
427.920704
11
215.743313
21
427.838918
0
LINE
8
Design
10
215.743313
20
427.838918
11
215.673611
21
427.777048
0
LINE
8
Design
10
215.673611
20
427.777048
11
215.586136
21
427.740878
0
LINE
8
Design
10
215.586136
20
427.740878
11
214.541446
21
425.904088
0
LINE
8
Design
10
214.541446
20
425.904088
11
214.565276
21
425.875405
0
LINE
8
Design
10
214.565276
20
425.875405
11
214.587086
21
425.845065
0
LINE
8
Design
10
214.587086
20
425.845065
11
214.606763
21
425.813171
0
LINE
8
Design
10
214.606763
20
425.813171
11
214.624194
21
425.779831
0
LINE
8
Design
10
214.624194
20
425.779831
11
214.639264
21
425.745151
0
LINE
8
Design
10
214.639264
20
425.745151
11
214.651863
21
425.709237
0
LINE
8
Design
10
214.651863
20
425.709237
11
214.661875
21
425.672194
0
LINE
8
Design
10
214.661875
20
425.672194
11
214.669188
21
425.634129
0
LINE
8
Design
10
214.669188
20
425.634129
11
217.483000
21
425.634000
0
LINE
8
Design
10
217.483000
20
425.634000
11
217.310000
21
425.373000
0
LINE
8
Design
10
217.310000
20
425.373000
11
217.142000
21
425.126000
0
LINE
8
Design
10
217.142000
20
425.126000
11
213.759000
21
425.126000
0
LINE
8
Design
10
213.759000
20
425.126000
11
213.670825
21
425.122899
0
LINE
8
Design
10
213.670825
20
425.122899
11
213.583880
21
425.113706
0
LINE
8
Design
10
213.583880
20
425.113706
11
213.498427
21
425.098585
0
LINE
8
Design
10
213.498427
20
425.098585
11
213.414727
21
425.077700
0
LINE
8
Design
10
213.414727
20
425.077700
11
213.333044
21
425.051212
0
LINE
8
Design
10
213.333044
20
425.051212
11
213.253637
21
425.019285
0
LINE
8
Design
10
213.253637
20
425.019285
11
213.176769
21
424.982084
0
LINE
8
Design
10
213.176769
20
424.982084
11
213.102701
21
424.939771
0
LINE
8
Design
10
213.102701
20
424.939771
11
213.031695
21
424.892509
0
LINE
8
Design
10
213.031695
20
424.892509
11
212.964013
21
424.840462
0
LINE
8
Design
10
212.964013
20
424.840462
11
212.899917
21
424.783794
0
LINE
8
Design
10
212.899917
20
424.783794
11
212.839667
21
424.722666
0
LINE
8
Design
10
212.839667
20
424.722666
11
212.783527
21
424.657244
0
LINE
8
Design
10
212.783527
20
424.657244
11
212.731756
21
424.587691
0
LINE
8
Design
10
212.731756
20
424.587691
11
212.684618
21
424.514169
0
LINE
8
Design
10
212.684618
20
424.514169
11
212.642374
21
424.436842
0
LINE
8
Design
10
212.642374
20
424.436842
11
212.621961
21
424.439496
0
LINE
8
Design
10
212.621961
20
424.439496
11
212.602271
21
424.441380
0
LINE
8
Design
10
212.602271
20
424.441380
11
212.493410
21
424.416271
0
LINE
8
Design
10
212.493410
20
424.416271
11
212.409142
21
424.348860
0
LINE
8
Design
10
212.409142
20
424.348860
11
212.361080
21
424.251021
0
LINE
8
Design
10
212.361080
20
424.251021
11
212.360848
21
424.134628
0
LINE
8
Design
10
212.360848
20
424.134628
11
212.385546
21
424.070936
0
LINE
8
Design
10
212.385546
20
424.070936
11
212.426479
21
424.016825
0
LINE
8
Design
10
212.426479
20
424.016825
11
212.480381
21
423.975624
0
LINE
8
Design
10
212.480381
20
423.975624
11
212.543989
21
423.950660
0
LINE
8
Design
10
212.543989
20
423.950660
11
212.660522
21
423.950406
0
LINE
8
Design
10
212.660522
20
423.950406
11
212.758346
21
423.998671
0
LINE
8
Design
10
212.758346
20
423.998671
11
212.825679
21
424.083389
0
LINE
8
Design
10
212.825679
20
424.083389
11
212.850741
21
424.192500
0
LINE
8
Design
10
212.850741
20
424.192500
11
212.846334
21
424.238007
0
LINE
8
Design
10
212.846334
20
424.238007
11
212.833787
21
424.280705
0
LINE
8
Design
10
212.833787
20
424.280705
11
212.814110
21
424.320022
0
LINE
8
Design
10
212.814110
20
424.320022
11
212.788317
21
424.355385
0
LINE
8
Design
10
212.788317
20
424.355385
11
212.788422
21
424.355914
0
LINE
8
Design
10
212.788422
20
424.355914
11
212.788528
21
424.356422
0
LINE
8
Design
10
212.788528
20
424.356422
11
212.788634
21
424.356930
0
LINE
8
Design
10
212.788634
20
424.356930
11
212.788740
21
424.357438
0
LINE
8
Design
10
212.788740
20
424.357438
11
212.804024
21
424.392351
0
LINE
8
Design
10
212.804024
20
424.392351
11
212.825149
21
424.424920
0
LINE
8
Design
10
212.825149
20
424.424920
11
212.865868
21
424.489084
0
LINE
8
Design
10
212.865868
20
424.489084
11
212.910663
21
424.549787
0
LINE
8
Design
10
212.910663
20
424.549787
11
212.959303
21
424.606886
0
LINE
8
Design
10
212.959303
20
424.606886
11
213.011554
21
424.660238
0
LINE
8
Design
10
213.011554
20
424.660238
11
213.067184
21
424.709700
0
LINE
8
Design
10
213.067184
20
424.709700
11
213.125960
21
424.755129
0
LINE
8
Design
10
213.125960
20
424.755129
11
213.187651
21
424.796383
0
LINE
8
Design
10
213.187651
20
424.796383
11
213.252023
21
424.833319
0
LINE
8
Design
10
213.252023
20
424.833319
11
213.318845
21
424.865793
0
LINE
8
Design
10
213.318845
20
424.865793
11
213.387883
21
424.893663
0
LINE
8
Design
10
213.387883
20
424.893663
11
213.458906
21
424.916786
0
LINE
8
Design
10
213.458906
20
424.916786
11
213.531680
21
424.935019
0
LINE
8
Design
10
213.531680
20
424.935019
11
213.605974
21
424.948221
0
LINE
8
Design
10
213.605974
20
424.948221
11
213.681555
21
424.956245
0
LINE
8
Design
10
213.681555
20
424.956245
11
213.758190
21
424.958953
0
LINE
8
Design
10
213.758190
20
424.958953
11
217.026000
21
424.959000
0
LINE
8
Design
10
217.026000
20
424.959000
11
216.833000
21
424.692000
0
LINE
8
Design
10
216.833000
20
424.692000
11
216.646000
21
424.443000
0
LINE
8
Design
10
216.646000
20
424.443000
11
214.254000
21
424.443000
0
LINE
8
Design
10
214.254000
20
424.443000
11
214.163629
21
424.439935
0
LINE
8
Design
10
214.163629
20
424.439935
11
214.074392
21
424.430842
0
LINE
8
Design
10
214.074392
20
424.430842
11
213.986543
21
424.415871
0
LINE
8
Design
10
213.986543
20
424.415871
11
213.900336
21
424.395172
0
LINE
8
Design
10
213.900336
20
424.395172
11
213.816023
21
424.368897
0
LINE
8
Design
10
213.816023
20
424.368897
11
213.733859
21
424.337198
0
LINE
8
Design
10
213.733859
20
424.337198
11
213.654096
21
424.300225
0
LINE
8
Design
10
213.654096
20
424.300225
11
213.576989
21
424.258130
0
LINE
8
Design
10
213.576989
20
424.258130
11
213.502789
21
424.211063
0
LINE
8
Design
10
213.502789
20
424.211063
11
213.431751
21
424.159176
0
LINE
8
Design
10
213.431751
20
424.159176
11
213.364129
21
424.102619
0
LINE
8
Design
10
213.364129
20
424.102619
11
213.300175
21
424.041544
0
LINE
8
Design
10
213.300175
20
424.041544
11
213.240143
21
423.976102
0
LINE
8
Design
10
213.240143
20
423.976102
11
213.184286
21
423.906444
0
LINE
8
Design
10
213.184286
20
423.906444
11
213.132857
21
423.832721
0
LINE
8
Design
10
213.132857
20
423.832721
11
213.086111
21
423.755083
0
LINE
8
Design
10
213.086111
20
423.755083
11
213.086000
21
423.754000
0
LINE
8
Design
10
213.086000
20
423.754000
11
213.086000
21
423.753000
0
LINE
8
Design
10
213.086000
20
423.753000
11
213.046312
21
423.757540
0
LINE
8
Design
10
213.046312
20
423.757540
11
212.938262
21
423.732893
0
LINE
8
Design
10
212.938262
20
423.732893
11
212.853911
21
423.666597
0
LINE
8
Design
10
212.853911
20
423.666597
11
212.804781
21
423.570117
0
LINE
8
Design
10
212.804781
20
423.570117
11
212.802400
21
423.454922
0
LINE
8
Design
10
212.802400
20
423.454922
11
212.825863
21
423.391600
0
LINE
8
Design
10
212.825863
20
423.391600
11
212.865552
21
423.337194
0
LINE
8
Design
10
212.865552
20
423.337194
11
212.918209
21
423.295143
0
LINE
8
Design
10
212.918209
20
423.295143
11
212.980581
21
423.268887
0
LINE
8
Design
10
212.980581
20
423.268887
11
213.098349
21
423.265598
0
LINE
8
Design
10
213.098349
20
423.265598
11
213.198573
21
423.312799
0
LINE
8
Design
10
213.198573
20
423.312799
11
213.268246
21
423.397989
0
LINE
8
Design
10
213.268246
20
423.397989
11
213.294361
21
423.508667
0
LINE
8
Design
10
213.294361
20
423.508667
11
213.290019
21
423.554236
0
LINE
8
Design
10
213.290019
20
423.554236
11
213.277613
21
423.597076
0
LINE
8
Design
10
213.277613
20
423.597076
11
213.258079
21
423.636536
0
LINE
8
Design
10
213.258079
20
423.636536
11
213.232349
21
423.671965
0
LINE
8
Design
10
213.232349
20
423.671965
11
213.232455
21
423.672176
0
LINE
8
Design
10
213.232455
20
423.672176
11
213.232561
21
423.672388
0
LINE
8
Design
10
213.232561
20
423.672388
11
213.232667
21
423.672600
0
LINE
8
Design
10
213.232667
20
423.672600
11
213.232773
21
423.672811
0
LINE
8
Design
10
213.232773
20
423.672811
11
213.270136
21
423.740135
0
LINE
8
Design
10
213.270136
20
423.740135
11
213.311497
21
423.804276
0
LINE
8
Design
10
213.311497
20
423.804276
11
213.356689
21
423.865058
0
LINE
8
Design
10
213.356689
20
423.865058
11
213.405551
21
423.922304
0
LINE
8
Design
10
213.405551
20
423.922304
11
213.457918
21
423.975840
0
LINE
8
Design
10
213.457918
20
423.975840
11
213.513625
21
424.025487
0
LINE
8
Design
10
213.513625
20
424.025487
11
213.572511
21
424.071071
0
LINE
8
Design
10
213.572511
20
424.071071
11
213.634409
21
424.112416
0
LINE
8
Design
10
213.634409
20
424.112416
11
213.699059
21
424.149394
0
LINE
8
Design
10
213.699059
20
424.149394
11
213.766153
21
424.181904
0
LINE
8
Design
10
213.766153
20
424.181904
11
213.835462
21
424.209804
0
LINE
8
Design
10
213.835462
20
424.209804
11
213.906755
21
424.232950
0
LINE
8
Design
10
213.906755
20
424.232950
11
213.979804
21
424.251200
0
LINE
8
Design
10
213.979804
20
424.251200
11
214.054378
21
424.264412
0
LINE
8
Design
10
214.054378
20
424.264412
11
214.130249
21
424.272442
0
LINE
8
Design
10
214.130249
20
424.272442
11
214.207185
21
424.275152
0
LINE
8
Design
10
214.207185
20
424.275152
11
216.516000
21
424.275000
0
LINE
8
Design
10
216.516000
20
424.275000
11
216.299000
21
424.004000
0
LINE
8
Design
10
216.299000
20
424.004000
11
216.092000
21
423.758000
0
LINE
8
Design
10
216.092000
20
423.758000
11
214.726000
21
423.758000
0
LINE
8
Design
10
214.726000
20
423.758000
11
214.635331
21
423.754935
0
LINE
8
Design
10
214.635331
20
423.754935
11
214.545817
21
423.745842
0
LINE
8
Design
10
214.545817
20
423.745842
11
214.457716
21
423.730871
0
LINE
8
Design
10
214.457716
20
423.730871
11
214.371283
21
423.710172
0
LINE
8
Design
10
214.371283
20
423.710172
11
214.286774
21
423.683897
0
LINE
8
Design
10
214.286774
20
423.683897
11
214.204444
21
423.652198
0
LINE
8
Design
10
214.204444
20
423.652198
11
214.124549
21
423.615225
0
LINE
8
Design
10
214.124549
20
423.615225
11
214.047345
21
423.573130
0
LINE
8
Design
10
214.047345
20
423.573130
11
213.973088
21
423.526063
0
LINE
8
Design
10
213.973088
20
423.526063
11
213.902034
21
423.474176
0
LINE
8
Design
10
213.902034
20
423.474176
11
213.834438
21
423.417619
0
LINE
8
Design
10
213.834438
20
423.417619
11
213.770556
21
423.356544
0
LINE
8
Design
10
213.770556
20
423.356544
11
213.710643
21
423.291102
0
LINE
8
Design
10
213.710643
20
423.291102
11
213.654957
21
423.221444
0
LINE
8
Design
10
213.654957
20
423.221444
11
213.603752
21
423.147721
0
LINE
8
Design
10
213.603752
20
423.147721
11
213.557284
21
423.070083
0
LINE
8
Design
10
213.557284
20
423.070083
11
213.556458
21
423.069470
0
LINE
8
Design
10
213.556458
20
423.069470
11
213.555633
21
423.068835
0
LINE
8
Design
10
213.555633
20
423.068835
11
213.516358
21
423.072560
0
LINE
8
Design
10
213.516358
20
423.072560
11
213.419648
21
423.053055
0
LINE
8
Design
10
213.419648
20
423.053055
11
213.340821
21
422.999842
0
LINE
8
Design
10
213.340821
20
422.999842
11
213.287751
21
422.920873
0
LINE
8
Design
10
213.287751
20
422.920873
11
213.268311
21
422.824098
0
LINE
8
Design
10
213.268311
20
422.824098
11
213.287751
21
422.727740
0
LINE
8
Design
10
213.287751
20
422.727740
11
213.340821
21
422.648724
0
LINE
8
Design
10
213.340821
20
422.648724
11
213.419648
21
422.595281
0
LINE
8
Design
10
213.419648
20
422.595281
11
213.516358
21
422.575638
0
LINE
8
Design
10
213.516358
20
422.575638
11
213.612993
21
422.595281
0
LINE
8
Design
10
213.612993
20
422.595281
11
213.691978
21
422.648724
0
LINE
8
Design
10
213.691978
20
422.648724
11
213.745268
21
422.727740
0
LINE
8
Design
10
213.745268
20
422.727740
11
213.764819
21
422.824098
0
LINE
8
Design
10
213.764819
20
422.824098
11
213.760442
21
422.869789
0
LINE
8
Design
10
213.760442
20
422.869789
11
213.747911
21
422.912549
0
LINE
8
Design
10
213.747911
20
422.912549
11
213.701980
21
422.986983
0
LINE
8
Design
10
213.701980
20
422.986983
11
213.702403
21
422.988232
0
LINE
8
Design
10
213.702403
20
422.988232
11
213.702827
21
422.989481
0
LINE
8
Design
10
213.702827
20
422.989481
11
213.743402
21
423.057287
0
LINE
8
Design
10
213.743402
20
423.057287
11
213.788137
21
423.121692
0
LINE
8
Design
10
213.788137
20
423.121692
11
213.836809
21
423.182560
0
LINE
8
Design
10
213.836809
20
423.182560
11
213.889192
21
423.239759
0
LINE
8
Design
10
213.889192
20
423.239759
11
213.945063
21
423.293152
0
LINE
8
Design
10
213.945063
20
423.293152
11
214.004196
21
423.342607
0
LINE
8
Design
10
214.004196
20
423.342607
11
214.066368
21
423.387989
0
LINE
8
Design
10
214.066368
20
423.387989
11
214.131354
21
423.429163
0
LINE
8
Design
10
214.131354
20
423.429163
11
214.198930
21
423.465997
0
LINE
8
Design
10
214.198930
20
423.465997
11
214.268870
21
423.498354
0
LINE
8
Design
10
214.268870
20
423.498354
11
214.340951
21
423.526102
0
LINE
8
Design
10
214.340951
20
423.526102
11
214.414948
21
423.549106
0
LINE
8
Design
10
214.414948
20
423.549106
11
214.490637
21
423.567231
0
LINE
8
Design
10
214.490637
20
423.567231
11
214.567793
21
423.580343
0
LINE
8
Design
10
214.567793
20
423.580343
11
214.646191
21
423.588311
0
LINE
8
Design
10
214.646191
20
423.588311
11
214.725608
21
423.590995
0
LINE
8
Design
10
214.725608
20
423.590995
11
215.943000
21
423.591000
0
LINE
8
Design
10
215.943000
20
423.591000
11
215.335966
21
422.971526
0
LINE
8
Design
10
215.335966
20
422.971526
11
214.882102
21
422.589358
0
LINE
8
Design
10
214.882102
20
422.589358
11
214.499365
21
422.342082
0
LINE
8
Design
10
214.499365
20
422.342082
11
214.500000
21
422.342000
0
LINE
8
Design
10
214.500000
20
422.342000
11
214.500000
21
422.342000
0
LINE
8
Design
10
214.500000
20
422.342000
11
214.500000
21
422.342000
0
LINE
8
Design
10
214.500000
20
422.342000
11
214.500000
21
422.342000
0
LINE
8
Design
10
214.500000
20
422.342000
11
214.500000
21
422.342000
0
LINE
8
Design
10
214.500000
20
422.342000
11
214.500000
21
422.342000
0
LINE
8
Design
10
214.500000
20
422.342000
11
214.499000
21
422.342000
0
LINE
8
Design
10
214.499000
20
422.342000
11
214.499000
21
422.342000
0
LINE
8
Design
10
214.499000
20
422.342000
11
214.353000
21
422.268000
0
LINE
8
Design
10
214.353000
20
422.268000
11
214.156000
21
422.194000
0
LINE
8
Design
10
214.156000
20
422.194000
11
213.923000
21
422.127000
0
LINE
8
Design
10
213.923000
20
422.127000
11
213.664000
21
422.077000
0
LINE
8
Design
10
213.664000
20
422.077000
11
213.664000
21
422.077000
0
LINE
8
Design
10
213.664000
20
422.077000
11
213.664000
21
422.077000
0
LINE
8
Design
10
213.664000
20
422.077000
11
213.664000
21
422.077000
0
LINE
8
Design
10
213.664000
20
422.077000
11
213.663000
21
422.077000
0
LINE
8
Design
10
213.663000
20
422.077000
11
213.475064
21
422.060190
0
LINE
8
Design
10
213.475064
20
422.060190
11
213.295650
21
422.055409
0
LINE
8
Design
10
213.295650
20
422.055409
11
213.136763
21
422.064173
0
LINE
8
Design
10
213.136763
20
422.064173
11
212.974670
21
422.086920
0
LINE
8
Design
10
212.974670
20
422.086920
11
212.800392
21
422.129670
0
LINE
8
Design
10
212.800392
20
422.129670
11
212.630360
21
422.195369
0
LINE
8
Design
10
212.630360
20
422.195369
11
212.548184
21
422.237932
0
LINE
8
Design
10
212.548184
20
422.237932
11
212.468565
21
422.287562
0
LINE
8
Design
10
212.468565
20
422.287562
11
212.318998
21
422.409795
0
LINE
8
Design
10
212.318998
20
422.409795
11
212.197310
21
422.553951
0
LINE
8
Design
10
212.197310
20
422.553951
11
212.107395
21
422.707996
0
LINE
8
Design
10
212.107395
20
422.707996
11
212.044460
21
422.862958
0
LINE
8
Design
10
212.044460
20
422.862958
11
212.003713
21
423.009865
0
LINE
8
Design
10
212.003713
20
423.009865
11
211.969617
21
423.243623
0
LINE
8
Design
10
211.969617
20
423.243623
11
211.966770
21
423.337493
0
LINE
8
Design
10
211.966770
20
423.337493
11
211.967000
21
423.338000
0
LINE
8
Design
10
211.967000
20
423.338000
11
211.967000
21
423.338000
0
LINE
8
Design
10
211.967000
20
423.338000
11
211.968000
21
423.338000
0
LINE
8
Design
10
211.968000
20
423.338000
11
211.968000
21
423.338000
0
LINE
8
Design
10
211.968000
20
423.338000
11
211.968000
21
423.338000
0
LINE
8
Design
10
211.968000
20
423.338000
11
211.968000
21
423.338000
0
LINE
8
Design
10
211.968000
20
423.338000
11
211.968000
21
423.338000
0
LINE
8
Design
10
211.968000
20
423.338000
11
211.968000
21
423.338000
0
LINE
8
Design
10
211.968000
20
423.338000
11
211.956657
21
423.489963
0
LINE
8
Design
10
211.956657
20
423.489963
11
211.941544
21
423.629250
0
LINE
8
Design
10
211.941544
20
423.629250
11
211.918954
21
423.754540
0
LINE
8
Design
10
211.918954
20
423.754540
11
211.885181
21
423.864509
0
LINE
8
Design
10
211.885181
20
423.864509
11
211.836516
21
423.957835
0
LINE
8
Design
10
211.836516
20
423.957835
11
211.769252
21
424.033194
0
LINE
8
Design
10
211.769252
20
424.033194
11
211.679682
21
424.089265
0
LINE
8
Design
10
211.679682
20
424.089265
11
211.564097
21
424.124724
0
LINE
8
Design
10
211.564097
20
424.124724
11
211.466520
21
424.134782
0
LINE
8
Design
10
211.466520
20
424.134782
11
211.374321
21
424.127727
0
LINE
8
Design
10
211.374321
20
424.127727
11
211.288807
21
424.104884
0
LINE
8
Design
10
211.288807
20
424.104884
11
211.211283
21
424.067575
0
LINE
8
Design
10
211.211283
20
424.067575
11
211.143057
21
424.017127
0
LINE
8
Design
10
211.143057
20
424.017127
11
211.085435
21
423.954865
0
LINE
8
Design
10
211.085435
20
423.954865
11
211.039724
21
423.882113
0
LINE
8
Design
10
211.039724
20
423.882113
11
211.007230
21
423.800196
0
LINE
8
Design
10
211.007230
20
423.800196
11
210.994994
21
423.688599
0
LINE
8
Design
10
210.994994
20
423.688599
11
211.007158
21
423.582164
0
LINE
8
Design
10
211.007158
20
423.582164
11
211.035570
21
423.478632
0
LINE
8
Design
10
211.035570
20
423.478632
11
211.072074
21
423.375744
0
LINE
8
Design
10
211.072074
20
423.375744
11
211.111876
21
423.298113
0
LINE
8
Design
10
211.111876
20
423.298113
11
211.156179
21
423.220142
0
LINE
8
Design
10
211.156179
20
423.220142
11
211.201056
21
423.145281
0
LINE
8
Design
10
211.201056
20
423.145281
11
211.242579
21
423.076977
0
LINE
8
Design
10
211.242579
20
423.076977
11
211.415389
21
422.809080
0
LINE
8
Design
10
211.415389
20
422.809080
11
211.602049
21
422.513098
0
LINE
8
Design
10
211.602049
20
422.513098
11
211.781796
21
422.194691
0
LINE
8
Design
10
211.781796
20
422.194691
11
211.934000
21
421.859000
0
LINE
8
Design
10
211.934000
20
421.859000
11
211.993000
21
421.687000
0
LINE
8
Design
10
211.993000
20
421.687000
11
212.038000
21
421.513000
0
LINE
8
Design
10
212.038000
20
421.513000
11
212.065000
21
421.337000
0
LINE
8
Design
10
212.065000
20
421.337000
11
212.072000
21
421.161000
0
LINE
8
Design
10
212.072000
20
421.161000
11
212.063000
21
421.045000
0
LINE
8
Design
10
212.063000
20
421.045000
11
212.046000
21
420.938000
0
LINE
8
Design
10
212.046000
20
420.938000
11
212.022000
21
420.837000
0
LINE
8
Design
10
212.022000
20
420.837000
11
211.992000
21
420.734000
0
LINE
8
Design
10
211.992000
20
420.734000
11
211.945000
21
420.620000
0
LINE
8
Design
10
211.945000
20
420.620000
11
211.883000
21
420.504000
0
LINE
8
Design
10
211.883000
20
420.504000
11
211.775000
21
420.364000
0
LINE
8
Design
10
211.775000
20
420.364000
11
211.659000
21
420.256000
0
LINE
8
Design
10
211.659000
20
420.256000
11
211.540000
21
420.169000
0
LINE
8
Design
10
211.540000
20
420.169000
11
211.414000
21
420.101000
0
LINE
8
Design
10
211.414000
20
420.101000
11
211.413799
21
420.100793
0
LINE
8
Design
10
211.413799
20
420.100793
11
211.413598
21
420.100587
0
LINE
8
Design
10
211.413598
20
420.100587
11
211.413386
21
420.100380
0
LINE
8
Design
10
211.413386
20
420.100380
11
211.413174
21
420.100173
0
LINE
8
Design
10
211.413174
20
420.100173
11
211.413000
21
420.100000
0
LINE
8
Design
10
211.413000
20
420.100000
11
211.413000
21
420.100000
0
LINE
8
Design
10
211.413000
20
420.100000
11
211.413000
21
420.100000
0
LINE
8
Design
10
211.413000
20
420.100000
11
211.412000
21
420.100000
0
LINE
8
Design
10
211.412000
20
420.100000
11
211.387000
21
420.088000
0
LINE
8
Design
10
211.387000
20
420.088000
11
211.362000
21
420.077000
0
LINE
8
Design
10
211.362000
20
420.077000
11
211.220000
21
420.030000
0
LINE
8
Design
10
211.220000
20
420.030000
11
211.195000
21
420.025000
0
LINE
8
Design
10
211.195000
20
420.025000
11
211.172000
21
420.019000
0
LINE
8
Design
10
211.172000
20
420.019000
11
211.007000
21
419.992000
0
LINE
8
Design
10
211.007000
20
419.992000
11
210.863000
21
419.983000
0
LINE
8
Design
10
210.863000
20
419.983000
11
210.745000
21
419.985000
0
LINE
8
Design
10
210.745000
20
419.985000
11
210.660000
21
419.993000
0
LINE
8
Design
10
210.660000
20
419.993000
11
210.631000
21
419.997000
0
LINE
8
Design
10
210.631000
20
419.997000
11
210.613425
21
420.000048
0
LINE
8
Design
10
210.613425
20
420.000048
11
210.610325
21
420.000383
0
LINE
8
Design
10
210.610325
20
420.000383
11
210.607224
21
420.001288
0
LINE
8
Design
10
210.607224
20
420.001288
11
210.555759
21
420.006957
0
LINE
8
Design
10
210.555759
20
420.006957
11
210.506811
21
420.008440
0
LINE
8
Design
10
210.506811
20
420.008440
11
210.427000
21
419.997000
0
LINE
8
Design
10
210.427000
20
419.997000
11
210.346000
21
419.978000
0
LINE
8
Design
10
210.346000
20
419.978000
11
210.250000
21
419.973000
0
LINE
8
Design
10
210.250000
20
419.973000
11
210.250000
21
419.972000
0
LINE
8
Design
10
210.250000
20
419.972000
11
210.250000
21
419.972000
0
LINE
8
Design
10
213.516370
20
422.729870
11
213.479789
21
422.737314
0
LINE
8
Design
10
213.479789
20
422.737314
11
213.449816
21
422.757575
0
LINE
8
Design
10
213.449816
20
422.757575
11
213.429555
21
422.787548
0
LINE
8
Design
10
213.429555
20
422.787548
11
213.422113
21
422.824129
0
LINE
8
Design
10
213.422113
20
422.824129
11
213.429558
21
422.860709
0
LINE
8
Design
10
213.429558
20
422.860709
11
213.449818
21
422.890683
0
LINE
8
Design
10
213.449818
20
422.890683
11
213.479791
21
422.910943
0
LINE
8
Design
10
213.479791
20
422.910943
11
213.516372
21
422.918386
0
LINE
8
Design
10
213.516372
20
422.918386
11
213.552824
21
422.910941
0
LINE
8
Design
10
213.552824
20
422.910941
11
213.582512
21
422.890680
0
LINE
8
Design
10
213.582512
20
422.890680
11
213.602489
21
422.860707
0
LINE
8
Design
10
213.602489
20
422.860707
11
213.609805
21
422.824127
0
LINE
8
Design
10
213.609805
20
422.824127
11
213.602489
21
422.787546
0
LINE
8
Design
10
213.602489
20
422.787546
11
213.582512
21
422.757573
0
LINE
8
Design
10
213.582512
20
422.757573
11
213.552824
21
422.737312
0
LINE
8
Design
10
213.552824
20
422.737312
11
213.516372
21
422.729868
0
LINE
8
Design
10
213.516372
20
422.729868
11
213.516370
21
422.729870
0
LINE
8
Design
10
212.952476
20
423.508325
11
212.959855
21
423.544906
0
LINE
8
Design
10
212.959855
20
423.544906
11
212.979974
21
423.574879
0
LINE
8
Design
10
212.979974
20
423.574879
11
213.009805
21
423.595139
0
LINE
8
Design
10
213.009805
20
423.595139
11
213.046321
21
423.602584
0
LINE
8
Design
10
213.046321
20
423.602584
11
213.082698
21
423.595139
0
LINE
8
Design
10
213.082698
20
423.595139
11
213.112545
21
423.574879
0
LINE
8
Design
10
213.112545
20
423.574879
11
213.132740
21
423.544906
0
LINE
8
Design
10
213.132740
20
423.544906
11
213.140165
21
423.508325
0
LINE
8
Design
10
213.140165
20
423.508325
11
213.132719
21
423.471829
0
LINE
8
Design
10
213.132719
20
423.471829
11
213.112379
21
423.442137
0
LINE
8
Design
10
213.112379
20
423.442137
11
213.082140
21
423.422394
0
LINE
8
Design
10
213.082140
20
423.422394
11
213.044995
21
423.415750
0
LINE
8
Design
10
213.044995
20
423.415750
11
213.008265
21
423.423694
0
LINE
8
Design
10
213.008265
20
423.423694
11
212.978937
21
423.443697
0
LINE
8
Design
10
212.978937
20
423.443697
11
212.959508
21
423.472870
0
LINE
8
Design
10
212.959508
20
423.472870
11
212.952476
21
423.508326
0
LINE
8
Design
10
212.952476
20
423.508326
11
212.952476
21
423.508325
0
LINE
8
Design
10
212.602730
20
424.098264
11
212.566149
21
424.105708
0
LINE
8
Design
10
212.566149
20
424.105708
11
212.536176
21
424.125969
0
LINE
8
Design
10
212.536176
20
424.125969
11
212.515915
21
424.155942
0
LINE
8
Design
10
212.515915
20
424.155942
11
212.508473
21
424.192524
0
LINE
8
Design
10
212.508473
20
424.192524
11
212.515918
21
424.229040
0
LINE
8
Design
10
212.515918
20
424.229040
11
212.536178
21
424.258871
0
LINE
8
Design
10
212.536178
20
424.258871
11
212.566151
21
424.278990
0
LINE
8
Design
10
212.566151
20
424.278990
11
212.602732
21
424.286368
0
LINE
8
Design
10
212.602732
20
424.286368
11
212.639249
21
424.278990
0
LINE
8
Design
10
212.639249
20
424.278990
11
212.669080
21
424.258871
0
LINE
8
Design
10
212.669080
20
424.258871
11
212.689199
21
424.229040
0
LINE
8
Design
10
212.689199
20
424.229040
11
212.696578
21
424.192524
0
LINE
8
Design
10
212.696578
20
424.192524
11
212.689199
21
424.155942
0
LINE
8
Design
10
212.689199
20
424.155942
11
212.669082
21
424.125969
0
LINE
8
Design
10
212.669082
20
424.125969
11
212.639251
21
424.105709
0
LINE
8
Design
10
212.639251
20
424.105709
11
212.602734
21
424.098266
0
LINE
8
Design
10
212.602734
20
424.098266
11
212.602730
21
424.098264
0
LINE
8
Design
10
215.329600
20
427.810294
11
215.308394
21
427.832593
0
LINE
8
Design
10
215.308394
20
427.832593
11
215.289672
21
427.857087
0
LINE
8
Design
10
215.289672
20
427.857087
11
215.273653
21
427.883610
0
LINE
8
Design
10
215.273653
20
427.883610
11
215.260561
21
427.911993
0
LINE
8
Design
10
215.260561
20
427.911993
11
214.263000
21
427.912000
0
LINE
8
Design
10
214.263000
20
427.912000
11
214.263000
21
426.067000
0
LINE
8
Design
10
214.263000
20
426.067000
11
214.295885
21
426.058910
0
LINE
8
Design
10
214.295885
20
426.058910
11
214.327905
21
426.050708
0
LINE
8
Design
10
214.327905
20
426.050708
11
215.329600
21
427.810294
0
LINE
8
Design
10
215.525557
20
427.894630
11
215.573511
21
427.904312
0
LINE
8
Design
10
215.573511
20
427.904312
11
215.612670
21
427.930714
0
LINE
8
Design
10
215.612670
20
427.930714
11
215.639072
21
427.969873
0
LINE
8
Design
10
215.639072
20
427.969873
11
215.648754
21
428.017827
0
LINE
8
Design
10
215.648754
20
428.017827
11
215.639072
21
428.065781
0
LINE
8
Design
10
215.639072
20
428.065781
11
215.612670
21
428.104940
0
LINE
8
Design
10
215.612670
20
428.104940
11
215.573511
21
428.131342
0
LINE
8
Design
10
215.573511
20
428.131342
11
215.525557
21
428.141024
0
LINE
8
Design
10
215.525557
20
428.141024
11
215.477603
21
428.131342
0
LINE
8
Design
10
215.477603
20
428.131342
11
215.438444
21
428.104941
0
LINE
8
Design
10
215.438444
20
428.104941
11
215.412042
21
428.065781
0
LINE
8
Design
10
215.412042
20
428.065781
11
215.402360
21
428.017827
0
LINE
8
Design
10
215.402360
20
428.017827
11
215.412042
21
427.969873
0
LINE
8
Design
10
215.412042
20
427.969873
11
215.438444
21
427.930714
0
LINE
8
Design
10
215.438444
20
427.930714
11
215.477603
21
427.904312
0
LINE
8
Design
10
215.477603
20
427.904312
11
215.525557
21
427.894630
0
LINE
8
Design
10
214.139797
20
428.475060
11
214.187751
21
428.484742
0
LINE
8
Design
10
214.187751
20
428.484742
11
214.226910
21
428.511144
0
LINE
8
Design
10
214.226910
20
428.511144
11
214.253313
21
428.550303
0
LINE
8
Design
10
214.253313
20
428.550303
11
214.262994
21
428.598257
0
LINE
8
Design
10
214.262994
20
428.598257
11
214.253313
21
428.646211
0
LINE
8
Design
10
214.253313
20
428.646211
11
214.226911
21
428.685371
0
LINE
8
Design
10
214.226911
20
428.685371
11
214.187751
21
428.711773
0
LINE
8
Design
10
214.187751
20
428.711773
11
214.139797
21
428.721454
0
LINE
8
Design
10
214.139797
20
428.721454
11
214.091844
21
428.711773
0
LINE
8
Design
10
214.091844
20
428.711773
11
214.052684
21
428.685371
0
LINE
8
Design
10
214.052684
20
428.685371
11
214.026282
21
428.646211
0
LINE
8
Design
10
214.026282
20
428.646211
11
214.016600
21
428.598257
0
LINE
8
Design
10
214.016600
20
428.598257
11
214.026282
21
428.550303
0
LINE
8
Design
10
214.026282
20
428.550303
11
214.052684
21
428.511144
0
LINE
8
Design
10
214.052684
20
428.511144
11
214.091843
21
428.484742
0
LINE
8
Design
10
214.091843
20
428.484742
11
214.139797
21
428.475060
 0 
ENDSEC
 0 
EOF