<?xml version="1.0" encoding="UTF-8" standalone="no"?>
<!-- Created with Inkscape (http://www.inkscape.org/) -->

<svg
   version="1.1"
   id="svg2"
   xml:space="preserve"
   width="10.703444mm"
   height="15.000048mm"
   viewBox="0 0 40.453964 56.693092"
   sodipodi:docname="icon-only.svg"
   inkscape:version="1.1.1 (3bf5ae0d25, 2021-09-20)"
   xmlns:inkscape="http://www.inkscape.org/namespaces/inkscape"
   xmlns:sodipodi="http://sodipodi.sourceforge.net/DTD/sodipodi-0.dtd"
   xmlns="http://www.w3.org/2000/svg"
   xmlns:svg="http://www.w3.org/2000/svg"><defs
     id="defs6"><clipPath
       clipPathUnits="userSpaceOnUse"
       id="clipPath48"><path
         d="M 0,500 H 500 V 0 H 0 Z"
         id="path46" /></clipPath></defs><sodipodi:namedview
     id="namedview4"
     pagecolor="#ffffff"
     bordercolor="#666666"
     borderopacity="1.0"
     inkscape:pageshadow="2"
     inkscape:pageopacity="0.0"
     inkscape:pagecheckerboard="0"
     showgrid="false"
     inkscape:zoom="8"
     inkscape:cx="-5.0625"
     inkscape:cy="18.6875"
     inkscape:window-width="1920"
     inkscape:window-height="1017"
     inkscape:window-x="1912"
     inkscape:window-y="-8"
     inkscape:window-maximized="1"
     inkscape:current-layer="g8"
     inkscape:document-units="mm"
     units="mm" /><g
     id="g8"
     inkscape:groupmode="layer"
     inkscape:label="Design"
     transform="matrix(1.3333333,0,0,-1.3333333,-278.55955,575.9626)"><path
       id="path704-7"
       style="fill:none;fill-opacity:1;fill-rule:nonzero;stroke:#000000;stroke-width:0.377953;stroke-miterlimit:4;stroke-dasharray:none;stroke-opacity:1"
       d="M 6.2832031,0 C 6.0128364,0.004 5.7133746,0.04110881 5.3900244,0.11896594 5.0666741,0.19682308 4.7194356,0.31542855 4.3535156,0.48242188 4.2085006,0.54979687 4.0746234,0.62519994 3.9513654,0.70557134 3.8281074,0.78594273 3.7154685,0.87128246 3.6129303,0.95853075 3.5103921,1.045779 3.4179545,1.1349359 3.335099,1.2229416 3.2522434,1.3109473 3.1789698,1.3978017 3.1147597,1.4804453 2.9863394,1.6457324 2.894173,1.7941758 2.8341116,1.9012974 2.7740501,2.008419 2.7460938,2.0742188 2.7460938,2.0742188 2.6299271,2.1450788 2.5324152,2.232806 2.4521929,2.3266921 2.3719706,2.4205782 2.309038,2.5206231 2.26203,2.6161184 2.215022,2.7116134 2.183938,2.8025595 2.167415,2.8782473 2.150891,2.9539353 2.148927,3.0143648 2.160155,3.0488281 c 0.022067,0.070733 0.031411,0.1280522 0.035205,0.168081 0.00379,0.040029 0.00204,0.062768 0.0019,0.064341 0,0 -0.2764327,0.2197648 -0.6287603,0.5415613 C 1.2161732,4.1446078 0.7879506,4.568436 0.4843706,4.9765626 0.4526373,5.0176296 0.4230217,5.0589176 0.3951512,5.0998128 c -0.0278705,0.040895 -0.053996,0.081397 -0.0787494,0.1208904 -0.0094,0.015267 -0.0189386,0.030704 -0.0281938,0.046325 -0.009255,0.015621 -0.0182271,0.031425 -0.0264937,0.047425 v 9.75e-4 9.75e-4 c -0.002667,0.00467 -0.005273,0.00952 -0.007862,0.014447 -0.00259,0.00492 -0.005163,0.00992 -0.007763,0.01485 C 0.18324764,5.4704852 0.13387742,5.6057805 0.0963761,5.7495011 0.05887477,5.8932218 0.03324235,6.0453677 0.01787627,6.203854 0.00251019,6.3623404 -0.00258954,6.527167 9.7452359e-4,6.6962491 0.00453859,6.8653312 0.01676645,7.0386686 0.03605557,7.2141765 c 0.01928912,0.1755079 0.04563948,0.3531862 0.07744854,0.5309499 0.0318091,0.1777637 0.0690768,0.3556129 0.11020075,0.5314625 0.0411239,0.1758497 0.086104,0.3496998 0.13333766,0.5194654 0.0472337,0.1697656 0.096721,0.3354467 0.14685928,0.4949584 0.052275,0.1661183 0.10805229,0.3125881 0.1656395,0.4417259 0.0575872,0.1291379 0.11698436,0.2409437 0.17649905,0.3377344 0.0595147,0.09679 0.11914695,0.178565 0.17720435,0.247641 0.058058,0.06908 0.1145401,0.125454 0.1677555,0.171449 0.053215,0.04599 0.1031635,0.08161 0.1481521,0.109154 0.044989,0.02755 0.085018,0.04703 0.1183951,0.06076 0.033377,0.01373 0.060103,0.02171 0.078484,0.02626 0.018381,0.0045 0.028418,0.0057 0.028418,0.0057 0.036787,-0.04085 0.068093,-0.0807 0.094958,-0.120774 0.026865,-0.04007 0.049291,-0.08036 0.068316,-0.122083 0.019025,-0.04172 0.034651,-0.08489 0.047917,-0.130701 0.013266,-0.04581 0.024172,-0.09428 0.03376,-0.146627 0.00959,-0.05234 0.017856,-0.108556 0.025846,-0.16986 0.00799,-0.061305 0.015702,-0.1276992 0.024175,-0.2004022 0.00847,-0.072703 0.017709,-0.1517143 0.028747,-0.2382519 0.011038,-0.086538 0.023879,-0.1806016 0.039562,-0.2834099 0.00515,-0.033622 0.010924,-0.067607 0.01728,-0.1018965 0.00636,-0.034289 0.013297,-0.068881 0.02078,-0.1037164 0.021059,-0.1100333 0.054638,-0.2150201 0.080912,-0.3184212 0.010377,-0.035743 0.021175,-0.071546 0.032354,-0.1073485 0.011179,-0.035802 0.02274,-0.071604 0.034642,-0.1073446 0.011902,-0.03574 0.024144,-0.071419 0.036688,-0.1069759 1.388e-4,-3.325e-4 3.037e-4,-6.725e-4 4.863e-4,-0.00102 1.826e-4,-3.481e-4 3.828e-4,-7.044e-4 5.918e-4,-0.00107 2.091e-4,-3.65e-4 4.271e-4,-7.387e-4 6.453e-4,-0.00112 2.182e-4,-3.831e-4 4.366e-4,-7.756e-4 6.466e-4,-0.00118 2.099e-4,-4.024e-4 4.112e-4,-8.148e-4 5.949e-4,-0.00124 1.837e-4,-4.236e-4 3.5e-4,-8.583e-4 4.9e-4,-0.00131 1.4e-4,-4.469e-4 2.538e-4,-9.06e-4 3.326e-4,-0.00138 7.87e-5,-4.723e-4 1.225e-4,-9.58e-4 1.225e-4,-0.00146 v -2.437e-4 -2.438e-4 -2.438e-4 -2.437e-4 -2.438e-4 -2.437e-4 -2.438e-4 -2.437e-4 c 0.025936,-0.07251 0.053031,-0.1444383 0.080989,-0.2152325 0.027958,-0.070794 0.056778,-0.1404541 0.086166,-0.2084275 0.029387,-0.067973 0.059341,-0.1342602 0.089566,-0.1983079 0.030225,-0.064048 0.06072,-0.1258565 0.091189,-0.1848738 0.030469,-0.059017 0.060914,-0.1152431 0.091036,-0.168125 0.030122,-0.052882 0.059923,-0.10242 0.089106,-0.1480617 0.029183,-0.045642 0.057748,-0.087387 0.085399,-0.1246837 0.027651,-0.037297 0.054388,-0.070144 0.079914,-0.097991 C 2.9130995,7.004531 2.9743865,6.9341104 3.0315363,6.8657212 3.0886861,6.7973319 3.1416987,6.730974 3.1905898,6.6674628 3.2394809,6.6039516 3.2842505,6.543287 3.3249144,6.4862845 3.3655783,6.4292819 3.4021364,6.3759413 3.4346045,6.327078 3.564477,6.1316248 3.6289095,6.0078083 3.6289095,6.0078083 c 0.002,-0.017333 0.00504,-0.043792 0.00874,-0.074173 0.0037,-0.03038 0.00808,-0.064682 0.012742,-0.097702 l 0.00196,9.75e-4 0.00196,9.75e-4 v 0.00196 0.00195 c 0,0 0.099166,-0.031038 0.26203,-0.07854 C 4.0792056,5.7157513 4.3057681,5.6517869 4.5605615,5.5859336 5.0255163,5.4558945 5.5168551,5.3546235 5.9756136,5.2545656 6.1305654,5.2172873 6.2936575,5.17458 6.4609375,5.125 6.5298575,5.1056666 6.5981364,5.0836771 6.6668037,5.0599375 6.735471,5.0361979 6.8045267,5.0107084 6.875,4.984375 6.9098666,4.9704417 6.944506,4.9577005 6.9797203,4.9445594 7.0149346,4.9314182 7.0507239,4.9178771 7.0878906,4.9023438 7.1963172,4.8574104 7.3048883,4.8087154 7.4128778,4.7565387 7.5208672,4.704362 7.628275,4.6487037 7.734375,4.5898438 c 0.052667,-0.0294 0.121145,-0.070855 0.1888484,-0.113286 0.067703,-0.04243 0.1346318,-0.085836 0.1841985,-0.1191359 0.028666,-0.020933 0.058757,-0.041717 0.088852,-0.0625 0.030095,-0.020783 0.060196,-0.041567 0.088882,-0.0625 0.086733,-0.06892 0.1717485,-0.1394047 0.2548285,-0.2135694 0.08308,-0.074165 0.1642251,-0.1520094 0.2432184,-0.2356494 0.088287,-0.094487 0.1777292,-0.179298 0.266785,-0.2542344 0.089056,-0.074936 0.177725,-0.1399977 0.264465,-0.1949843 0.219277,-0.1488171 0.4916019,-0.2229279 0.7759662,-0.2770589 0.056,-0.00303 0.110827,-0.00259 0.163487,0.00361 0.184496,-4.615e-4 0.375034,0.090067 0.525634,0.1607589 0.117995,0.062955 0.230374,0.1419853 0.335694,0.2318186 0.146374,0.1378533 0.276612,0.2919907 0.384971,0.4637465 0.10836,0.1717558 0.194841,0.3611299 0.253701,0.5694566 0.08829,0.309 0.116046,0.651335 0.09338,1.019292 -0.02266,0.3679571 -0.09575,0.7615362 -0.20916,1.1730246 C 11.52472,7.090121 11.370993,7.5195185 11.187052,7.9591122 10.942331,8.5665079 10.648543,9.1083908 10.383865,9.589622 10.285948,9.7530959 10.15062,9.9759648 9.988574,10.234845 9.82653,10.49373 9.6377681,10.788624 9.4329831,11.096144 9.2281981,11.403664 9.0073898,11.72381 8.7812532,12.0332 8.5481466,12.35227 8.266507,12.727579 7.9724354,13.143762 c -0.2940716,0.416183 -0.6005753,0.87324 -0.8834103,1.355804 -0.282835,0.482565 -0.5420012,0.990637 -0.7413978,1.508851 -0.1993966,0.518215 -0.3390237,1.046571 -0.3827803,1.569705 -6.65e-4,0.007 -6.666e-4,0.01379 -7.449e-4,0.02056 -7.83e-5,0.0068 -2.333e-4,0.01353 -0.00121,0.02046 -0.039466,0.32294 -0.051783,0.660022 -0.026346,1.009303 0.025437,0.349281 0.088627,0.71076 0.2001739,1.082494 v 0.002 0.002 c 0.08984,0.29816 0.2066677,0.581529 0.3471137,0.849601 0.140446,0.268072 0.3045104,0.520847 0.4888237,0.757821 0.2904201,0.37406 0.6186327,0.709756 0.979177,1.004793 0.3605442,0.295036 0.7534202,0.549412 1.1731668,0.760832 0.5244556,0.27943 1.1056678,0.429729 1.6718688,0.58406 0.0046,0.0014 0.0098,0.0026 0.01544,0.0039 0.0056,0.0013 0.01156,0.0025 0.01776,0.0039 0.41239,0.08867 0.818032,0.140465 1.208658,0.164883 0.390627,0.02442 0.766239,0.02147 1.118569,6.48e-4 0.35233,-0.02082 0.681379,-0.0595 0.97888,-0.106533 0.297502,-0.04704 0.563456,-0.102424 0.789596,-0.156658 0.237754,-0.05733 0.481177,-0.04419 0.702141,0.03189 0.220965,0.07608 0.419471,0.215099 0.56739,0.409513 0.08984,0.117328 0.193982,0.244875 0.313144,0.378587 0.119162,0.133712 0.253338,0.27359 0.403231,0.415583 0.149893,0.141992 0.315504,0.286099 0.497534,0.428267 0.18203,0.142169 0.380481,0.282399 0.596053,0.41664 0.215572,0.134241 0.448267,0.262491 0.698787,0.3807 0.25052,0.118209 0.518864,0.226376 0.805737,0.320449 0.286872,0.09407 0.592272,0.174053 0.916902,0.235887 0.32463,0.06183 0.668491,0.105521 1.032284,0.127011 0.129574,0.01467 0.259444,0.01836 0.389398,0.01922 0.129954,8.58e-4 0.259992,-0.0011 0.389899,0.0023 0.01864,0.12125 0.04603,0.239605 0.0815,0.354403 0.03547,0.114799 0.07902,0.226041 0.129993,0.333065 0.05097,0.107025 0.109361,0.209832 0.174509,0.307761 0.06515,0.09793 0.137051,0.190979 0.215049,0.278489 0.078,0.08751 0.16209,0.169481 0.251613,0.245251 0.08952,0.07577 0.184477,0.145339 0.284199,0.208046 0.09972,0.06271 0.204213,0.118552 0.312808,0.166874 0.108596,0.04832 0.221297,0.08912 0.33744,0.121736 v 8.748047 h -6.044922 c -0.07667,0 -0.149556,0.01387 -0.216639,0.03936 -0.06708,0.02549 -0.128359,0.0626 -0.181799,0.109074 h -0.002 -0.002 c -0.0053,0.0046 -0.0094,0.0097 -0.01335,0.01478 -0.0039,0.005 -0.0076,0.01004 -0.01204,0.01452 l -0.02051,0.02148 -0.02051,0.02148 -1.739258,1.81836 -1.739258,1.818359 0.230469,0.08203 0.230469,0.08203 1.231445,-0.849609 1.231445,-0.84961 0.0957,0.347656 0.0957,0.347657 h 0.148437 0.148437 l 0.549805,-0.900391 0.549805,-0.90039 h 5.480469 v 0.452148 0.452148 c -0.10029,0.05421 -0.192671,0.121501 -0.27483,0.199566 -0.08216,0.07807 -0.154095,0.166908 -0.213496,0.264219 -0.0594,0.09731 -0.106264,0.203094 -0.138278,0.315041 -0.03201,0.111948 -0.04918,0.230061 -0.04918,0.352034 0,0.122363 0.01716,0.240548 0.04918,0.352385 0.03201,0.111836 0.07888,0.217324 0.13828,0.314293 0.0594,0.09697 0.131337,0.185419 0.213496,0.263181 0.08216,0.07776 0.17454,0.144834 0.27483,0.199047 v 12.771484 l -2.088867,0.858398 -2.088868,0.858399 v 0.15625 0.15625 h 2.780274 2.780273 c 0.106094,0 0.195261,-0.05375 0.247257,-0.131893 0.052,-0.07814 0.06682,-0.180683 0.02423,-0.278263 L 25.459851,55.782414 25.240121,55.28145 V 41.890825 c 0.09993,-0.05432 0.192015,-0.121386 0.273923,-0.199068 0.08191,-0.07768 0.153646,-0.165977 0.212891,-0.262744 0.05925,-0.09677 0.105999,-0.202005 0.137941,-0.313576 0.03194,-0.11157 0.04907,-0.229472 0.04907,-0.351565 0,-0.12171 -0.01713,-0.239542 -0.04907,-0.351222 -0.03194,-0.111681 -0.07869,-0.21721 -0.137938,-0.314316 -0.05924,-0.09711 -0.13098,-0.185788 -0.21289,-0.263773 -0.08191,-0.07799 -0.173992,-0.145275 -0.273929,-0.199595 v -0.453125 -0.453125 h 4.835938 c 0.05932,0.09217 0.129685,0.176463 0.209211,0.251057 0.07953,0.07459 0.168212,0.139489 0.264161,0.192862 0.09595,0.05337 0.199163,0.09523 0.307748,0.123735 0.108585,0.02851 0.222541,0.04367 0.339974,0.04367 0.184703,0 0.360551,-0.03742 0.520427,-0.105062 0.159876,-0.06765 0.30378,-0.165519 0.424596,-0.286432 0.120817,-0.120913 0.218545,-0.264866 0.286069,-0.424669 0.06752,-0.159804 0.104845,-0.335458 0.104845,-0.519775 0,-0.159146 -0.02777,-0.311718 -0.07872,-0.453161 -0.05095,-0.141444 -0.12507,-0.271758 -0.217781,-0.386391 -0.09271,-0.114632 -0.204006,-0.213583 -0.329298,-0.292298 -0.125291,-0.07872 -0.264578,-0.137194 -0.413268,-0.170884 l -4.935547,-8.677734 c 0.03906,-0.04381 0.07662,-0.089 0.112582,-0.135506 0.03597,-0.0465 0.07034,-0.09431 0.103041,-0.143342 0.0327,-0.04903 0.06371,-0.09928 0.09296,-0.150677 0.02925,-0.05139 0.05673,-0.103924 0.08235,-0.157511 0.02562,-0.05359 0.04939,-0.108229 0.0712,-0.163843 0.02182,-0.05561 0.04169,-0.112201 0.05952,-0.169675 0.01783,-0.05747 0.03363,-0.115837 0.0473,-0.175004 0.01367,-0.05917 0.02522,-0.11914 0.03455,-0.179833 h 13.291016 c -0.2757,-0.422067 -0.545902,-0.831838 -0.813006,-1.230767 -0.267104,-0.398929 -0.53111,-0.787017 -0.794416,-1.165718 H 22.859243 c -0.13969,0 -0.278617,-0.0049 -0.416576,-0.01465 -0.137958,-0.0097 -0.274948,-0.02424 -0.410763,-0.04343 -0.135814,-0.01919 -0.270454,-0.04304 -0.403713,-0.07144 -0.13326,-0.02839 -0.265138,-0.06133 -0.39543,-0.09867 -0.130291,-0.03734 -0.258995,-0.0791 -0.385907,-0.125139 -0.126912,-0.04604 -0.252031,-0.09636 -0.37515,-0.150833 -0.12312,-0.05447 -0.24424,-0.113102 -0.363156,-0.175755 -0.118915,-0.06265 -0.235625,-0.129331 -0.349925,-0.199905 -0.1143,-0.07057 -0.226188,-0.145045 -0.33546,-0.223283 -0.109271,-0.07824 -0.215925,-0.160245 -0.319756,-0.245891 -0.103831,-0.08564 -0.204839,-0.17493 -0.302818,-0.267725 -0.09798,-0.0928 -0.192928,-0.189101 -0.284642,-0.288789 -0.09171,-0.09969 -0.180194,-0.202758 -0.265232,-0.30908 -0.08504,-0.106323 -0.166634,-0.215899 -0.244583,-0.3286 -0.07795,-0.112701 -0.152251,-0.228527 -0.2227,-0.347348 -0.07045,-0.118822 -0.137044,-0.240639 -0.19958,-0.365324 -0.03227,0.0058 -0.06464,0.0095 -0.09644,0.01254 -0.0318,0.0031 -0.06303,0.0055 -0.09302,0.0089 -0.184703,0 -0.359187,-0.04266 -0.514305,-0.118625 -0.155119,-0.07597 -0.290872,-0.185241 -0.398117,-0.318475 -0.107245,-0.133234 -0.18598,-0.290427 -0.227063,-0.46223 -0.04108,-0.171803 -0.04451,-0.358216 -0.0011,-0.549889 0.0244,-0.1061 0.06415,-0.207276 0.116687,-0.300908 0.05253,-0.09363 0.117852,-0.17972 0.193381,-0.255642 0.07553,-0.07592 0.161271,-0.14168 0.254656,-0.194652 0.09338,-0.05297 0.194411,-0.09316 0.300511,-0.117939 0.192063,-0.04492 0.378671,-0.04215 0.550547,-0.0012 0.171876,0.04097 0.329021,0.120148 0.462157,0.228025 0.133136,0.107877 0.242265,0.244456 0.318109,0.400242 0.07585,0.155786 0.118405,0.330779 0.118405,0.515482 0,0.07357 -0.0072,0.145387 -0.02082,0.214991 -0.01361,0.0696 -0.03364,0.136995 -0.05928,0.201725 -0.02564,0.06473 -0.05689,0.126797 -0.09296,0.18575 -0.03607,0.05895 -0.07695,0.114792 -0.12186,0.167066 l 5e-4,0.0025 5e-4,0.0024 5e-4,0.0024 5e-4,0.0024 c 0.01214,0.05947 0.03988,0.113129 0.07221,0.164943 0.03234,0.05181 0.06927,0.101782 0.0998,0.153871 0.06051,0.103249 0.124978,0.204779 0.192373,0.303137 0.06739,0.09836 0.138,0.19399 0.211632,0.286785 0.07363,0.09279 0.150291,0.182751 0.229793,0.269757 0.0795,0.08701 0.161848,0.171062 0.246854,0.252055 0.08501,0.08099 0.172675,0.158924 0.262819,0.233679 0.09014,0.07475 0.182767,0.146335 0.277684,0.214627 0.09492,0.06829 0.192129,0.133296 0.291452,0.1949 0.09932,0.0616 0.200757,0.119807 0.30412,0.174498 0.103363,0.05469 0.208655,0.105869 0.315692,0.153421 0.107038,0.04755 0.215821,0.09148 0.326166,0.13167 0.110345,0.04019 0.222251,0.07664 0.335538,0.109244 0.113286,0.0326 0.227953,0.06135 0.343815,0.08614 0.115863,0.02479 0.232922,0.04562 0.350994,0.06237 0.118072,0.01675 0.237158,0.02943 0.357074,0.03791 0.119915,0.0085 0.240661,0.01279 0.362055,0.01279 H 38.294784 C 37.986688,23.125726 37.683165,22.704718 37.384096,22.298235 37.085027,21.891752 36.790413,21.499794 36.5,21.121094 H 25.201172 c -0.143077,0 -0.285461,-0.0049 -0.426951,-0.01448 -0.14149,-0.0096 -0.282087,-0.02397 -0.421591,-0.04296 -0.139504,-0.01899 -0.277915,-0.0426 -0.415033,-0.07073 -0.137118,-0.02813 -0.272944,-0.06077 -0.407277,-0.09779 -0.134334,-0.03703 -0.267176,-0.07844 -0.398326,-0.124131 -0.131151,-0.04569 -0.260609,-0.09565 -0.388177,-0.14976 -0.127568,-0.05411 -0.253245,-0.112377 -0.376831,-0.174675 -0.123587,-0.0623 -0.245082,-0.128629 -0.364288,-0.198875 -0.119206,-0.07025 -0.236122,-0.144407 -0.350548,-0.222363 -0.114426,-0.07796 -0.226363,-0.159708 -0.335611,-0.245136 -0.109248,-0.08543 -0.215806,-0.174533 -0.319476,-0.267196 -0.10367,-0.09266 -0.204452,-0.188884 -0.302145,-0.288543 -0.09769,-0.09966 -0.192299,-0.202757 -0.283616,-0.309175 -0.09132,-0.106418 -0.179348,-0.216156 -0.263891,-0.329094 -0.08454,-0.112938 -0.165599,-0.229077 -0.242968,-0.348298 -0.07737,-0.119221 -0.151053,-0.241524 -0.220849,-0.36679 v -0.0039 -0.0039 c -0.06388,0.01189 -0.12723,0.01456 -0.1875,0.02145 -0.182767,0 -0.355949,-0.04182 -0.51047,-0.116442 -0.154522,-0.07462 -0.290384,-0.182033 -0.398512,-0.313212 -0.108128,-0.13118 -0.188522,-0.286125 -0.232107,-0.455807 -0.04359,-0.169682 -0.05036,-0.354101 -0.01125,-0.544227 0.02247,-0.104937 0.06027,-0.20556 0.110851,-0.299162 0.05058,-0.0936 0.113937,-0.180184 0.187504,-0.257036 0.07357,-0.07685 0.157346,-0.143976 0.248774,-0.198663 0.09143,-0.05469 0.190505,-0.09694 0.294668,-0.124045 0.192446,-0.0515 0.381321,-0.0534 0.556382,-0.01554 0.175061,0.03786 0.336308,0.115469 0.473499,0.222995 0.137191,0.107526 0.250326,0.244964 0.329164,0.402473 0.07884,0.157508 0.123377,0.335085 0.123377,0.522888 0,0.07357 -0.0071,0.145503 -0.02051,0.215288 -0.01343,0.06978 -0.03321,0.13742 -0.05861,0.202394 -0.02539,0.06497 -0.0564,0.127286 -0.09229,0.186424 -0.03589,0.05914 -0.07665,0.115102 -0.121556,0.167379 l 5e-4,0.001 5e-4,0.001 5e-4,10e-4 5e-4,0.001 c 0.05561,0.108435 0.114491,0.214503 0.176521,0.318064 0.06203,0.103561 0.127207,0.204617 0.195402,0.303027 0.06819,0.09841 0.139407,0.194176 0.213509,0.287158 0.0741,0.09298 0.151092,0.18318 0.230842,0.270456 0.07975,0.08728 0.16226,0.17163 0.247401,0.252922 0.08514,0.08129 0.172913,0.159525 0.263186,0.234556 0.09027,0.07503 0.183049,0.146864 0.278198,0.215357 0.09515,0.06849 0.192669,0.133649 0.292434,0.195327 0.09977,0.06168 0.201636,0.119949 0.305431,0.174702 0.103795,0.05475 0.209515,0.105987 0.316979,0.15359 0.107464,0.0476 0.216672,0.09158 0.327443,0.131808 0.11077,0.04023 0.223103,0.07672 0.336819,0.109351 0.113716,0.03263 0.228814,0.06141 0.345112,0.08622 0.116299,0.02481 0.233799,0.04565 0.352319,0.06242 0.118521,0.01676 0.238061,0.02945 0.358442,0.03794 0.12038,0.0085 0.2416,0.0128 0.363478,0.0128 h 10.90625 c -0.350051,-0.446857 -0.691779,-0.87338 -1.025376,-1.280349 -0.333596,-0.406968 -0.659061,-0.794381 -0.976581,-1.163014 h -6.455078 c -0.143562,0 -0.286416,-0.0049 -0.428359,-0.01448 -0.141943,-0.0096 -0.282975,-0.02397 -0.422896,-0.04296 -0.139921,-0.01899 -0.27873,-0.0426 -0.416225,-0.07073 -0.137495,-0.02813 -0.273677,-0.06076 -0.408344,-0.09779 -0.134667,-0.03703 -0.26782,-0.07844 -0.399257,-0.124131 -0.131436,-0.04569 -0.261157,-0.09565 -0.38896,-0.14976 -0.127803,-0.05411 -0.253688,-0.112376 -0.377455,-0.174674 -0.123767,-0.0623 -0.245414,-0.12863 -0.364742,-0.198876 -0.119327,-0.07025 -0.236335,-0.144407 -0.35082,-0.222363 -0.114486,-0.07796 -0.226449,-0.159708 -0.33569,-0.245136 -0.109241,-0.08543 -0.215758,-0.174533 -0.319351,-0.267196 -0.103593,-0.09266 -0.204262,-0.188884 -0.301805,-0.288543 -0.09754,-0.09966 -0.19196,-0.202757 -0.283049,-0.309175 -0.09109,-0.106418 -0.178852,-0.216155 -0.263086,-0.329094 -0.08423,-0.112938 -0.164938,-0.229077 -0.241913,-0.348298 -0.07698,-0.119221 -0.150219,-0.241524 -0.219533,-0.36679 l -0.0039,-0.0029 -0.0039,-0.003 c -0.06325,0.01098 -0.125867,0.01194 -0.18555,0.0176 -0.162247,0 -0.316612,-0.0328 -0.456897,-0.09215 -0.140284,-0.05934 -0.266488,-0.14523 -0.372411,-0.251397 -0.105923,-0.106167 -0.191565,-0.232615 -0.250726,-0.373082 -0.05916,-0.140468 -0.09184,-0.294956 -0.09184,-0.457203 0,-0.161083 0.03268,-0.314989 0.09184,-0.455238 0.05916,-0.14025 0.144802,-0.266843 0.250725,-0.373301 0.105922,-0.106458 0.232126,-0.19278 0.372411,-0.252488 0.140285,-0.05971 0.29465,-0.0928 0.456897,-0.0928 0.161856,0 0.316149,0.03309 0.456543,0.0928 0.140395,0.05971 0.266891,0.146031 0.373156,0.252488 0.106265,0.106458 0.192297,0.233051 0.251763,0.373301 0.05947,0.140249 0.09237,0.294155 0.09237,0.455238 0,0.07396 -0.0071,0.146064 -0.02068,0.215861 -0.01355,0.0698 -0.03352,0.137285 -0.0592,0.202015 -0.05137,0.12946 -0.125584,0.247883 -0.216998,0.351656 l 0.002,0.0059 0.002,0.0059 c 0.0605,0.10939 0.12446,0.216207 0.191692,0.320345 0.06723,0.104139 0.137741,0.205599 0.211348,0.304274 0.07361,0.09868 0.150314,0.194566 0.229944,0.287567 0.07963,0.093 0.162183,0.183112 0.247481,0.270227 0.0853,0.08711 0.173343,0.171235 0.263956,0.252253 0.09061,0.08102 0.183795,0.158935 0.27937,0.233645 0.09558,0.07471 0.193542,0.146212 0.293725,0.214402 0.100183,0.06819 0.202582,0.133067 0.30702,0.194525 0.104438,0.06146 0.210914,0.119499 0.319253,0.174015 0.108339,0.05452 0.21854,0.105509 0.330426,0.152871 0.111886,0.04736 0.225458,0.09109 0.340539,0.131091 0.115081,0.04 0.231671,0.07626 0.349593,0.108679 0.117921,0.03242 0.237175,0.061 0.357584,0.08563 0.120408,0.02463 0.241973,0.04532 0.364515,0.06195 0.122543,0.01663 0.246065,0.02921 0.370387,0.03764 0.124323,0.0084 0.249448,0.01268 0.375198,0.01268 h 5.753907 c -1.06797,-1.187977 -2.028225,-2.150739 -2.867873,-2.926646 -0.839649,-0.775907 -1.558692,-1.364959 -2.144238,-1.805514 -1.171093,-0.88111 -1.808202,-1.16823 -1.808202,-1.16823 h -2.5e-4 -2.5e-4 -2.5e-4 -2.5e-4 -2.5e-4 -2.5e-4 -2.5e-4 -2.5e-4 C 26.175115,11.085796 25.941189,10.967139 25.667795,10.848077 25.3944,10.729015 25.081535,10.609548 24.73929,10.496326 24.397045,10.383104 24.02542,10.276125 23.634516,10.182061 23.243612,10.087997 22.833429,10.006846 22.414068,9.9452795 h -0.001 -10e-4 -0.001 -0.001 C 22.130151,9.900743 21.822813,9.8785662 21.522185,9.8658615 21.221557,9.8531568 20.927638,9.849924 20.67456,9.8432755 c -0.245856,0.00435 -0.496988,0.017373 -0.750644,0.041402 -0.253657,0.024029 -0.509837,0.05907 -0.765791,0.1074698 -0.2757,0.051113 -0.5512,0.1175057 -0.823358,0.2019677 -0.272157,0.08446 -0.540971,0.186994 -0.8033,0.310388 -0.131164,0.0617 -0.260707,0.128609 -0.388235,0.201086 -0.127529,0.07248 -0.253043,0.150517 -0.37615,0.234472 -0.246214,0.167909 -0.482799,0.35947 -0.706613,0.577477 -0.219166,0.21452 -0.409542,0.443891 -0.574901,0.68105 -0.165358,0.237158 -0.3057,0.482103 -0.424796,0.727769 -0.119096,0.245667 -0.216949,0.492056 -0.29733,0.732102 -0.08038,0.240047 -0.143291,0.47375 -0.192504,0.694046 -0.09843,0.440591 -0.142058,0.827553 -0.161085,1.104367 -0.01903,0.276813 -0.01345,0.443479 -0.01345,0.443479 h 4.75e-4 4.75e-4 4.75e-4 4.75e-4 5e-4 5e-4 5e-4 5e-4 c -0.01685,0.248597 -0.03374,0.488254 -0.05359,0.717932 -0.01986,0.229677 -0.04268,0.449374 -0.0714,0.65805 -0.02872,0.208675 -0.06332,0.406328 -0.106722,0.591918 -0.04341,0.18559 -0.09562,0.359116 -0.159558,0.519538 -0.06394,0.160422 -0.139602,0.307738 -0.229911,0.440908 -0.09031,0.13317 -0.195263,0.252193 -0.317782,0.356029 -0.122518,0.103835 -0.262601,0.192483 -0.423168,0.2649 -0.160566,0.07242 -0.341617,0.128605 -0.54607,0.167522 -0.157212,0.03001 -0.311218,0.0455 -0.46099,0.04752 -0.149773,0.002 -0.295311,-0.0094 -0.435585,-0.03333 -0.140275,-0.02389 -0.275287,-0.06021 -0.404006,-0.107923 -0.12872,-0.04771 -0.251148,-0.106813 -0.366255,-0.176262 -0.115105,-0.06945 -0.22289,-0.149241 -0.322325,-0.238336 -0.09944,-0.08909 -0.190522,-0.187493 -0.272229,-0.29415 -0.08171,-0.106657 -0.154036,-0.221574 -0.215958,-0.343709 -0.061921,-0.122134 -0.1134352,-0.251486 -0.1535119,-0.387012 -0.042764,-0.180993 -0.059894,-0.356143 -0.057811,-0.52723 0.00208,-0.171086 0.023381,-0.338107 0.057471,-0.502844 0.03409,-0.164736 0.080973,-0.327186 0.1342272,-0.489128 0.053254,-0.161943 0.1128817,-0.323378 0.1724587,-0.486084 0.05708,-0.120176 0.120789,-0.243334 0.188044,-0.36676 0.06726,-0.123426 0.138054,-0.247119 0.209304,-0.368363 0.07125,-0.121245 0.142953,-0.240042 0.212015,-0.353675 0.06906,-0.113633 0.135484,-0.222102 0.196174,-0.322693 0.250336,-0.396801 0.527928,-0.820171 0.816425,-1.265655 0.288497,-0.445484 0.587899,-0.913082 0.881858,-1.398338 0.293959,-0.485256 0.582474,-0.988169 0.849195,-1.504285 0.266722,-0.5161155 0.51165,-1.0454327 0.718436,-1.5834958 0.103393,-0.2690316 0.19725,-0.5402496 0.279528,-0.8130971 0.08228,-0.2728476 0.152977,-0.5473246 0.210052,-0.8228741 0.05708,-0.2755495 0.100528,-0.5521715 0.128314,-0.829309 0.02779,-0.2771375 0.0399,-0.5547905 0.03431,-0.832402 C 14.88488,5.4251243 14.870817,5.2437141 14.850092,5.069706 14.829367,4.895698 14.80198,4.7290922 14.768966,4.5661122 14.735953,4.4031321 14.697312,4.2437779 14.65408,4.0842729 14.610849,3.924768 14.563025,3.7651124 14.511645,3.6015296 14.450365,3.4134115 14.356105,3.2207593 14.290427,3.0599759 14.202915,2.8517827 14.095178,2.6913931 14,2.5117188 13.84124,2.2662221 13.666188,2.0468852 13.48616,1.8523174 13.306132,1.6577495 13.121128,1.4879507 12.942465,1.3415303 12.775373,1.1749308 12.58044,1.0457112 12.379838,0.93098779 12.179236,0.81626435 11.972965,0.71603703 11.783199,0.60742198 l -9.5e-4,-9.765e-4 -9.5e-4,-9.765e-4 -0.001,-9.765e-4 -10e-4,-9.765e-4 h -9.5e-4 -9.5e-4 -0.001 -10e-4 c -0.0395,-0.0186 -0.0793,-0.0369129 -0.119157,-0.0547182 -0.03986,-0.0178053 -0.07978,-0.0351031 -0.119496,-0.051673 -0.218329,-0.10572773 -0.446196,-0.14776828 -0.669541,-0.2217343 -0.03873,-0.008533 -0.07844,-0.0178503 -0.117174,-0.0269672 -0.03873,-0.009117 -0.07649,-0.0180338 -0.111342,-0.0257672 C 10.366857,0.16224935 10.106174,0.12104017 9.8614968,0.09400349 9.6168194,0.06696682 9.3881474,0.05410266 9.1803371,0.05038599 8.9725268,0.04666932 8.7855782,0.05210015 8.6243479,0.06165348 c -0.1612302,0.0095533 -0.296742,0.02322916 -0.4016787,0.0360025 -0.053467,0.006 -0.1001224,0.01276744 -0.1376715,0.01880156 -0.037549,0.006034 -0.065992,0.0113349 -0.083032,0.0144016 -0.00467,0.002 -0.00966,0.001565 -0.014647,0.00158 -0.00499,1.475e-5 -0.00998,4.795e-4 -0.01465,0.004279 -0.081703,0.012 -0.1634122,0.0210376 -0.2431393,0.0267795 -0.079727,0.005742 -0.1574723,0.008188 -0.2312485,0.007005 C 7.3507291,0.16813645 7.2190535,0.15125351 7.1191535,0.11718681 7.0038537,0.07885382 6.8759761,0.04926702 6.7363685,0.02989679 6.5967608,0.01052656 6.4454231,0.00137291 6.2832031,0.00390625 V 0.00195312 Z M 21.714844,13.029297 c -0.06118,0 -0.119602,0.01254 -0.172821,0.03517 -0.05322,0.02263 -0.101236,0.05535 -0.141606,0.09572 -0.04037,0.04037 -0.07309,0.08839 -0.09572,0.141605 -0.02263,0.05322 -0.03516,0.111641 -0.03516,0.172821 0,0.06118 0.01254,0.119602 0.03517,0.172821 0.02263,0.05322 0.05535,0.101237 0.09572,0.141606 0.04037,0.04037 0.08839,0.07309 0.141605,0.09572 0.05322,0.02263 0.111642,0.03516 0.172822,0.03516 0.06118,0 0.119358,-0.01254 0.172211,-0.03517 0.05285,-0.02263 0.100381,-0.05535 0.140262,-0.09572 0.03988,-0.04037 0.07211,-0.08839 0.09438,-0.141605 0.02226,-0.05322 0.03456,-0.111641 0.03456,-0.172821 0,-0.06118 -0.01229,-0.119602 -0.03456,-0.172821 -0.02226,-0.05322 -0.0545,-0.101236 -0.09438,-0.141605 -0.03988,-0.04037 -0.08741,-0.07309 -0.140262,-0.09572 -0.05285,-0.02263 -0.111031,-0.03517 -0.172211,-0.03517 z m -2.664063,3.677734 c 0,0.06118 0.01242,0.119602 0.03486,0.172821 0.02245,0.05322 0.05492,0.101236 0.09505,0.141605 0.04012,0.04037 0.0879,0.07309 0.140934,0.09572 0.05304,0.02263 0.111336,0.03517 0.172516,0.03517 0.06079,0 0.118899,-0.01254 0.171863,-0.03517 0.05296,-0.02263 0.100784,-0.05535 0.141006,-0.09572 0.04022,-0.04037 0.07284,-0.08839 0.09541,-0.141604 0.02257,-0.05322 0.03508,-0.111642 0.03508,-0.172822 0,-0.06118 -0.01251,-0.11948 -0.03518,-0.172423 -0.02266,-0.05294 -0.05548,-0.100527 -0.09609,-0.140277 -0.04061,-0.03975 -0.08902,-0.07167 -0.142865,-0.09327 -0.05384,-0.0216 -0.113125,-0.03289 -0.175484,-0.03139 -0.06236,0.0015 -0.120857,0.01477 -0.173528,0.03753 -0.05267,0.02276 -0.09951,0.05502 -0.138559,0.0945 -0.03905,0.03948 -0.0703,0.08618 -0.09179,0.137825 -0.02149,0.05165 -0.03322,0.10824 -0.03322,0.16751 z m -1.652343,2.78711 c -0.06118,0 -0.119602,0.01254 -0.172822,0.03517 -0.05322,0.02263 -0.101236,0.05535 -0.141605,0.09572 -0.04037,0.04037 -0.07309,0.08838 -0.09572,0.141604 -0.02263,0.05322 -0.03516,0.111643 -0.03516,0.172827 0,0.06118 0.01254,0.11948 0.03517,0.172516 0.02263,0.05304 0.05535,0.100809 0.09572,0.140934 0.04037,0.04013 0.08839,0.0726 0.141605,0.09505 0.05322,0.02245 0.111642,0.03486 0.172822,0.03486 0.06118,0 0.119485,-0.01242 0.172521,-0.03486 0.05304,-0.02245 0.100809,-0.05492 0.140933,-0.09505 0.04012,-0.04013 0.0726,-0.0879 0.09505,-0.140934 0.02245,-0.05304 0.03486,-0.111335 0.03486,-0.172515 0,-0.06118 -0.01242,-0.119607 -0.03486,-0.172827 -0.02245,-0.05322 -0.05492,-0.101236 -0.09504,-0.141604 -0.04012,-0.04037 -0.0879,-0.07309 -0.140933,-0.09572 -0.05304,-0.02263 -0.111337,-0.03516 -0.172521,-0.03516 z M 30.28125,37.03125 c -0.03524,0.0333 -0.06869,0.06846 -0.100187,0.105349 -0.0315,0.03689 -0.06104,0.07551 -0.08845,0.11572 -0.02741,0.04022 -0.0527,0.08203 -0.07568,0.125304 -0.02298,0.04328 -0.04365,0.08802 -0.06185,0.134096 h -4.71289 v -8.714844 c 0.05233,-0.0116 0.104186,-0.02412 0.15536,-0.03822 0.05117,-0.0141 0.15128,-0.02979 0.151278,-0.03875 z m 0.925781,0.398438 c 0.08036,0 0.15692,0.01629 0.226553,0.04574 0.06963,0.02945 0.132342,0.07207 0.185005,0.124733 0.05266,0.05266 0.09528,0.115372 0.124734,0.185005 0.02945,0.06963 0.04574,0.146191 0.04574,0.226553 0,0.08036 -0.01629,0.15692 -0.04574,0.226553 -0.02945,0.06963 -0.07207,0.132341 -0.124733,0.185005 -0.05266,0.05266 -0.115372,0.09528 -0.185005,0.124734 -0.06963,0.02945 -0.146191,0.04574 -0.226553,0.04574 -0.08036,0 -0.156919,-0.01629 -0.226553,-0.04574 -0.06963,-0.02945 -0.132341,-0.07207 -0.185005,-0.124733 -0.05266,-0.05266 -0.09528,-0.115372 -0.124734,-0.185005 -0.02945,-0.06963 -0.04574,-0.146191 -0.04574,-0.226553 0,-0.08036 0.01629,-0.15692 0.04574,-0.226553 0.02945,-0.06963 0.07207,-0.132342 0.124733,-0.185005 0.05266,-0.05266 0.115372,-0.09528 0.185006,-0.124734 0.06963,-0.02945 0.146191,-0.04574 0.226552,-0.04574 z m -6.546875,2.742187 c 0.08036,0 0.156919,0.01629 0.226553,0.04574 0.06963,0.02945 0.132342,0.07207 0.185006,0.124733 0.05266,0.05266 0.09528,0.115372 0.124734,0.185005 0.02945,0.06963 0.04574,0.146191 0.04574,0.226553 0,0.08036 -0.01629,0.15692 -0.04574,0.226553 -0.02945,0.06963 -0.07207,0.132343 -0.124733,0.185006 -0.05266,0.05266 -0.115372,0.09528 -0.185006,0.124734 -0.06963,0.02945 -0.146191,0.04574 -0.226553,0.04574 -0.08036,0 -0.156919,-0.01629 -0.226552,-0.04574 -0.06963,-0.02945 -0.132342,-0.07207 -0.185006,-0.124733 -0.05266,-0.05266 -0.09528,-0.115373 -0.124734,-0.185006 -0.02945,-0.06963 -0.04574,-0.146192 -0.04574,-0.226553 0,-0.08036 0.01629,-0.15692 0.04574,-0.226553 0.02945,-0.06963 0.07207,-0.132341 0.124733,-0.185005 0.05266,-0.05266 0.115372,-0.09528 0.185006,-0.124734 0.06963,-0.02945 0.146191,-0.04574 0.226552,-0.04574 z"
       transform="matrix(0.75000005,0,0,-0.75000005,208.91967,431.97196)"
       sodipodi:nodetypes="cccccccccccccccccccccccccccccccccccccccccccccccccccccccccccccccccccccccccccccccccccccccccccccccccccccccccccccccccccccccccccccccccccccccccccccccccccccccccccccccccccccccccccccccccccccccccccccccccccccccccccccccccccccccccccccccccccccccccccccccccccccccccccccccccccccccccccccccccccccccccccccccccccccccccccccccccccccccccccccccccccccccccccccccccccccccccccccccccccccccccccccccccccccccccccccccccccccccccccccccccccccccccccccccccccccccccccccccccccccccccccccccccccccccccccccccccccccccccccccccccccccccccccccccccccccccccccccccccccccccccccccccccccccccccccccccccccccccccccccccccccccccccccccccccccccccccccccccccccccccccccccccccccccccccccccccc" /></g></svg>
