999
"DXF R12 Output" (www.mydxf.blogspot.com)
 0 
SECTION
 2 
HEADER
 9 
$ACADVER
 1 
AC1009
 9 
$EXTMIN
 10 
 0 
 20 
 0 
 9 
$EXTMAX
 10 
 8.5 
 20 
 11 
 0 
ENDSEC
 0 
SECTION
 2 
ENTITIES
0
LINE
8
Layer 1
10
0.000000
20
-130.444000
11
141.111000
21
-130.444000
0
LINE
8
Layer 1
10
141.111000
20
-130.444000
11
141.111000
21
10.666700
0
LINE
8
Layer 1
10
141.111000
20
10.666700
11
0.000000
21
10.666700
0
LINE
8
Layer 1
10
0.000000
20
10.666700
11
0.000000
21
-130.444000
0
LINE
8
1
10
34.119200
20
10.666400
11
33.516700
21
10.612200
0
LINE
8
1
10
33.516700
20
10.612200
11
32.960400
21
10.449600
0
LINE
8
1
10
32.960400
20
10.449600
11
32.449900
21
10.178900
0
LINE
8
1
10
32.449900
20
10.178900
11
31.984800
21
9.800390
0
LINE
8
1
10
31.984800
20
9.800390
11
31.596700
21
9.345500
0
LINE
8
1
10
31.596700
20
9.345500
11
31.319600
21
8.845400
0
LINE
8
1
10
31.319600
20
8.845400
11
31.153100
21
8.300050
0
LINE
8
1
10
31.153100
20
8.300050
11
31.097800
21
7.709380
0
LINE
8
1
10
31.097800
20
7.709380
11
31.153100
21
7.119250
0
LINE
8
1
10
31.153100
20
7.119250
11
31.319600
21
6.573860
0
LINE
8
1
10
31.319600
20
6.573860
11
31.596700
21
6.073480
0
LINE
8
1
10
31.596700
20
6.073480
11
31.984800
21
5.618400
0
LINE
8
1
10
31.984800
20
5.618400
11
32.449900
21
5.240420
0
LINE
8
1
10
32.449900
20
5.240420
11
32.960400
21
4.970840
0
LINE
8
1
10
32.960400
20
4.970840
11
33.516700
21
4.809350
0
LINE
8
1
10
33.516700
20
4.809350
11
34.119200
21
4.755530
0
LINE
8
1
10
34.119200
20
4.755530
11
34.714700
21
4.809180
0
LINE
8
1
10
34.714700
20
4.809180
11
35.257700
21
4.970160
0
LINE
8
1
10
35.257700
20
4.970160
11
35.748200
21
5.238720
0
LINE
8
1
10
35.748200
20
5.238720
11
36.185900
21
5.615180
0
LINE
8
1
10
36.185900
20
5.615180
11
36.546100
21
6.068820
0
LINE
8
1
10
36.546100
20
6.068820
11
36.803200
21
6.568980
0
LINE
8
1
10
36.803200
20
6.568980
11
36.957300
21
7.115780
0
LINE
8
1
10
36.957300
20
7.115780
11
37.008600
21
7.709380
0
LINE
8
1
10
37.008600
20
7.709380
11
36.958900
21
8.247030
0
LINE
8
1
10
36.958900
20
8.247030
11
33.784500
21
8.247030
0
LINE
8
1
10
33.784500
20
8.247030
11
33.784500
21
7.038140
0
LINE
8
1
10
33.784500
20
7.038140
11
35.345800
21
7.038140
0
LINE
8
1
10
35.345800
20
7.038140
11
35.252100
21
6.862800
0
LINE
8
1
10
35.252100
20
6.862800
11
35.138900
21
6.706390
0
LINE
8
1
10
35.138900
20
6.706390
11
35.006500
21
6.568920
0
LINE
8
1
10
35.006500
20
6.568920
11
34.855000
21
6.450500
0
LINE
8
1
10
34.855000
20
6.450500
11
34.688200
21
6.355170
0
LINE
8
1
10
34.688200
20
6.355170
11
34.509800
21
6.286730
0
LINE
8
1
10
34.509800
20
6.286730
11
34.320200
21
6.245520
0
LINE
8
1
10
34.320200
20
6.245520
11
34.119500
21
6.231670
0
LINE
8
1
10
34.119500
20
6.231670
11
33.837000
21
6.258870
0
LINE
8
1
10
33.837000
20
6.258870
11
33.576800
21
6.340380
0
LINE
8
1
10
33.576800
20
6.340380
11
33.338300
21
6.475700
0
LINE
8
1
10
33.338300
20
6.475700
11
33.121300
21
6.664680
0
LINE
8
1
10
33.121300
20
6.664680
11
32.941500
21
6.892260
0
LINE
8
1
10
32.941500
20
6.892260
11
32.812500
21
7.142030
0
LINE
8
1
10
32.812500
20
7.142030
11
32.735200
21
7.414260
0
LINE
8
1
10
32.735200
20
7.414260
11
32.709200
21
7.709380
0
LINE
8
1
10
32.709200
20
7.709380
11
32.735200
21
8.004910
0
LINE
8
1
10
32.735200
20
8.004910
11
32.812500
21
8.278030
0
LINE
8
1
10
32.812500
20
8.278030
11
32.941500
21
8.528380
0
LINE
8
1
10
32.941500
20
8.528380
11
33.121300
21
8.755690
0
LINE
8
1
10
33.121300
20
8.755690
11
33.338300
21
8.944950
0
LINE
8
1
10
33.338300
20
8.944950
11
33.576800
21
9.079660
0
LINE
8
1
10
33.576800
20
9.079660
11
33.837000
21
9.160240
0
LINE
8
1
10
33.837000
20
9.160240
11
34.119500
21
9.186990
0
LINE
8
1
10
34.119500
20
9.186990
11
34.440100
21
9.153160
0
LINE
8
1
10
34.440100
20
9.153160
11
34.729100
21
9.051360
0
LINE
8
1
10
34.729100
20
9.051360
11
34.986500
21
8.881390
0
LINE
8
1
10
34.986500
20
8.881390
11
35.212300
21
8.642870
0
LINE
8
1
10
35.212300
20
8.642870
11
36.732000
21
9.053350
0
LINE
8
1
10
36.732000
20
9.053350
11
36.517000
21
9.407040
0
LINE
8
1
10
36.517000
20
9.407040
11
36.268100
21
9.721600
0
LINE
8
1
10
36.268100
20
9.721600
11
35.984700
21
9.997020
0
LINE
8
1
10
35.984700
20
9.997020
11
35.666400
21
10.233300
0
LINE
8
1
10
35.666400
20
10.233300
11
35.317800
21
10.422800
0
LINE
8
1
10
35.317800
20
10.422800
11
34.943600
21
10.558100
0
LINE
8
1
10
34.943600
20
10.558100
11
34.544000
21
10.639300
0
LINE
8
1
10
34.544000
20
10.639300
11
34.119500
21
10.666300
0
LINE
8
1
10
34.119500
20
10.666300
11
34.119500
21
10.666300
0
LINE
8
1
10
34.119500
20
10.666300
11
34.119500
21
10.666300
0
LINE
8
1
10
34.119500
20
10.666300
11
34.119500
21
10.666300
0
LINE
8
1
10
34.119500
20
10.666300
11
34.119200
21
10.666400
0
LINE
8
1
10
-0.000001
20
10.531300
11
-0.000001
21
4.889280
0
LINE
8
1
10
-0.000001
20
4.889280
11
1.611300
21
4.889280
0
LINE
8
1
10
1.611300
20
4.889280
11
1.611300
21
7.038200
0
LINE
8
1
10
1.611300
20
7.038200
11
3.357820
21
7.038200
0
LINE
8
1
10
3.357820
20
7.038200
11
3.357820
21
8.380710
0
LINE
8
1
10
3.357820
20
8.380710
11
1.611300
21
8.380710
0
LINE
8
1
10
1.611300
20
8.380710
11
1.611300
21
9.053570
0
LINE
8
1
10
1.611300
20
9.053570
11
3.760240
21
9.053570
0
LINE
8
1
10
3.760240
20
9.053570
11
3.760240
21
10.531300
0
LINE
8
1
10
3.760240
20
10.531300
11
-0.000001
21
10.531300
0
LINE
8
1
10
4.433110
20
10.531300
11
4.433110
21
4.889280
0
LINE
8
1
10
4.433110
20
4.889280
11
8.193360
21
4.889280
0
LINE
8
1
10
8.193360
20
4.889280
11
8.193360
21
6.366960
0
LINE
8
1
10
8.193360
20
6.366960
11
6.044430
21
6.366960
0
LINE
8
1
10
6.044430
20
6.366960
11
6.044430
21
10.531300
0
LINE
8
1
10
6.044430
20
10.531300
11
4.433110
21
10.531300
0
LINE
8
1
10
15.589900
20
10.531300
11
15.050700
21
4.889280
0
LINE
8
1
10
15.050700
20
4.889280
11
16.662000
21
4.889280
0
LINE
8
1
10
16.662000
20
4.889280
11
16.943700
21
7.839850
0
LINE
8
1
10
16.943700
20
7.839850
11
17.878900
21
4.889280
0
LINE
8
1
10
17.878900
20
4.889280
11
19.215000
21
4.889280
0
LINE
8
1
10
19.215000
20
4.889280
11
20.150200
21
7.847900
0
LINE
8
1
10
20.150200
20
7.847900
11
20.441600
21
4.889280
0
LINE
8
1
10
20.441600
20
4.889280
11
22.036800
21
4.889280
0
LINE
8
1
10
22.036800
20
4.889280
11
21.481400
21
10.531300
0
LINE
8
1
10
21.481400
20
10.531300
11
19.887800
21
10.531300
0
LINE
8
1
10
19.887800
20
10.531300
11
18.543700
21
7.171800
0
LINE
8
1
10
18.543700
20
7.171800
11
17.199600
21
10.531300
0
LINE
8
1
10
17.199600
20
10.531300
11
15.589900
21
10.531300
0
LINE
8
1
10
25.119400
20
10.531300
11
25.119400
21
4.889280
0
LINE
8
1
10
25.119400
20
4.889280
11
26.732300
21
4.889280
0
LINE
8
1
10
26.732300
20
4.889280
11
26.732300
21
7.978270
0
LINE
8
1
10
26.732300
20
7.978270
11
28.881200
21
4.889280
0
LINE
8
1
10
28.881200
20
4.889280
11
30.492700
21
4.889280
0
LINE
8
1
10
30.492700
20
4.889280
11
30.492700
21
10.531300
0
LINE
8
1
10
30.492700
20
10.531300
11
28.881200
21
10.531300
0
LINE
8
1
10
28.881200
20
10.531300
11
28.881200
21
7.440620
0
LINE
8
1
10
28.881200
20
7.440620
11
26.732300
21
10.531300
0
LINE
8
1
10
26.732300
20
10.531300
11
25.119400
21
10.531300
0
LINE
8
1
10
22.708000
20
10.529800
11
22.708000
21
4.887720
0
LINE
8
1
10
22.708000
20
4.887720
11
24.319400
21
4.887720
0
LINE
8
1
10
24.319400
20
4.887720
11
24.319400
21
10.529700
0
LINE
8
1
10
24.319400
20
10.529700
11
22.708000
21
10.529800
0
LINE
8
1
10
41.337100
20
3.148390
11
41.142300
21
3.070890
0
LINE
8
1
10
41.142300
20
3.070890
11
40.971600
21
2.962460
0
LINE
8
1
10
40.971600
20
2.962460
11
40.833300
21
2.826380
0
LINE
8
1
10
40.833300
20
2.826380
11
40.734800
21
2.667030
0
LINE
8
1
10
40.734800
20
2.667030
11
40.675800
21
2.484010
0
LINE
8
1
10
40.675800
20
2.484010
11
40.656300
21
2.276800
0
LINE
8
1
10
40.656300
20
2.276800
11
40.664000
21
2.136570
0
LINE
8
1
10
40.664000
20
2.136570
11
40.689400
21
2.010160
0
LINE
8
1
10
40.689400
20
2.010160
11
40.732000
21
1.897580
0
LINE
8
1
10
40.732000
20
1.897580
11
40.792700
21
1.798860
0
LINE
8
1
10
40.792700
20
1.798860
11
40.944200
21
1.638390
0
LINE
8
1
10
40.944200
20
1.638390
11
41.122300
21
1.521970
0
LINE
8
1
10
41.122300
20
1.521970
11
41.343500
21
1.428640
0
LINE
8
1
10
41.343500
20
1.428640
11
41.619800
21
1.335280
0
LINE
8
1
10
41.619800
20
1.335280
11
41.805500
21
1.276410
0
LINE
8
1
10
41.805500
20
1.276410
11
41.943300
21
1.224120
0
LINE
8
1
10
41.943300
20
1.224120
11
42.047700
21
1.167840
0
LINE
8
1
10
42.047700
20
1.167840
11
42.134900
21
1.098470
0
LINE
8
1
10
42.134900
20
1.098470
11
42.193300
21
1.011740
0
LINE
8
1
10
42.193300
20
1.011740
11
42.212200
21
0.905347
0
LINE
8
1
10
42.212200
20
0.905347
11
42.187400
21
0.782919
0
LINE
8
1
10
42.187400
20
0.782919
11
42.114000
21
0.689588
0
LINE
8
1
10
42.114000
20
0.689588
11
41.998000
21
0.631761
0
LINE
8
1
10
41.998000
20
0.631761
11
41.846700
21
0.612372
0
LINE
8
1
10
41.846700
20
0.612372
11
41.696900
21
0.634555
0
LINE
8
1
10
41.696900
20
0.634555
11
41.579500
21
0.702655
0
LINE
8
1
10
41.579500
20
0.702655
11
41.497100
21
0.815374
0
LINE
8
1
10
41.497100
20
0.815374
11
41.457000
21
0.968395
0
LINE
8
1
10
41.457000
20
0.968395
11
40.645600
21
0.968395
0
LINE
8
1
10
40.645600
20
0.968395
11
40.659400
21
0.820144
0
LINE
8
1
10
40.659400
20
0.820144
11
40.693000
21
0.683125
0
LINE
8
1
10
40.693000
20
0.683125
11
40.745500
21
0.557028
0
LINE
8
1
10
40.745500
20
0.557028
11
40.817500
21
0.441853
0
LINE
8
1
10
40.817500
20
0.441853
11
40.905800
21
0.339435
0
LINE
8
1
10
40.905800
20
0.339435
11
41.007400
21
0.250112
0
LINE
8
1
10
41.007400
20
0.250112
11
41.122800
21
0.174138
0
LINE
8
1
10
41.122800
20
0.174138
11
41.252100
21
0.111851
0
LINE
8
1
10
41.252100
20
0.111851
11
41.392400
21
0.063422
0
LINE
8
1
10
41.392400
20
0.063422
11
41.541900
21
0.028652
0
LINE
8
1
10
41.541900
20
0.028652
11
41.700600
21
0.007711
0
LINE
8
1
10
41.700600
20
0.007711
11
41.868500
21
0.000035
0
LINE
8
1
10
41.868500
20
0.000035
11
42.038900
21
0.007711
0
LINE
8
1
10
42.038900
20
0.007711
11
42.197800
21
0.031700
0
LINE
8
1
10
42.197800
20
0.031700
11
42.344900
21
0.071973
0
LINE
8
1
10
42.344900
20
0.071973
11
42.480300
21
0.128418
0
LINE
8
1
10
42.480300
20
0.128418
11
42.602000
21
0.198832
0
LINE
8
1
10
42.602000
20
0.198832
11
42.708100
21
0.280648
0
LINE
8
1
10
42.708100
20
0.280648
11
42.799000
21
0.373697
0
LINE
8
1
10
42.799000
20
0.373697
11
42.874600
21
0.477808
0
LINE
8
1
10
42.874600
20
0.477808
11
42.934200
21
0.589738
0
LINE
8
1
10
42.934200
20
0.589738
11
42.976800
21
0.708158
0
LINE
8
1
10
42.976800
20
0.708158
11
43.002700
21
0.832872
0
LINE
8
1
10
43.002700
20
0.832872
11
43.012000
21
0.963879
0
LINE
8
1
10
43.012000
20
0.963879
11
43.002700
21
1.097990
0
LINE
8
1
10
43.002700
20
1.097990
11
42.977000
21
1.219320
0
LINE
8
1
10
42.977000
20
1.219320
11
42.933600
21
1.328030
0
LINE
8
1
10
42.933600
20
1.328030
11
42.873200
21
1.424300
0
LINE
8
1
10
42.873200
20
1.424300
11
42.800700
21
1.507810
0
LINE
8
1
10
42.800700
20
1.507810
11
42.721600
21
1.580530
0
LINE
8
1
10
42.721600
20
1.580530
11
42.544700
21
1.694640
0
LINE
8
1
10
42.544700
20
1.694640
11
42.326000
21
1.790900
0
LINE
8
1
10
42.326000
20
1.790900
11
42.050500
21
1.891010
0
LINE
8
1
10
42.050500
20
1.891010
11
41.787500
21
1.986510
0
LINE
8
1
10
41.787500
20
1.986510
11
41.604600
21
2.074480
0
LINE
8
1
10
41.604600
20
2.074480
11
41.498200
21
2.175970
0
LINE
8
1
10
41.498200
20
2.175970
11
41.463200
21
2.311150
0
LINE
8
1
10
41.463200
20
2.311150
11
41.483500
21
2.433410
0
LINE
8
1
10
41.483500
20
2.433410
11
41.546700
21
2.523660
0
LINE
8
1
10
41.546700
20
2.523660
11
41.645000
21
2.578250
0
LINE
8
1
10
41.645000
20
2.578250
11
41.770500
21
2.596250
0
LINE
8
1
10
41.770500
20
2.596250
11
41.917000
21
2.575170
0
LINE
8
1
10
41.917000
20
2.575170
11
42.034400
21
2.510880
0
LINE
8
1
10
42.034400
20
2.510880
11
42.113400
21
2.406940
0
LINE
8
1
10
42.113400
20
2.406940
11
42.145600
21
2.270990
0
LINE
8
1
10
42.145600
20
2.270990
11
42.970000
21
2.270990
0
LINE
8
1
10
42.970000
20
2.270990
11
42.940900
21
2.480000
0
LINE
8
1
10
42.940900
20
2.480000
11
42.874900
21
2.664580
0
LINE
8
1
10
42.874900
20
2.664580
11
42.771900
21
2.824990
0
LINE
8
1
10
42.771900
20
2.824990
11
42.631900
21
2.961560
0
LINE
8
1
10
42.631900
20
2.961560
11
42.460900
21
3.069960
0
LINE
8
1
10
42.460900
20
3.069960
11
42.265000
21
3.147460
0
LINE
8
1
10
42.265000
20
3.147460
11
42.044300
21
3.194050
0
LINE
8
1
10
42.044300
20
3.194050
11
41.799300
21
3.209600
0
LINE
8
1
10
41.799300
20
3.209600
11
41.555200
21
3.194050
0
LINE
8
1
10
41.555200
20
3.194050
11
41.335900
21
3.147460
0
LINE
8
1
10
41.335900
20
3.147460
11
41.337100
21
3.148390
0
LINE
8
1
10
28.330900
20
3.200830
11
28.109000
21
3.188520
0
LINE
8
1
10
28.109000
20
3.188520
11
27.899500
21
3.150700
0
LINE
8
1
10
27.899500
20
3.150700
11
27.702000
21
3.087350
0
LINE
8
1
10
27.702000
20
3.087350
11
27.516200
21
2.998140
0
LINE
8
1
10
27.516200
20
2.998140
11
27.346200
21
2.886830
0
LINE
8
1
10
27.346200
20
2.886830
11
27.196300
21
2.755170
0
LINE
8
1
10
27.196300
20
2.755170
11
27.066300
21
2.603390
0
LINE
8
1
10
27.066300
20
2.603390
11
26.956100
21
2.431520
0
LINE
8
1
10
26.956100
20
2.431520
11
26.868100
21
2.243080
0
LINE
8
1
10
26.868100
20
2.243080
11
26.805200
21
2.041850
0
LINE
8
1
10
26.805200
20
2.041850
11
26.767400
21
1.828240
0
LINE
8
1
10
26.767400
20
1.828240
11
26.755100
21
1.602520
0
LINE
8
1
10
26.755100
20
1.602520
11
26.767400
21
1.376600
0
LINE
8
1
10
26.767400
20
1.376600
11
26.805200
21
1.163860
0
LINE
8
1
10
26.805200
20
1.163860
11
26.868100
21
0.963964
0
LINE
8
1
10
26.868100
20
0.963964
11
26.955900
21
0.776738
0
LINE
8
1
10
26.955900
20
0.776738
11
27.066200
21
0.605909
0
LINE
8
1
10
27.066200
20
0.605909
11
27.196100
21
0.455202
0
LINE
8
1
10
27.196100
20
0.455202
11
27.346100
21
0.324477
0
LINE
8
1
10
27.346100
20
0.324477
11
27.516100
21
0.213451
0
LINE
8
1
10
27.516100
20
0.213451
11
27.701900
21
0.123959
0
LINE
8
1
10
27.701900
20
0.123959
11
27.899400
21
0.060148
0
LINE
8
1
10
27.899400
20
0.060148
11
28.108900
21
0.021851
0
LINE
8
1
10
28.108900
20
0.021851
11
28.330600
21
0.009546
0
LINE
8
1
10
28.330600
20
0.009546
11
28.599200
21
0.027834
0
LINE
8
1
10
28.599200
20
0.027834
11
28.848500
21
0.082895
0
LINE
8
1
10
28.848500
20
0.082895
11
29.077600
21
0.174392
0
LINE
8
1
10
29.077600
20
0.174392
11
29.286700
21
0.302464
0
LINE
8
1
10
29.286700
20
0.302464
11
29.468200
21
0.462371
0
LINE
8
1
10
29.468200
20
0.462371
11
29.617200
21
0.649371
0
LINE
8
1
10
29.617200
20
0.649371
11
29.733200
21
0.863352
0
LINE
8
1
10
29.733200
20
0.863352
11
29.816200
21
1.104120
0
LINE
8
1
10
29.816200
20
1.104120
11
29.606500
21
1.104120
0
LINE
8
1
10
29.606500
20
1.104120
11
29.397100
21
1.104120
0
LINE
8
1
10
29.397100
20
1.104120
11
29.187400
21
1.104120
0
LINE
8
1
10
29.187400
20
1.104120
11
28.977700
21
1.104120
0
LINE
8
1
10
28.977700
20
1.104120
11
28.925800
21
1.011380
0
LINE
8
1
10
28.925800
20
1.011380
11
28.864300
21
0.930493
0
LINE
8
1
10
28.864300
20
0.930493
11
28.792900
21
0.861433
0
LINE
8
1
10
28.792900
20
0.861433
11
28.712100
21
0.804706
0
LINE
8
1
10
28.712100
20
0.804706
11
28.623000
21
0.759635
0
LINE
8
1
10
28.623000
20
0.759635
11
28.528400
21
0.727518
0
LINE
8
1
10
28.528400
20
0.727518
11
28.427700
21
0.708130
0
LINE
8
1
10
28.427700
20
0.708130
11
28.321000
21
0.702006
0
LINE
8
1
10
28.321000
20
0.702006
11
28.153100
21
0.717387
0
LINE
8
1
10
28.153100
20
0.717387
11
28.002000
21
0.763671
0
LINE
8
1
10
28.002000
20
0.763671
11
27.867600
21
0.840718
0
LINE
8
1
10
27.867600
20
0.840718
11
27.749600
21
0.948357
0
LINE
8
1
10
27.749600
20
0.948357
11
27.654400
21
1.081370
0
LINE
8
1
10
27.654400
20
1.081370
11
27.586400
21
1.234700
0
LINE
8
1
10
27.586400
20
1.234700
11
27.545700
21
1.408690
0
LINE
8
1
10
27.545700
20
1.408690
11
27.531900
21
1.603540
0
LINE
8
1
10
27.531900
20
1.603540
11
27.545700
21
1.798580
0
LINE
8
1
10
27.545700
20
1.798580
11
27.586400
21
1.972820
0
LINE
8
1
10
27.586400
20
1.972820
11
27.654400
21
2.126300
0
LINE
8
1
10
27.654400
20
2.126300
11
27.749600
21
2.258710
0
LINE
8
1
10
27.749600
20
2.258710
11
27.867600
21
2.366350
0
LINE
8
1
10
27.867600
20
2.366350
11
28.002000
21
2.443400
0
LINE
8
1
10
28.002000
20
2.443400
11
28.153100
21
2.489680
0
LINE
8
1
10
28.153100
20
2.489680
11
28.321000
21
2.505070
0
LINE
8
1
10
28.321000
20
2.505070
11
28.427700
21
2.498940
0
LINE
8
1
10
28.427700
20
2.498940
11
28.528400
21
2.479860
0
LINE
8
1
10
28.528400
20
2.479860
11
28.623000
21
2.448170
0
LINE
8
1
10
28.623000
20
2.448170
11
28.712100
21
2.403890
0
LINE
8
1
10
28.712100
20
2.403890
11
28.792900
21
2.346370
0
LINE
8
1
10
28.792900
20
2.346370
11
28.864300
21
2.277170
0
LINE
8
1
10
28.864300
20
2.277170
11
28.925800
21
2.196430
0
LINE
8
1
10
28.925800
20
2.196430
11
28.977700
21
2.104480
0
LINE
8
1
10
28.977700
20
2.104480
11
29.187400
21
2.104480
0
LINE
8
1
10
29.187400
20
2.104480
11
29.397100
21
2.104480
0
LINE
8
1
10
29.397100
20
2.104480
11
29.606500
21
2.104480
0
LINE
8
1
10
29.606500
20
2.104480
11
29.816200
21
2.104480
0
LINE
8
1
10
29.816200
20
2.104480
11
29.733200
21
2.345330
0
LINE
8
1
10
29.733200
20
2.345330
11
29.617200
21
2.559530
0
LINE
8
1
10
29.617200
20
2.559530
11
29.468200
21
2.747040
0
LINE
8
1
10
29.468200
20
2.747040
11
29.286700
21
2.907710
0
LINE
8
1
10
29.286700
20
2.907710
11
29.077600
21
3.036570
0
LINE
8
1
10
29.077600
20
3.036570
11
28.848500
21
3.128690
0
LINE
8
1
10
28.848500
20
3.128690
11
28.599200
21
3.183890
0
LINE
8
1
10
28.599200
20
3.183890
11
28.330600
21
3.202320
0
LINE
8
1
10
28.330600
20
3.202320
11
28.330900
21
3.200830
0
LINE
8
1
10
7.840830
20
3.165470
11
7.840830
21
0.031390
0
LINE
8
1
10
7.840830
20
0.031390
11
9.761210
21
0.031390
0
LINE
8
1
10
9.761210
20
0.031390
11
9.761210
21
0.643078
0
LINE
8
1
10
9.761210
20
0.643078
11
8.603850
21
0.643078
0
LINE
8
1
10
8.603850
20
0.643078
11
8.603850
21
1.330400
0
LINE
8
1
10
8.603850
20
1.330400
11
9.627610
21
1.330400
0
LINE
8
1
10
9.627610
20
1.330400
11
9.627610
21
1.919570
0
LINE
8
1
10
9.627610
20
1.919570
11
8.603850
21
1.919570
0
LINE
8
1
10
8.603850
20
1.919570
11
8.603850
21
2.553780
0
LINE
8
1
10
8.603850
20
2.553780
11
9.761210
21
2.553780
0
LINE
8
1
10
9.761210
20
2.553780
11
9.761210
21
3.165470
0
LINE
8
1
10
9.761210
20
3.165470
11
7.840830
21
3.165470
0
LINE
8
1
10
14.036600
20
3.165470
11
15.148900
21
0.031390
0
LINE
8
1
10
15.148900
20
0.031390
11
16.103400
21
0.031390
0
LINE
8
1
10
16.103400
20
0.031390
11
17.215700
21
3.165470
0
LINE
8
1
10
17.215700
20
3.165470
11
16.407700
21
3.165470
0
LINE
8
1
10
16.407700
20
3.165470
11
15.625400
21
0.799231
0
LINE
8
1
10
15.625400
20
0.799231
11
14.849500
21
3.165490
0
LINE
8
1
10
14.849500
20
3.165490
11
14.036600
21
3.165470
0
LINE
8
1
10
21.550700
20
3.165470
11
21.550700
21
0.031390
0
LINE
8
1
10
21.550700
20
0.031390
11
22.313700
21
0.031390
0
LINE
8
1
10
22.313700
20
0.031390
11
22.313700
21
3.165470
0
LINE
8
1
10
22.313700
20
3.165470
11
21.550700
21
3.165470
0
LINE
8
1
10
34.302700
20
3.165470
11
34.302700
21
0.031390
0
LINE
8
1
10
34.302700
20
0.031390
11
36.223200
21
0.031390
0
LINE
8
1
10
36.223200
20
0.031390
11
36.223200
21
0.643078
0
LINE
8
1
10
36.223200
20
0.643078
11
35.065800
21
0.643078
0
LINE
8
1
10
35.065800
20
0.643078
11
35.065800
21
1.330400
0
LINE
8
1
10
35.065800
20
1.330400
11
36.089400
21
1.330400
0
LINE
8
1
10
36.089400
20
1.330400
11
36.089400
21
1.919570
0
LINE
8
1
10
36.089400
20
1.919570
11
35.065800
21
1.919570
0
LINE
8
1
10
35.065800
20
1.919570
11
35.065800
21
2.553780
0
LINE
8
1
10
35.065800
20
2.553780
11
36.223200
21
2.553780
0
LINE
8
1
10
36.223200
20
2.553780
11
36.223200
21
3.165470
0
LINE
8
1
10
36.223200
20
3.165470
11
34.302700
21
3.165470
0
LINE
8
1
10
40.501700
20
10.666700
11
39.887000
21
10.612400
0
LINE
8
1
10
39.887000
20
10.612400
11
39.318300
21
10.449800
0
LINE
8
1
10
39.318300
20
10.449800
11
38.795600
21
10.179100
0
LINE
8
1
10
38.795600
20
10.179100
11
38.319000
21
9.800650
0
LINE
8
1
10
38.319000
20
9.800650
11
37.922200
21
9.345750
0
LINE
8
1
10
37.922200
20
9.345750
11
37.638500
21
8.845640
0
LINE
8
1
10
37.638500
20
8.845640
11
37.468100
21
8.300300
0
LINE
8
1
10
37.468100
20
8.300300
11
37.411100
21
7.709660
0
LINE
8
1
10
37.411100
20
7.709660
11
37.468100
21
7.119250
0
LINE
8
1
10
37.468100
20
7.119250
11
37.638500
21
6.574450
0
LINE
8
1
10
37.638500
20
6.574450
11
37.922200
21
6.074920
0
LINE
8
1
10
37.922200
20
6.074920
11
38.319000
21
5.620260
0
LINE
8
1
10
38.319000
20
5.620260
11
38.795600
21
5.241740
0
LINE
8
1
10
38.795600
20
5.241740
11
39.318300
21
4.971090
0
LINE
8
1
10
39.318300
20
4.971090
11
39.887000
21
4.808510
0
LINE
8
1
10
39.887000
20
4.808510
11
40.501700
21
4.754230
0
LINE
8
1
10
40.501700
20
4.754230
11
41.116400
21
4.808510
0
LINE
8
1
10
41.116400
20
4.808510
11
41.685000
21
4.971090
0
LINE
8
1
10
41.685000
20
4.971090
11
42.207700
21
5.241740
0
LINE
8
1
10
42.207700
20
5.241740
11
42.684400
21
5.620260
0
LINE
8
1
10
42.684400
20
5.620260
11
43.080900
21
6.074920
0
LINE
8
1
10
43.080900
20
6.074920
11
43.364000
21
6.574450
0
LINE
8
1
10
43.364000
20
6.574450
11
43.533900
21
7.119250
0
LINE
8
1
10
43.533900
20
7.119250
11
43.590900
21
7.709660
0
LINE
8
1
10
43.590900
20
7.709660
11
43.533900
21
8.300300
0
LINE
8
1
10
43.533900
20
8.300300
11
43.364000
21
8.845640
0
LINE
8
1
10
43.364000
20
8.845640
11
43.080900
21
9.345750
0
LINE
8
1
10
43.080900
20
9.345750
11
42.684400
21
9.800650
0
LINE
8
1
10
42.684400
20
9.800650
11
42.207700
21
10.179100
0
LINE
8
1
10
42.207700
20
10.179100
11
41.685000
21
10.449800
0
LINE
8
1
10
41.685000
20
10.449800
11
41.116400
21
10.612400
0
LINE
8
1
10
41.116400
20
10.612400
11
40.501700
21
10.666700
0
LINE
8
1
10
40.501700
20
10.666700
11
40.501700
21
10.666700
0
LINE
8
1
10
40.501700
20
9.189000
11
40.796900
21
9.161790
0
LINE
8
1
10
40.796900
20
9.161790
11
41.068900
21
9.080290
0
LINE
8
1
10
41.068900
20
9.080290
11
41.318700
21
8.944970
0
LINE
8
1
10
41.318700
20
8.944970
11
41.546500
21
8.755980
0
LINE
8
1
10
41.546500
20
8.755980
11
41.735300
21
8.528150
0
LINE
8
1
10
41.735300
20
8.528150
11
41.870700
21
8.277840
0
LINE
8
1
10
41.870700
20
8.277840
11
41.952300
21
8.005040
0
LINE
8
1
10
41.952300
20
8.005040
11
41.979400
21
7.709690
0
LINE
8
1
10
41.979400
20
7.709690
11
41.952300
21
7.414570
0
LINE
8
1
10
41.952300
20
7.414570
11
41.870700
21
7.142310
0
LINE
8
1
10
41.870700
20
7.142310
11
41.735300
21
6.892570
0
LINE
8
1
10
41.735300
20
6.892570
11
41.546500
21
6.664990
0
LINE
8
1
10
41.546500
20
6.664990
11
41.318700
21
6.475480
0
LINE
8
1
10
41.318700
20
6.475480
11
41.068900
21
6.340150
0
LINE
8
1
10
41.068900
20
6.340150
11
40.796900
21
6.258960
0
LINE
8
1
10
40.796900
20
6.258960
11
40.501700
21
6.231890
0
LINE
8
1
10
40.501700
20
6.231890
11
40.206200
21
6.258960
0
LINE
8
1
10
40.206200
20
6.258960
11
39.933600
21
6.340150
0
LINE
8
1
10
39.933600
20
6.340150
11
39.683200
21
6.475480
0
LINE
8
1
10
39.683200
20
6.475480
11
39.455500
21
6.664990
0
LINE
8
1
10
39.455500
20
6.664990
11
39.266100
21
6.892570
0
LINE
8
1
10
39.266100
20
6.892570
11
39.131500
21
7.142310
0
LINE
8
1
10
39.131500
20
7.142310
11
39.050800
21
7.414570
0
LINE
8
1
10
39.050800
20
7.414570
11
39.024000
21
7.709690
0
LINE
8
1
10
39.024000
20
7.709690
11
39.050800
21
8.005040
0
LINE
8
1
10
39.050800
20
8.005040
11
39.131500
21
8.277840
0
LINE
8
1
10
39.131500
20
8.277840
11
39.266100
21
8.528150
0
LINE
8
1
10
39.266100
20
8.528150
11
39.455500
21
8.755980
0
LINE
8
1
10
39.455500
20
8.755980
11
39.683200
21
8.944970
0
LINE
8
1
10
39.683200
20
8.944970
11
39.933600
21
9.080290
0
LINE
8
1
10
39.933600
20
9.080290
11
40.206200
21
9.161790
0
LINE
8
1
10
40.206200
20
9.161790
11
40.501700
21
9.189000
0
LINE
8
1
10
40.501700
20
9.189000
11
40.501700
21
9.189000
0
LINE
8
1
10
10.931500
20
10.531500
11
8.597410
21
4.889470
0
LINE
8
1
10
8.597410
20
4.889470
11
10.232900
21
4.889470
0
LINE
8
1
10
10.232900
20
4.889470
11
10.595000
21
5.829560
0
LINE
8
1
10
10.595000
20
5.829560
11
12.777800
21
5.829560
0
LINE
8
1
10
12.777800
20
5.829560
11
13.140000
21
4.889470
0
LINE
8
1
10
13.140000
20
4.889470
11
14.664400
21
4.889470
0
LINE
8
1
10
14.664400
20
4.889470
11
12.441400
21
10.531500
0
LINE
8
1
10
12.441400
20
10.531500
11
10.931500
21
10.531500
0
LINE
8
1
10
11.692900
20
8.652970
11
12.312600
21
7.038450
0
LINE
8
1
10
12.312600
20
7.038450
11
11.071500
21
7.038450
0
LINE
8
1
10
11.071500
20
7.038450
11
11.692900
21
8.652970
0
LINE
8
1
10
0.577881
20
3.165490
11
0.577881
21
0.031418
0
LINE
8
1
10
0.577881
20
0.031418
11
1.751350
21
0.031418
0
LINE
8
1
10
1.751350
20
0.031418
11
1.989630
21
0.043723
0
LINE
8
1
10
1.989630
20
0.043723
11
2.213100
21
0.080779
0
LINE
8
1
10
2.213100
20
0.080779
11
2.421790
21
0.142134
0
LINE
8
1
10
2.421790
20
0.142134
11
2.615770
21
0.227647
0
LINE
8
1
10
2.615770
20
0.227647
11
2.791610
21
0.336048
0
LINE
8
1
10
2.791610
20
0.336048
11
2.946090
21
0.464600
0
LINE
8
1
10
2.946090
20
0.464600
11
3.079440
21
0.613021
0
LINE
8
1
10
3.079440
20
0.613021
11
3.191990
21
0.781282
0
LINE
8
1
10
3.191990
20
0.781282
11
3.280720
21
0.966476
0
LINE
8
1
10
3.280720
20
0.966476
11
3.344080
21
1.164030
0
LINE
8
1
10
3.344080
20
1.164030
11
3.382200
21
1.374230
0
LINE
8
1
10
3.382200
20
1.374230
11
3.394510
21
1.597410
0
LINE
8
1
10
3.394510
20
1.597410
11
3.382200
21
1.823080
0
LINE
8
1
10
3.382200
20
1.823080
11
3.344220
21
2.035080
0
LINE
8
1
10
3.344220
20
2.035080
11
3.280890
21
2.233460
0
LINE
8
1
10
3.280890
20
2.233460
11
3.192160
21
2.418370
0
LINE
8
1
10
3.192160
20
2.418370
11
3.079720
21
2.585530
0
LINE
8
1
10
3.079720
20
2.585530
11
2.946880
21
2.732710
0
LINE
8
1
10
2.946880
20
2.732710
11
2.793390
21
2.859880
0
LINE
8
1
10
2.793390
20
2.859880
11
2.619100
21
2.967200
0
LINE
8
1
10
2.619100
20
2.967200
11
2.425510
21
3.053480
0
LINE
8
1
10
2.425510
20
3.053480
11
2.216240
21
3.115460
0
LINE
8
1
10
2.216240
20
3.115460
11
1.991490
21
3.152680
0
LINE
8
1
10
1.991490
20
3.152680
11
1.751470
21
3.164990
0
LINE
8
1
10
1.751470
20
3.164990
11
0.577881
21
3.165490
0
LINE
8
1
10
1.340880
20
2.513590
11
1.703060
21
2.513590
0
LINE
8
1
10
1.703060
20
2.513590
11
1.907620
21
2.498180
0
LINE
8
1
10
1.907620
20
2.498180
11
2.088120
21
2.453280
0
LINE
8
1
10
2.088120
20
2.453280
11
2.244700
21
2.378400
0
LINE
8
1
10
2.244700
20
2.378400
11
2.377570
21
2.273360
0
LINE
8
1
10
2.377570
20
2.273360
11
2.483360
21
2.140350
0
LINE
8
1
10
2.483360
20
2.140350
11
2.558710
21
1.983210
0
LINE
8
1
10
2.558710
20
1.983210
11
2.603930
21
1.802140
0
LINE
8
1
10
2.603930
20
1.802140
11
2.619320
21
1.597350
0
LINE
8
1
10
2.619320
20
1.597350
11
2.603930
21
1.393530
0
LINE
8
1
10
2.603930
20
1.393530
11
2.558710
21
1.213760
0
LINE
8
1
10
2.558710
20
1.213760
11
2.483210
21
1.058370
0
LINE
8
1
10
2.483210
20
1.058370
11
2.377410
21
0.927642
0
LINE
8
1
10
2.377410
20
0.927642
11
2.244550
21
0.824462
0
LINE
8
1
10
2.244550
20
0.824462
11
2.087950
21
0.751112
0
LINE
8
1
10
2.087950
20
0.751112
11
1.907450
21
0.707283
0
LINE
8
1
10
1.907450
20
0.707283
11
1.702890
21
0.693454
0
LINE
8
1
10
1.702890
20
0.693454
11
1.340720
21
0.693454
0
LINE
8
1
10
1.340720
20
0.693454
11
1.340880
21
2.513590
 0 
ENDSEC
 0 
EOF