<?xml version="1.0" encoding="UTF-8" standalone="no"?>
<!-- Created with Inkscape (http://www.inkscape.org/) -->

<svg
   version="1.1"
   id="svg2"
   xml:space="preserve"
   width="154.45554"
   height="37.795265"
   viewBox="0 0 154.45554 37.795264"
   sodipodi:docname="text-only.svg"
   inkscape:version="1.1.1 (3bf5ae0d25, 2021-09-20)"
   xmlns:inkscape="http://www.inkscape.org/namespaces/inkscape"
   xmlns:sodipodi="http://sodipodi.sourceforge.net/DTD/sodipodi-0.dtd"
   xmlns="http://www.w3.org/2000/svg"
   xmlns:svg="http://www.w3.org/2000/svg"><defs
     id="defs6"><clipPath
       clipPathUnits="userSpaceOnUse"
       id="clipPath48"><path
         d="M 0,500 H 500 V 0 H 0 Z"
         id="path46" /></clipPath></defs><sodipodi:namedview
     id="namedview4"
     pagecolor="#ffffff"
     bordercolor="#666666"
     borderopacity="1.0"
     inkscape:pageshadow="2"
     inkscape:pageopacity="0.0"
     inkscape:pagecheckerboard="0"
     showgrid="false"
     inkscape:zoom="8"
     inkscape:cx="85.4375"
     inkscape:cy="22.3125"
     inkscape:window-width="1920"
     inkscape:window-height="1017"
     inkscape:window-x="1912"
     inkscape:window-y="-8"
     inkscape:window-maximized="1"
     inkscape:current-layer="layer1"
     inkscape:document-units="mm" /><g
     inkscape:groupmode="layer"
     id="layer1"
     inkscape:label="1"><path
       id="path108894"
       style="fill:#ef1d1d;fill-opacity:1;fill-rule:nonzero;stroke:none;stroke-width:4.43056"
       d="m 120.89487,9.2309493e-4 c -0.73876,0 -1.45016,0.0642669951 -2.13437,0.19234669507 -0.68416,0.128 -1.34112,0.3203866 -1.97112,0.5761066 -0.62999,0.25609331 -1.23296,0.57561331 -1.80917,0.95905331 -0.57616,0.3836 -1.12558,0.8305067 -1.64839,1.3411733 -0.52417,0.51056 -0.98231,1.0478667 -1.37517,1.6118266 -0.39287,0.564 -0.72018,1.1546 -0.98204,1.7720133 -0.2621,0.6173467 -0.45826,1.2614667 -0.58914,1.93232 -0.1308,0.6708666 -0.19616,1.36848 -0.19616,2.0929061 0,0.723267 0.0653,1.420347 0.19616,2.090987 0.1308,0.67064 0.32748,1.314853 0.58914,1.932533 0.26208,0.617627 0.58917,1.20872 0.98204,1.773054 0.39286,0.564293 0.85126,1.101866 1.37517,1.61248 0.52255,0.51056 1.07223,0.956986 1.64839,1.33932 0.57621,0.38252 1.17918,0.700666 1.80917,0.955186 0.63,0.254467 1.28696,0.445174 1.97112,0.572187 0.68421,0.126933 1.39561,0.190707 2.13437,0.190707 0.73439,0 1.43772,-0.0632 2.11006,-0.19016 0.67233,-0.1264 1.31361,-0.316587 1.92388,-0.570334 0.61026,-0.25392 1.18953,-0.570773 1.7378,-0.95164 0.54826,-0.38088 1.06552,-0.825453 1.55177,-1.33388 0.48604,-0.508373 0.91153,-1.04416 1.27596,-1.6074 0.36452,-0.5632 0.66797,-1.153906 0.91072,-1.772186 0.24301,-0.618227 0.425,-1.264027 0.54603,-1.937494 0.12146,-0.673426 0.18198,-1.374533 0.18198,-2.10336 0,-0.154213 -0.14712,-1.7410795 -0.17654,-1.9050261 h -11.24766 v 4.2834401 h 5.53259 c -0.0997,0.217946 -0.21087,0.42556 -0.33292,0.62128 -0.122,0.19616 -0.25609,0.380866 -0.40049,0.554253 -0.14494,0.173267 -0.30132,0.335653 -0.4686,0.48712 -0.16783,0.150933 -0.34655,0.290973 -0.53726,0.41956 -0.1907,0.128667 -0.38796,0.241387 -0.59169,0.33784 -0.20379,0.09693 -0.41465,0.177627 -0.63184,0.242467 -0.21741,0.0648 -0.44136,0.113866 -0.67168,0.146026 -0.23049,0.03267 -0.46752,0.04907 -0.71135,0.04907 -0.34654,0 -0.68013,-0.03267 -1.00052,-0.0964 -0.32038,-0.06427 -0.6277,-0.1602 -0.9221,-0.288787 -0.29424,-0.128 -0.57606,-0.288253 -0.8449,-0.479506 -0.26917,-0.1918 -0.52526,-0.414654 -0.76877,-0.669654 -0.24248,-0.256093 -0.45499,-0.524733 -0.63747,-0.806373 -0.18253,-0.281707 -0.33456,-0.57676 -0.45661,-0.884947 -0.122,-0.308413 -0.2136,-0.629666 -0.27463,-0.964666 -0.0611,-0.335107 -0.0915,-0.683454 -0.0915,-1.045694 0,-0.362346 0.0327,-0.7112795 0.0915,-1.0471461 0.0611,-0.3356534 0.15258,-0.6584934 0.27463,-0.96772 0.122,-0.3089467 0.27408,-0.6049333 0.45661,-0.8870667 0.18254,-0.2822533 0.39504,-0.5506666 0.63747,-0.8054533 0.24356,-0.2560933 0.49965,-0.4794933 0.76877,-0.6705866 0.26863,-0.1912534 0.55044,-0.35036 0.8449,-0.47732 0.29424,-0.1269333 0.60172,-0.2223067 0.9221,-0.28552 0.32039,-0.0632 0.65382,-0.0948 1.00052,-0.0948 0.39776,0 0.77651,0.038133 1.13658,0.1198667 0.36016,0.080133 0.70142,0.1999733 1.0241,0.36072 0.32258,0.1601866 0.62662,0.3612533 0.91198,0.6022533 0.28552,0.2413866 0.55202,0.5225466 0.80016,0.8451733 l 5.38421,-1.4544666 c -0.23375,-0.4408 -0.48712,-0.8585734 -0.76131,-1.2532267 -0.27408,-0.3944933 -0.56793,-0.76616 -0.88233,-1.1146133 -0.3144,-0.3481866 -0.64923,-0.6736933 -1.00449,-0.9758933 -0.35527,-0.3024133 -0.73112,-0.5811733 -1.1277,-0.8370533 -0.39666,-0.2560933 -0.80833,-0.4794933 -1.23525,-0.67150671 -0.42719,-0.1918 -0.86892,-0.3514533 -1.32587,-0.4794933 -0.45714,-0.128 -0.92892,-0.2234133 -1.41565,-0.2877066 -0.48659,-0.063733 -0.98827,-0.095867 -1.50443,-0.095867 v 0 0 0 z M -3.404845e-6,0.47988309 V 20.471243 H 5.7093431 V 12.856869 H 11.89781 V 8.0999762 H 5.7093431 V 5.7158296 H 13.323716 V 0.47988309 Z m 15.707866404845,0 V 20.471243 h 13.323773 v -5.23596 H 21.417263 V 0.47988309 Z m 39.532146,0 -1.910747,19.99135991 h 5.709346 l 0.998174,-10.4548 3.313813,10.4548 h 4.734067 L 71.398488,9.9878828 72.430821,20.471243 h 5.652347 L 76.115381,0.47988309 H 70.468795 L 65.706195,12.383469 60.943635,0.47988309 Z m 33.765692,0 V 20.471243 h 5.715067 V 9.5259362 l 7.614372,10.9453068 h 5.7094 V 0.47988309 h -5.7094 V 11.430963 L 94.720768,0.47988309 Z m -8.544106,0.00533 V 20.476683 h 5.709399 V 0.48532309 Z M 146.47009,26.639709 c -0.24411,0.07307 -0.4746,0.164547 -0.6902,0.274613 -0.21578,0.109467 -0.41739,0.237574 -0.6045,0.384147 -0.18744,0.14712 -0.3509,0.307867 -0.4904,0.482227 -0.14004,0.17436 -0.25609,0.362346 -0.34926,0.5646 -0.0932,0.20216 -0.16239,0.41848 -0.2087,0.648533 -0.0436,0.23048 -0.0692,0.475133 -0.0692,0.734173 0,0.173814 0.0107,0.339454 0.0272,0.496934 0.0217,0.157466 0.0491,0.306773 0.0899,0.447893 0.0381,0.14112 0.0904,0.27408 0.15148,0.398853 0.0611,0.1248 0.13187,0.241387 0.21413,0.349814 0.16402,0.214693 0.34328,0.404853 0.5378,0.568586 0.19507,0.164014 0.4054,0.301867 0.63115,0.41248 0.22831,0.110667 0.48931,0.22068 0.78321,0.330747 0.2937,0.11 0.62035,0.220133 0.97922,0.330747 0.24792,0.07307 0.46696,0.14276 0.658,0.20868 0.1907,0.066 0.35362,0.127466 0.48821,0.185266 0.13293,0.05773 0.25609,0.1248 0.36943,0.199427 0.11333,0.07467 0.21632,0.156933 0.3095,0.245747 0.0927,0.09093 0.16128,0.19288 0.20651,0.307306 0.0436,0.113867 0.0671,0.23976 0.0671,0.377067 0,0.161827 -0.0272,0.306227 -0.0877,0.43372 -0.0583,0.127467 -0.14493,0.237573 -0.26045,0.330747 -0.11493,0.09107 -0.25228,0.159106 -0.41029,0.20488 -0.15803,0.0436 -0.3373,0.06867 -0.53672,0.06867 -0.19507,0 -0.37215,-0.0272 -0.53018,-0.07853 -0.15801,-0.05453 -0.2975,-0.1324 -0.41682,-0.241373 -0.122,-0.1084 -0.21906,-0.241934 -0.29152,-0.3994 -0.0724,-0.156934 -0.11987,-0.338374 -0.14222,-0.54216 h -2.87464 c 0.005,0.18144 0.0217,0.356346 0.0491,0.525266 0.0272,0.16836 0.0676,0.3302 0.11827,0.485494 0.0491,0.155293 0.1128,0.30404 0.18634,0.4468 0.0736,0.142213 0.15856,0.27844 0.255,0.40812 0.0964,0.128533 0.20052,0.24956 0.31278,0.362893 0.11226,0.113333 0.23266,0.21904 0.3607,0.316573 0.128,0.09747 0.26427,0.18744 0.40867,0.269173 0.14439,0.08173 0.29696,0.155294 0.45771,0.22068 0.16073,0.06533 0.32637,0.122534 0.49746,0.17164 0.1711,0.04907 0.34764,0.08987 0.52963,0.1232 0.182,0.03267 0.36944,0.0572 0.56216,0.07413 0.19289,0.0164 0.39123,0.0272 0.59491,0.0272 0.20814,0 0.40976,-0.01067 0.60405,-0.0272 0.19453,-0.0164 0.38197,-0.04907 0.56271,-0.08493 0.1809,-0.03813 0.35417,-0.0856 0.52145,-0.14276 0.16673,-0.0572 0.32639,-0.123733 0.47949,-0.199973 0.15312,-0.07627 0.29643,-0.15964 0.43102,-0.249546 0.13458,-0.08987 0.2599,-0.18636 0.37596,-0.28988 0.11613,-0.102934 0.22341,-0.213054 0.32202,-0.329654 0.0987,-0.116666 0.18799,-0.239213 0.26864,-0.368893 0.0796,-0.128533 0.14984,-0.261 0.21032,-0.39668 0.0605,-0.136213 0.1112,-0.275707 0.15148,-0.41956 0.0381,-0.14384 0.0713,-0.29096 0.0921,-0.441893 0.0217,-0.150934 0.0327,-0.30568 0.0327,-0.46424 0,-0.166187 -0.0107,-0.32476 -0.0327,-0.475147 -0.0217,-0.150933 -0.0491,-0.294227 -0.0915,-0.429907 -0.0381,-0.13568 -0.0921,-0.264266 -0.15312,-0.38524 -0.0616,-0.120933 -0.13293,-0.234293 -0.21468,-0.341093 -0.0817,-0.1052 -0.16783,-0.203787 -0.25719,-0.295867 -0.0893,-0.09213 -0.18253,-0.178186 -0.27952,-0.257733 -0.19398,-0.159107 -0.40268,-0.293693 -0.62668,-0.404307 -0.22612,-0.110666 -0.4844,-0.22504 -0.7758,-0.341093 -0.29152,-0.116667 -0.61632,-0.234853 -0.97518,-0.35472 -0.35908,-0.1172 -0.66966,-0.229947 -0.93284,-0.338373 -0.26318,-0.1084 -0.4784,-0.21196 -0.64711,-0.31168 -0.16836,-0.09973 -0.29368,-0.219587 -0.37705,-0.359614 -0.0833,-0.14004 -0.1248,-0.299693 -0.1248,-0.47896 0,-0.164013 0.0217,-0.307853 0.0719,-0.433186 0.0491,-0.125334 0.12254,-0.231574 0.2245,-0.31984 0.0997,-0.08667 0.21577,-0.150387 0.34817,-0.19344 0.1324,-0.0436 0.28063,-0.06373 0.44463,-0.06373 0.19072,0 0.36344,0.0272 0.51928,0.07467 0.15584,0.04907 0.29424,0.125867 0.41629,0.22776 0.122,0.104 0.21413,0.226667 0.27952,0.368333 0.0648,0.14168 0.1024,0.301867 0.1144,0.48168 h 2.92025 c -0.0107,-0.261546 -0.0436,-0.508373 -0.1024,-0.740546 -0.0561,-0.232667 -0.13404,-0.45008 -0.23376,-0.654027 -0.0997,-0.203787 -0.22176,-0.392867 -0.36506,-0.568427 -0.14331,-0.175453 -0.30895,-0.336733 -0.49639,-0.483853 -0.18689,-0.146027 -0.38905,-0.27408 -0.60559,-0.384147 -0.21632,-0.109466 -0.44789,-0.201053 -0.6939,-0.274613 -0.2463,-0.07307 -0.50675,-0.128 -0.78224,-0.165107 -0.27516,-0.03813 -0.56483,-0.05507 -0.86832,-0.05507 -0.30351,0 -0.5917,0.0164 -0.86507,0.05507 -0.27353,0.03813 -0.5318,0.0916 -0.77635,0.165107 z m -46.08558,-0.185813 c -0.26917,0 -0.530716,0.0164 -0.785556,0.0436 -0.254467,0.0272 -0.50184,0.07413 -0.74224,0.13404 -0.240293,0.06 -0.473507,0.134586 -0.699853,0.224493 -0.22612,0.08987 -0.44572,0.195613 -0.65844,0.316027 -0.212507,0.119333 -0.41356,0.251186 -0.602307,0.394493 -0.18908,0.143307 -0.366173,0.299147 -0.531266,0.466427 -0.165107,0.16728 -0.31876,0.346546 -0.460427,0.5378 -0.141667,0.191253 -0.271893,0.393946 -0.39068,0.609013 -0.1188,0.21468 -0.22232,0.437547 -0.31168,0.667707 -0.0888,0.229933 -0.163467,0.468053 -0.222853,0.712973 -0.05933,0.2452 -0.104134,0.49748 -0.13404,0.75696 -0.0272,0.25936 -0.0436,0.52636 -0.0436,0.799773 0,0.274627 0.0164,0.541614 0.0436,0.800494 0.0272,0.258813 0.07467,0.510013 0.13404,0.75384 0.05933,0.243573 0.13404,0.479506 0.222853,0.708253 0.0888,0.228293 0.192893,0.44952 0.311133,0.663387 0.1188,0.2136 0.248467,0.415746 0.39068,0.605373 0.141667,0.189613 0.295334,0.367787 0.460427,0.533987 0.165107,0.166186 0.342187,0.320386 0.531267,0.463146 0.189066,0.14276 0.389586,0.27408 0.602359,0.3934 0.212507,0.120933 0.432094,0.226133 0.658387,0.317133 0.226133,0.0904 0.45988,0.166187 0.699907,0.22612 0.240293,0.06053 0.487666,0.105734 0.74224,0.13568 0.254466,0.03267 0.516549,0.0436 0.785509,0.0436 0.3291,0 0.6465,-0.02173 0.95245,-0.0648 0.30568,-0.0436 0.60024,-0.1084 0.88277,-0.195066 0.28279,-0.08667 0.55332,-0.19452 0.8122,-0.3242 0.25882,-0.129733 0.50566,-0.281173 0.74055,-0.453893 0.23376,-0.172734 0.44844,-0.3618 0.64335,-0.566574 0.19506,-0.20488 0.37106,-0.425546 0.52745,-0.662573 0.15637,-0.237027 0.29369,-0.489853 0.41139,-0.75816 0.11773,-0.268627 0.21577,-0.552947 0.29424,-0.85312 h -0.74291 -0.74289 -0.74295 -0.74289 c -0.0556,0.116 -0.11654,0.225587 -0.18363,0.32856 -0.0671,0.1024 -0.14004,0.198347 -0.21849,0.286613 -0.0785,0.0888 -0.16292,0.17 -0.25283,0.244654 -0.0899,0.07413 -0.18527,0.14112 -0.28607,0.201066 -0.10186,0.06107 -0.20705,0.1144 -0.31549,0.15964 -0.1084,0.0436 -0.22067,0.08387 -0.33564,0.113867 -0.11547,0.03267 -0.23431,0.05453 -0.35636,0.06867 -0.12253,0.0164 -0.24847,0.02173 -0.37815,0.02173 -0.20814,0 -0.406476,-0.0164 -0.594849,-0.05453 -0.188534,-0.03813 -0.366707,-0.09093 -0.535614,-0.164014 -0.168373,-0.07307 -0.32748,-0.164013 -0.47624,-0.272986 -0.148746,-0.108934 -0.28824,-0.235934 -0.41792,-0.381414 -0.128533,-0.144946 -0.24084,-0.302413 -0.33728,-0.471333 -0.0964,-0.168907 -0.176546,-0.35036 -0.24084,-0.543253 -0.06427,-0.193427 -0.112266,-0.398854 -0.1444,-0.61648 -0.03267,-0.217947 -0.04907,-0.447894 -0.04907,-0.690414 0,-0.24248 0.0164,-0.47296 0.04907,-0.69108 0.03267,-0.21796 0.08013,-0.42392 0.1444,-0.617466 0.06427,-0.193427 0.144387,-0.37488 0.24084,-0.543787 0.0964,-0.16892 0.208694,-0.325293 0.33728,-0.469147 0.129734,-0.144946 0.269174,-0.27244 0.41792,-0.381426 0.149307,-0.108934 0.307867,-0.199974 0.47624,-0.272987 0.168907,-0.07307 0.34708,-0.127467 0.535614,-0.164 0.188533,-0.03813 0.386869,-0.05453 0.594849,-0.05453 0.12974,0 0.25555,0.0053 0.37815,0.02173 0.12253,0.0164 0.24139,0.03813 0.35636,0.0676 0.11547,0.03267 0.22721,0.0676 0.33564,0.112267 0.1084,0.0436 0.2136,0.09747 0.31549,0.15692 0.1008,0.06107 0.19616,0.128533 0.28607,0.203786 0.0899,0.07467 0.17381,0.156934 0.25283,0.2452 0.0784,0.0888 0.15148,0.184174 0.21849,0.286067 0.0671,0.101867 0.12867,0.210867 0.18363,0.32584 h 0.74289 0.74289 0.74295 0.74291 c -0.0784,-0.30024 -0.17655,-0.584667 -0.29424,-0.8534 -0.11774,-0.268627 -0.25502,-0.522 -0.41139,-0.759027 -0.15639,-0.237026 -0.33239,-0.458786 -0.52745,-0.664373 -0.19507,-0.205427 -0.40975,-0.395587 -0.64335,-0.569293 -0.23484,-0.173827 -0.48168,-0.32584 -0.7406,-0.456614 -0.25883,-0.130266 -0.52963,-0.2392 -0.81215,-0.326386 -0.2828,-0.0872 -0.57688,-0.152027 -0.88282,-0.195614 -0.30568,-0.0436 -0.6234,-0.06533 -0.9524,-0.06533 z m -72.601967,0.125333 v 11.105 h 6.804453 v -2.167387 h -4.100907 v -2.435466 h 3.627507 v -2.08756 h -3.627507 v -2.247214 h 4.100907 v -2.167373 z m 21.953426,0 3.9412,11.105 h 3.382306 l 3.9412,-11.105 h -2.863253 l -2.771933,8.384227 -2.749214,-8.3844 z m 26.624719,0 v 11.105 h 2.703493 v -11.105 z m 45.184442,0 v 11.105 h 6.80446 v -2.167387 h -4.10096 v -2.435466 h 3.62756 v -2.08756 h -3.62756 v -2.247214 h 4.10096 V 26.579229 Z M 143.50995,3.0949276e-6 c -0.7532,0 -1.4792,0.064266995072 -2.17796,0.1923466950724 -0.69876,0.128 -1.37033,0.3203866 -2.01481,0.5761066 -0.64444,0.25609331 -1.26173,0.57566671 -1.85196,0.95910661 -0.59021,0.3835867 -1.15335,0.8305067 -1.68947,1.34112 -0.53506,0.51056 -1.0035,1.04792 -1.40541,1.6118666 -0.40212,0.56396 -0.73712,1.1546133 -1.00548,1.7720267 -0.26863,0.6173466 -0.46968,1.2614533 -0.60427,1.9323199 -0.13458,0.6708667 -0.20161,1.36848 -0.20161,2.0928398 0,0.724427 0.0671,1.421667 0.20161,2.091973 0.13459,0.67032 0.33619,1.31372 0.60427,1.93036 0.26863,0.616707 0.60357,1.206654 1.00548,1.770054 0.40212,0.563413 0.87045,1.100346 1.40541,1.61096 0.53618,0.510546 1.09926,0.957733 1.68947,1.341173 0.59023,0.3836 1.20752,0.703173 1.85196,0.959053 0.64448,0.256094 1.31605,0.447894 2.01481,0.576107 0.69876,0.128 1.42476,0.192333 2.17796,0.192333 0.75319,0 1.47914,-0.06427 2.1779,-0.192333 0.69881,-0.128 1.37038,-0.3204 2.01482,-0.576107 0.64443,-0.256093 1.26174,-0.575613 1.852,-0.959053 0.59022,-0.3836 1.15336,-0.830507 1.68947,-1.341173 0.53508,-0.51056 1.00319,-1.047547 1.40455,-1.61096 0.40158,-0.5634 0.73586,-1.153347 1.00352,-1.770054 0.26753,-0.61664 0.4686,-1.26004 0.60225,-1.93036 0.13404,-0.670306 0.20107,-1.367546 0.20107,-2.091973 0,-0.7243598 -0.0671,-1.4219731 -0.20107,-2.0928398 -0.13404,-0.6708666 -0.33456,-1.3149733 -0.60225,-1.9323199 -0.26755,-0.6174134 -0.60222,-1.2080667 -1.00352,-1.7720267 -0.40158,-0.5639466 -0.86958,-1.1012533 -1.40455,-1.6118666 -0.53616,-0.51056 -1.09925,-0.9577466 -1.68947,-1.34112 -0.59026,-0.3835999 -1.20757,-0.7031733 -1.852,-0.95910661 -0.64444,-0.2560933 -1.31601,-0.4478933 -2.01482,-0.5761066 -0.69876,-0.128 -1.42471,-0.1923466950724 -2.1779,-0.1923466950724 z m 0,5.2359599050724 c 0.36235,0 0.7107,0.032667 1.04563,0.0964 0.33511,0.064267 0.65648,0.1602 0.96467,0.2887866 0.3084,0.128 0.60313,0.28824 0.88494,0.4794933 0.28171,0.1918 0.55055,0.4146667 0.80643,0.6696134 0.255,0.2560933 0.47787,0.5247199 0.6696,0.8072933 0.1918,0.2822533 0.35145,0.5780133 0.47951,0.8869066 0.128,0.30896 0.22449,0.6310933 0.28878,0.9666267 0.0643,0.3356533 0.0964,0.6843731 0.0964,1.0465601 0,0.362346 -0.0327,0.710693 -0.0964,1.045693 -0.0643,0.335093 -0.1602,0.656467 -0.28878,0.964653 -0.128,0.308414 -0.28824,0.60308 -0.47951,0.884894 -0.19179,0.281706 -0.41465,0.55056 -0.6696,0.806426 -0.25609,0.256107 -0.52472,0.479507 -0.80643,0.67152 -0.2817,0.1918 -0.57676,0.351454 -0.88494,0.479494 -0.30842,0.128 -0.62967,0.223413 -0.96467,0.287706 -0.33511,0.06373 -0.68344,0.09587 -1.04563,0.09587 -0.36234,0 -0.71108,-0.03267 -1.04656,-0.09587 -0.33565,-0.06373 -0.65773,-0.159653 -0.96662,-0.287706 -0.30895,-0.128 -0.60455,-0.287694 -0.88691,-0.479494 -0.28225,-0.1918 -0.55143,-0.415746 -0.80731,-0.67152 -0.25609,-0.256093 -0.47949,-0.52472 -0.67064,-0.806426 -0.19125,-0.281707 -0.35036,-0.576707 -0.47732,-0.884894 -0.12693,-0.3084 -0.2223,-0.629666 -0.28552,-0.964653 -0.0632,-0.335107 -0.0948,-0.683507 -0.0948,-1.045693 0,-0.362347 0.0327,-0.7110668 0.0948,-1.0465601 0.0632,-0.33564 0.15856,-0.65772 0.28552,-0.9666267 0.12694,-0.3089466 0.28607,-0.6045466 0.47732,-0.8869066 0.19126,-0.28224 0.41466,-0.5514133 0.67064,-0.8072933 0.25611,-0.2544667 0.52474,-0.4778667 0.80731,-0.6696134 0.28225,-0.1918 0.57796,-0.3514399 0.88691,-0.4794933 0.30894,-0.128 0.63108,-0.2244933 0.96662,-0.2887866 0.33564,-0.064267 0.68438,-0.0964 1.04656,-0.0964 z M 38.733622,0.47912309 30.463263,20.470469 h 5.794946 l 1.283307,-3.330973 h 7.734199 l 1.283307,3.330973 h 5.401373 L 44.083609,0.47912309 Z m 2.697827,6.65613311 2.19588,5.7207868 H 39.229782 Z M 2.0476099,26.579056 v 11.105066 h 4.1579599 c 0.2904266,0 0.57164,-0.0164 0.8442933,-0.0436 0.2724533,-0.0272 0.53672,-0.07307 0.7918266,-0.131333 0.2550134,-0.05827 0.50184,-0.1308 0.7394667,-0.217414 0.2375733,-0.08667 0.46696,-0.187986 0.68732,-0.302946 0.2201333,-0.116133 0.42828,-0.244653 0.6230666,-0.384147 0.195067,-0.14004 0.377613,-0.292053 0.5474,-0.45552 0.17,-0.163466 0.327467,-0.33892 0.472413,-0.525813 0.14548,-0.186893 0.27788,-0.385787 0.398854,-0.596267 0.119866,-0.211413 0.224493,-0.430466 0.3144,-0.656213 0.08987,-0.22612 0.164546,-0.459333 0.224493,-0.699947 0.06,-0.24084 0.104667,-0.488773 0.13512,-0.744866 0.03267,-0.256094 0.0436,-0.519267 0.0436,-0.790787 0,-0.274627 -0.0164,-0.541067 -0.0436,-0.799613 -0.0272,-0.25828 -0.0752,-0.50892 -0.134587,-0.75112 -0.06,-0.24248 -0.134586,-0.476774 -0.22448,-0.70296 -0.08987,-0.226134 -0.194533,-0.444627 -0.3144,-0.655174 -0.120933,-0.209226 -0.253373,-0.407026 -0.39832,-0.592333 -0.144933,-0.185813 -0.301866,-0.35908 -0.470773,-0.521453 -0.16892,-0.16184 -0.35036,-0.312227 -0.5438,-0.450627 -0.1934266,-0.1384 -0.3994,-0.26536 -0.61756,-0.380333 -0.2196,-0.116 -0.4479066,-0.218494 -0.68596,-0.30568 -0.2381199,-0.08773 -0.4849466,-0.160734 -0.7415333,-0.219587 -0.2560933,-0.0588 -0.522,-0.1024 -0.7963466,-0.131867 -0.2746267,-0.0272 -0.5580133,-0.0436 -0.8504533,-0.0436 z m 2.7035599,2.309986 h 1.2833066 c 0.2560934,0 0.49748,0.0164 0.7248,0.05453 0.2272267,0.03267 0.4402667,0.08827 0.6395867,0.159106 0.19888,0.0708 0.3841466,0.159094 0.5548,0.265347 0.1710933,0.106267 0.32748,0.230493 0.4707866,0.37216 0.14276,0.14276 0.26808,0.300227 0.37488,0.47132 0.1068,0.17164 0.19616,0.356907 0.2669867,0.556827 0.071333,0.199973 0.1248,0.41356 0.1602,0.641546 0.038133,0.22776 0.054533,0.46968 0.054533,0.725667 0,0.255013 -0.0164,0.495307 -0.054533,0.722147 -0.038133,0.226666 -0.0888,0.439173 -0.1602,0.637013 -0.071333,0.1978 -0.1601867,0.381427 -0.2675334,0.550613 -0.1068,0.168907 -0.23212,0.323107 -0.3748799,0.463147 -0.14276,0.139493 -0.2996934,0.261547 -0.4707867,0.365613 -0.1710933,0.104134 -0.3558,0.19072 -0.5548533,0.25992 -0.19888,0.0692 -0.4119333,0.120934 -0.6395867,0.15528 -0.2272133,0.03267 -0.4691333,0.04907 -0.7248,0.04907 H 4.7505698 Z" /></g></svg>
