999
"DXF R12 Output" (www.mydxf.blogspot.com)
 0 
SECTION
 2 
HEADER
 9 
$ACADVER
 1 
AC1009
 9 
$EXTMIN
 10 
 0 
 20 
 0 
 9 
$EXTMAX
 10 
 8.5 
 20 
 11 
 0 
ENDSEC
 0 
SECTION
 2 
ENTITIES
0
LINE
8
Layer 1
10
0.896848
20
0.546914
11
0.891693
21
0.617003
0
LINE
8
Layer 1
10
0.891693
20
0.617003
11
0.876227
21
0.678900
0
LINE
8
Layer 1
10
0.876227
20
0.678900
11
0.850413
21
0.732612
0
LINE
8
Layer 1
10
0.850413
20
0.732612
11
0.814213
21
0.778133
0
LINE
8
Layer 1
10
0.814213
20
0.778133
11
0.768757
21
0.814107
0
LINE
8
Layer 1
10
0.768757
20
0.814107
11
0.715195
21
0.839808
0
LINE
8
Layer 1
10
0.715195
20
0.839808
11
0.653444
21
0.855236
0
LINE
8
Layer 1
10
0.653444
20
0.855236
11
0.583423
21
0.860353
0
LINE
8
Layer 1
10
0.583423
20
0.860353
11
0.552492
21
0.860353
0
LINE
8
Layer 1
10
0.552492
20
0.860353
11
0.521560
21
0.860353
0
LINE
8
Layer 1
10
0.521560
20
0.860353
11
0.490629
21
0.860353
0
LINE
8
Layer 1
10
0.490629
20
0.860353
11
0.459697
21
0.860353
0
LINE
8
Layer 1
10
0.459697
20
0.860353
11
0.459697
21
0.704495
0
LINE
8
Layer 1
10
0.459697
20
0.704495
11
0.459697
21
0.548637
0
LINE
8
Layer 1
10
0.459697
20
0.548637
11
0.459697
21
0.392783
0
LINE
8
Layer 1
10
0.459697
20
0.392783
11
0.459697
21
0.236925
0
LINE
8
Layer 1
10
0.459697
20
0.236925
11
0.490629
21
0.236925
0
LINE
8
Layer 1
10
0.490629
20
0.236925
11
0.521560
21
0.236925
0
LINE
8
Layer 1
10
0.521560
20
0.236925
11
0.552492
21
0.236925
0
LINE
8
Layer 1
10
0.552492
20
0.236925
11
0.583423
21
0.236925
0
LINE
8
Layer 1
10
0.583423
20
0.236925
11
0.653444
21
0.241968
0
LINE
8
Layer 1
10
0.653444
20
0.241968
11
0.715194
21
0.257132
0
LINE
8
Layer 1
10
0.715194
20
0.257132
11
0.768756
21
0.282419
0
LINE
8
Layer 1
10
0.768756
20
0.282419
11
0.814213
21
0.317829
0
LINE
8
Layer 1
10
0.814213
20
0.317829
11
0.850413
21
0.362533
0
LINE
8
Layer 1
10
0.850413
20
0.362533
11
0.876227
21
0.415666
0
LINE
8
Layer 1
10
0.876227
20
0.415666
11
0.891692
21
0.477149
0
LINE
8
Layer 1
10
0.891692
20
0.477149
11
0.896848
21
0.546903
0
LINE
8
Layer 1
10
0.896848
20
0.546903
11
0.896848
21
0.546914
0
LINE
8
Layer 1
10
1.093380
20
0.827800
11
1.123709
21
0.764526
0
LINE
8
Layer 1
10
1.123709
20
0.764526
11
1.145384
21
0.696672
0
LINE
8
Layer 1
10
1.145384
20
0.696672
11
1.158404
21
0.624160
0
LINE
8
Layer 1
10
1.158404
20
0.624160
11
1.162731
21
0.546914
0
LINE
8
Layer 1
10
1.162731
20
0.546914
11
1.158404
21
0.470469
0
LINE
8
Layer 1
10
1.158404
20
0.470469
11
1.145384
21
0.398446
0
LINE
8
Layer 1
10
1.145384
20
0.398446
11
1.123709
21
0.330754
0
LINE
8
Layer 1
10
1.123709
20
0.330754
11
1.093342
21
0.267315
0
LINE
8
Layer 1
10
1.093342
20
0.267315
11
1.054791
21
0.209677
0
LINE
8
Layer 1
10
1.054791
20
0.209677
11
1.009097
21
0.158825
0
LINE
8
Layer 1
10
1.009097
20
0.158825
11
0.956175
21
0.114798
0
LINE
8
Layer 1
10
0.956175
20
0.114798
11
0.895949
21
0.077620
0
LINE
8
Layer 1
10
0.895949
20
0.077620
11
0.829548
21
0.048344
0
LINE
8
Layer 1
10
0.829548
20
0.048344
11
0.758130
21
0.027310
0
LINE
8
Layer 1
10
0.758130
20
0.027310
11
0.681652
21
0.014630
0
LINE
8
Layer 1
10
0.681652
20
0.014630
11
0.600079
21
0.010377
0
LINE
8
Layer 1
10
0.600079
20
0.010377
11
0.198021
21
0.010377
0
LINE
8
Layer 1
10
0.198021
20
0.010377
11
0.198021
21
1.083820
0
LINE
8
Layer 1
10
0.198021
20
1.083820
11
0.600082
21
1.083820
0
LINE
8
Layer 1
10
0.600082
20
1.083820
11
0.682212
21
1.079568
0
LINE
8
Layer 1
10
0.682212
20
1.079568
11
0.759045
21
1.066849
0
LINE
8
Layer 1
10
0.759045
20
1.066849
11
0.830575
21
1.045701
0
LINE
8
Layer 1
10
0.830575
20
1.045701
11
0.896810
21
1.016162
0
LINE
8
Layer 1
10
0.896810
20
1.016162
11
0.956540
21
0.979323
0
LINE
8
Layer 1
10
0.956540
20
0.979323
11
1.009206
21
0.935616
0
LINE
8
Layer 1
10
1.009206
20
0.935616
11
1.054809
21
0.885083
0
LINE
8
Layer 1
10
1.054809
20
0.885083
11
1.093346
21
0.827766
0
LINE
8
Layer 1
10
1.093346
20
0.827766
11
1.093380
21
0.827800
0
LINE
8
Layer 1
10
2.946590
20
0.874257
11
2.946590
21
0.657172
0
LINE
8
Layer 1
10
2.946590
20
0.657172
11
3.296840
21
0.657172
0
LINE
8
Layer 1
10
3.296840
20
0.657172
11
3.296840
21
0.455500
0
LINE
8
Layer 1
10
3.296840
20
0.455500
11
2.946590
21
0.455500
0
LINE
8
Layer 1
10
2.946590
20
0.455500
11
2.946590
21
0.219999
0
LINE
8
Layer 1
10
2.946590
20
0.219999
11
3.342660
21
0.219999
0
LINE
8
Layer 1
10
3.342660
20
0.219999
11
3.342660
21
0.010620
0
LINE
8
Layer 1
10
3.342660
20
0.010620
11
2.685400
21
0.010620
0
LINE
8
Layer 1
10
2.685400
20
0.010620
11
2.685400
21
1.083640
0
LINE
8
Layer 1
10
2.685400
20
1.083640
11
3.342660
21
1.083640
0
LINE
8
Layer 1
10
3.342660
20
1.083640
11
3.342660
21
0.874257
0
LINE
8
Layer 1
10
3.342660
20
0.874257
11
2.946590
21
0.874257
0
LINE
8
Layer 1
10
5.895240
20
1.083680
11
5.514590
21
0.010660
0
LINE
8
Layer 1
10
5.514590
20
0.010660
11
5.187460
21
0.010665
0
LINE
8
Layer 1
10
5.187460
20
0.010665
11
4.806810
21
1.083680
0
LINE
8
Layer 1
10
4.806810
20
1.083680
11
5.085120
21
1.083680
0
LINE
8
Layer 1
10
5.085120
20
1.083680
11
5.351022
21
0.273564
0
LINE
8
Layer 1
10
5.351022
20
0.273564
11
5.618632
21
1.083680
0
LINE
8
Layer 1
10
5.618632
20
1.083680
11
5.895240
21
1.083680
0
LINE
8
Layer 1
10
7.641010
20
0.010748
11
7.379820
21
0.010748
0
LINE
8
Layer 1
10
7.379820
20
0.010748
11
7.379820
21
1.083770
0
LINE
8
Layer 1
10
7.379820
20
1.083770
11
7.641010
21
1.083770
0
LINE
8
Layer 1
10
7.641010
20
1.083770
11
7.641010
21
0.010748
0
LINE
8
Layer 1
10
9.422500
20
1.026180
11
9.486169
21
1.056773
0
LINE
8
Layer 1
10
9.486169
20
1.056773
11
9.553895
21
1.078598
0
LINE
8
Layer 1
10
9.553895
20
1.078598
11
9.625719
21
1.091656
0
LINE
8
Layer 1
10
9.625719
20
1.091656
11
9.701674
21
1.095983
0
LINE
8
Layer 1
10
9.701674
20
1.095983
11
9.793671
21
1.089661
0
LINE
8
Layer 1
10
9.793671
20
1.089661
11
9.878887
21
1.070696
0
LINE
8
Layer 1
10
9.878887
20
1.070696
11
9.957277
21
1.039125
0
LINE
8
Layer 1
10
9.957277
20
1.039125
11
10.028803
21
0.994978
0
LINE
8
Layer 1
10
10.028803
20
0.994978
11
10.091009
21
0.939986
0
LINE
8
Layer 1
10
10.091009
20
0.939986
11
10.142057
21
0.875839
0
LINE
8
Layer 1
10
10.142057
20
0.875839
11
10.181862
21
0.802540
0
LINE
8
Layer 1
10
10.181862
20
0.802540
11
10.210347
21
0.720090
0
LINE
8
Layer 1
10
10.210347
20
0.720090
11
10.138500
21
0.720085
0
LINE
8
Layer 1
10
10.138500
20
0.720085
11
10.066700
21
0.720085
0
LINE
8
Layer 1
10
10.066700
20
0.720085
11
9.994860
21
0.720085
0
LINE
8
Layer 1
10
9.994860
20
0.720085
11
9.923030
21
0.720085
0
LINE
8
Layer 1
10
9.923030
20
0.720085
11
9.905307
21
0.751543
0
LINE
8
Layer 1
10
9.905307
20
0.751543
11
9.884233
21
0.779125
0
LINE
8
Layer 1
10
9.884233
20
0.779125
11
9.859886
21
0.802756
0
LINE
8
Layer 1
10
9.859886
20
0.802756
11
9.832265
21
0.822437
0
LINE
8
Layer 1
10
9.832265
20
0.822437
11
9.801747
21
0.837677
0
LINE
8
Layer 1
10
9.801747
20
0.837677
11
9.769273
21
0.848664
0
LINE
8
Layer 1
10
9.769273
20
0.848664
11
9.734767
21
0.855325
0
LINE
8
Layer 1
10
9.734767
20
0.855325
11
9.698228
21
0.857582
0
LINE
8
Layer 1
10
9.698228
20
0.857582
11
9.640738
21
0.852277
0
LINE
8
Layer 1
10
9.640738
20
0.852277
11
9.588989
21
0.836435
0
LINE
8
Layer 1
10
9.588989
20
0.836435
11
9.542938
21
0.810056
0
LINE
8
Layer 1
10
9.542938
20
0.810056
11
9.502550
21
0.773217
0
LINE
8
Layer 1
10
9.502550
20
0.773217
11
9.469963
21
0.727866
0
LINE
8
Layer 1
10
9.469963
20
0.727866
11
9.446672
21
0.675327
0
LINE
8
Layer 1
10
9.446672
20
0.675327
11
9.432710
21
0.615639
0
LINE
8
Layer 1
10
9.432710
20
0.615639
11
9.428045
21
0.548850
0
LINE
8
Layer 1
10
9.428045
20
0.548850
11
9.432710
21
0.482054
0
LINE
8
Layer 1
10
9.432710
20
0.482054
11
9.446672
21
0.422325
0
LINE
8
Layer 1
10
9.446672
20
0.422325
11
9.469963
21
0.369658
0
LINE
8
Layer 1
10
9.469963
20
0.369658
11
9.502550
21
0.324059
0
LINE
8
Layer 1
10
9.502550
20
0.324059
11
9.542938
21
0.287294
0
LINE
8
Layer 1
10
9.542938
20
0.287294
11
9.588989
21
0.261068
0
LINE
8
Layer 1
10
9.588989
20
0.261068
11
9.640738
21
0.245376
0
LINE
8
Layer 1
10
9.640738
20
0.245376
11
9.698228
21
0.240146
0
LINE
8
Layer 1
10
9.698228
20
0.240146
11
9.734767
21
0.242404
0
LINE
8
Layer 1
10
9.734767
20
0.242404
11
9.769273
21
0.248952
0
LINE
8
Layer 1
10
9.769273
20
0.248952
11
9.801747
21
0.259902
0
LINE
8
Layer 1
10
9.801747
20
0.259902
11
9.832265
21
0.275331
0
LINE
8
Layer 1
10
9.832265
20
0.275331
11
9.859886
21
0.294748
0
LINE
8
Layer 1
10
9.859886
20
0.294748
11
9.884233
21
0.318305
0
LINE
8
Layer 1
10
9.884233
20
0.318305
11
9.905307
21
0.345963
0
LINE
8
Layer 1
10
9.905307
20
0.345963
11
9.923030
21
0.377647
0
LINE
8
Layer 1
10
9.923030
20
0.377647
11
9.994860
21
0.377647
0
LINE
8
Layer 1
10
9.994860
20
0.377647
11
10.066700
21
0.377647
0
LINE
8
Layer 1
10
10.066700
20
0.377647
11
10.138500
21
0.377647
0
LINE
8
Layer 1
10
10.138500
20
0.377647
11
10.210300
21
0.377647
0
LINE
8
Layer 1
10
10.210300
20
0.377647
11
10.181814
21
0.295204
0
LINE
8
Layer 1
10
10.181814
20
0.295204
11
10.142006
21
0.221951
0
LINE
8
Layer 1
10
10.142006
20
0.221951
11
10.090962
21
0.157932
0
LINE
8
Layer 1
10
10.090962
20
0.157932
11
10.028756
21
0.103185
0
LINE
8
Layer 1
10
10.028756
20
0.103185
11
9.957230
21
0.059350
0
LINE
8
Layer 1
10
9.957230
20
0.059350
11
9.878840
21
0.028042
0
LINE
8
Layer 1
10
9.878840
20
0.028042
11
9.793624
21
0.009266
0
LINE
8
Layer 1
10
9.793624
20
0.009266
11
9.701627
21
0.003020
0
LINE
8
Layer 1
10
9.701627
20
0.003020
11
9.625671
21
0.007346
0
LINE
8
Layer 1
10
9.625671
20
0.007346
11
9.553848
21
0.020405
0
LINE
8
Layer 1
10
9.553848
20
0.020405
11
9.486122
21
0.042192
0
LINE
8
Layer 1
10
9.486122
20
0.042192
11
9.422453
21
0.072785
0
LINE
8
Layer 1
10
9.422453
20
0.072785
11
9.364240
21
0.110847
0
LINE
8
Layer 1
10
9.364240
20
0.110847
11
9.312891
21
0.155695
0
LINE
8
Layer 1
10
9.312891
20
0.155695
11
9.268367
21
0.207364
0
LINE
8
Layer 1
10
9.268367
20
0.207364
11
9.230629
21
0.265896
0
LINE
8
Layer 1
10
9.230629
20
0.265896
11
9.200525
21
0.330051
0
LINE
8
Layer 1
10
9.200525
20
0.330051
11
9.178963
21
0.398579
0
LINE
8
Layer 1
10
9.178963
20
0.398579
11
9.166017
21
0.471520
0
LINE
8
Layer 1
10
9.166017
20
0.471520
11
9.161691
21
0.548920
0
LINE
8
Layer 1
10
9.161691
20
0.548920
11
9.166017
21
0.626147
0
LINE
8
Layer 1
10
9.166017
20
0.626147
11
9.178963
21
0.699160
0
LINE
8
Layer 1
10
9.178963
20
0.699160
11
9.200525
21
0.767917
0
LINE
8
Layer 1
10
9.200525
20
0.767917
11
9.230629
21
0.832380
0
LINE
8
Layer 1
10
9.230629
20
0.832380
11
9.268367
21
0.891229
0
LINE
8
Layer 1
10
9.268367
20
0.891229
11
9.312891
21
0.943173
0
LINE
8
Layer 1
10
9.312891
20
0.943173
11
9.364240
21
0.988212
0
LINE
8
Layer 1
10
9.364240
20
0.988212
11
9.422453
21
1.026345
0
LINE
8
Layer 1
10
9.422453
20
1.026345
11
9.422500
21
1.026180
0
LINE
8
Layer 1
10
12.008100
20
0.874257
11
12.008100
21
0.657172
0
LINE
8
Layer 1
10
12.008100
20
0.657172
11
12.358400
21
0.657172
0
LINE
8
Layer 1
10
12.358400
20
0.657172
11
12.358400
21
0.455500
0
LINE
8
Layer 1
10
12.358400
20
0.455500
11
12.008100
21
0.455500
0
LINE
8
Layer 1
10
12.008100
20
0.455500
11
12.008100
21
0.219999
0
LINE
8
Layer 1
10
12.008100
20
0.219999
11
12.404200
21
0.219999
0
LINE
8
Layer 1
10
12.404200
20
0.219999
11
12.404200
21
0.010620
0
LINE
8
Layer 1
10
12.404200
20
0.010620
11
11.746500
21
0.010620
0
LINE
8
Layer 1
10
11.746500
20
0.010620
11
11.746500
21
1.083640
0
LINE
8
Layer 1
10
11.746500
20
1.083640
11
12.404200
21
1.083640
0
LINE
8
Layer 1
10
12.404200
20
1.083640
11
12.404200
21
0.874257
0
LINE
8
Layer 1
10
12.404200
20
0.874257
11
12.008100
21
0.874257
0
LINE
8
Layer 1
10
13.977800
20
0.151148
11
13.953154
21
0.190572
0
LINE
8
Layer 1
10
13.953154
20
0.190572
11
13.935091
21
0.233734
0
LINE
8
Layer 1
10
13.935091
20
0.233734
11
13.923613
21
0.280665
0
LINE
8
Layer 1
10
13.923613
20
0.280665
11
13.918722
21
0.331412
0
LINE
8
Layer 1
10
13.918722
20
0.331412
11
13.988300
21
0.331413
0
LINE
8
Layer 1
10
13.988300
20
0.331413
11
14.057800
21
0.331413
0
LINE
8
Layer 1
10
14.057800
20
0.331413
11
14.127400
21
0.331413
0
LINE
8
Layer 1
10
14.127400
20
0.331413
11
14.197000
21
0.331413
0
LINE
8
Layer 1
10
14.197000
20
0.331413
11
14.202004
21
0.303566
0
LINE
8
Layer 1
10
14.202004
20
0.303566
11
14.210547
21
0.279106
0
LINE
8
Layer 1
10
14.210547
20
0.279106
11
14.222702
21
0.258109
0
LINE
8
Layer 1
10
14.222702
20
0.258109
11
14.238506
21
0.240611
0
LINE
8
Layer 1
10
14.238506
20
0.240611
11
14.257283
21
0.226875
0
LINE
8
Layer 1
10
14.257283
20
0.226875
11
14.278881
21
0.217130
0
LINE
8
Layer 1
10
14.278881
20
0.217130
11
14.303189
21
0.211297
0
LINE
8
Layer 1
10
14.303189
20
0.211297
11
14.330169
21
0.209406
0
LINE
8
Layer 1
10
14.330169
20
0.209406
11
14.357601
21
0.210901
0
LINE
8
Layer 1
10
14.357601
20
0.210901
11
14.382061
21
0.215905
0
LINE
8
Layer 1
10
14.382061
20
0.215905
11
14.403474
21
0.224222
0
LINE
8
Layer 1
10
14.403474
20
0.224222
11
14.421762
21
0.235774
0
LINE
8
Layer 1
10
14.421762
20
0.235774
11
14.436361
21
0.250525
0
LINE
8
Layer 1
10
14.436361
20
0.250525
11
14.446783
21
0.267834
0
LINE
8
Layer 1
10
14.446783
20
0.267834
11
14.453029
21
0.287626
0
LINE
8
Layer 1
10
14.453029
20
0.287626
11
14.455287
21
0.309865
0
LINE
8
Layer 1
10
14.455287
20
0.309865
11
14.453791
21
0.328907
0
LINE
8
Layer 1
10
14.453791
20
0.328907
11
14.448900
21
0.346216
0
LINE
8
Layer 1
10
14.448900
20
0.346216
11
14.440622
21
0.361831
0
LINE
8
Layer 1
10
14.440622
20
0.361831
11
14.428919
21
0.375792
0
LINE
8
Layer 1
10
14.428919
20
0.375792
11
14.414695
21
0.388134
0
LINE
8
Layer 1
10
14.414695
20
0.388134
11
14.399040
21
0.399460
0
LINE
8
Layer 1
10
14.399040
20
0.399460
11
14.381957
21
0.409656
0
LINE
8
Layer 1
10
14.381957
20
0.409656
11
14.363406
21
0.418651
0
LINE
8
Layer 1
10
14.363406
20
0.418651
11
14.341808
21
0.427306
0
LINE
8
Layer 1
10
14.341808
20
0.427306
11
14.316146
21
0.436563
0
LINE
8
Layer 1
10
14.316146
20
0.436563
11
14.286381
21
0.446385
0
LINE
8
Layer 1
10
14.286381
20
0.446385
11
14.252514
21
0.456734
0
LINE
8
Layer 1
10
14.252514
20
0.456734
11
14.202892
21
0.472801
0
LINE
8
Layer 1
10
14.202892
20
0.472801
11
14.158045
21
0.488867
0
LINE
8
Layer 1
10
14.158045
20
0.488867
11
14.117940
21
0.504934
0
LINE
8
Layer 1
10
14.117940
20
0.504934
11
14.082530
21
0.521001
0
LINE
8
Layer 1
10
14.082530
20
0.521001
11
14.050884
21
0.538987
0
LINE
8
Layer 1
10
14.050884
20
0.538987
11
14.021495
21
0.560775
0
LINE
8
Layer 1
10
14.021495
20
0.560775
11
13.994365
21
0.586324
0
LINE
8
Layer 1
10
13.994365
20
0.586324
11
13.969493
21
0.615638
0
LINE
8
Layer 1
10
13.969493
20
0.615638
11
13.948758
21
0.649429
0
LINE
8
Layer 1
10
13.948758
20
0.649429
11
13.934045
21
0.687932
0
LINE
8
Layer 1
10
13.934045
20
0.687932
11
13.925277
21
0.731172
0
LINE
8
Layer 1
10
13.925277
20
0.731172
11
13.922265
21
0.779187
0
LINE
8
Layer 1
10
13.922265
20
0.779187
11
13.929002
21
0.850176
0
LINE
8
Layer 1
10
13.929002
20
0.850176
11
13.949285
21
0.912938
0
LINE
8
Layer 1
10
13.949285
20
0.912938
11
13.983114
21
0.967591
0
LINE
8
Layer 1
10
13.983114
20
0.967591
11
14.030569
21
1.014256
0
LINE
8
Layer 1
10
14.030569
20
1.014256
11
14.088940
21
1.051358
0
LINE
8
Layer 1
10
14.088940
20
1.051358
11
14.155541
21
1.077850
0
LINE
8
Layer 1
10
14.155541
20
1.077850
11
14.230412
21
1.093767
0
LINE
8
Layer 1
10
14.230412
20
1.093767
11
14.313592
21
1.099073
0
LINE
8
Layer 1
10
14.313592
20
1.099073
11
14.397898
21
1.093767
0
LINE
8
Layer 1
10
14.397898
20
1.093767
11
14.473571
21
1.077850
0
LINE
8
Layer 1
10
14.473571
20
1.077850
11
14.540657
21
1.051358
0
LINE
8
Layer 1
10
14.540657
20
1.051358
11
14.599190
21
1.014256
0
LINE
8
Layer 1
10
14.599190
20
1.014256
11
14.647186
21
0.967508
0
LINE
8
Layer 1
10
14.647186
20
0.967508
11
14.682596
21
0.912614
0
LINE
8
Layer 1
10
14.682596
20
0.912614
11
14.705286
21
0.849453
0
LINE
8
Layer 1
10
14.705286
20
0.849453
11
14.715220
21
0.777900
0
LINE
8
Layer 1
10
14.715220
20
0.777900
11
14.644600
21
0.777900
0
LINE
8
Layer 1
10
14.644600
20
0.777900
11
14.573900
21
0.777900
0
LINE
8
Layer 1
10
14.573900
20
0.777900
11
14.503300
21
0.777900
0
LINE
8
Layer 1
10
14.503300
20
0.777900
11
14.432600
21
0.777900
0
LINE
8
Layer 1
10
14.432600
20
0.777900
11
14.428838
21
0.802472
0
LINE
8
Layer 1
10
14.428838
20
0.802472
11
14.421351
21
0.824260
0
LINE
8
Layer 1
10
14.421351
20
0.824260
11
14.409873
21
0.843300
0
LINE
8
Layer 1
10
14.409873
20
0.843300
11
14.394294
21
0.859707
0
LINE
8
Layer 1
10
14.394294
20
0.859707
11
14.375405
21
0.872614
0
LINE
8
Layer 1
10
14.375405
20
0.872614
11
14.354069
21
0.881833
0
LINE
8
Layer 1
10
14.354069
20
0.881833
11
14.330249
21
0.887365
0
LINE
8
Layer 1
10
14.330249
20
0.887365
11
14.303910
21
0.889247
0
LINE
8
Layer 1
10
14.303910
20
0.889247
11
14.281332
21
0.887743
0
LINE
8
Layer 1
10
14.281332
20
0.887743
11
14.261125
21
0.883114
0
LINE
8
Layer 1
10
14.261125
20
0.883114
11
14.243252
21
0.875363
0
LINE
8
Layer 1
10
14.243252
20
0.875363
11
14.227673
21
0.864450
0
LINE
8
Layer 1
10
14.227673
20
0.864450
11
14.214804
21
0.850301
0
LINE
8
Layer 1
10
14.214804
20
0.850301
11
14.205696
21
0.833518
0
LINE
8
Layer 1
10
14.205696
20
0.833518
11
14.200314
21
0.813989
0
LINE
8
Layer 1
10
14.200314
20
0.813989
11
14.198423
21
0.791674
0
LINE
8
Layer 1
10
14.198423
20
0.791674
11
14.201435
21
0.767101
0
LINE
8
Layer 1
10
14.201435
20
0.767101
11
14.210579
21
0.745426
0
LINE
8
Layer 1
10
14.210579
20
0.745426
11
14.225819
21
0.726650
0
LINE
8
Layer 1
10
14.225819
20
0.726650
11
14.247191
21
0.710770
0
LINE
8
Layer 1
10
14.247191
20
0.710770
11
14.275038
21
0.696018
0
LINE
8
Layer 1
10
14.275038
20
0.696018
11
14.309808
21
0.680589
0
LINE
8
Layer 1
10
14.309808
20
0.680589
11
14.351475
21
0.664522
0
LINE
8
Layer 1
10
14.351475
20
0.664522
11
14.400044
21
0.647814
0
LINE
8
Layer 1
10
14.400044
20
0.647814
11
14.449594
21
0.630579
0
LINE
8
Layer 1
10
14.449594
20
0.630579
11
14.494246
21
0.613570
0
LINE
8
Layer 1
10
14.494246
20
0.613570
11
14.534080
21
0.596862
0
LINE
8
Layer 1
10
14.534080
20
0.596862
11
14.569189
21
0.580569
0
LINE
8
Layer 1
10
14.569189
20
0.580569
11
14.600497
21
0.562733
0
LINE
8
Layer 1
10
14.600497
20
0.562733
11
14.629622
21
0.541321
0
LINE
8
Layer 1
10
14.629622
20
0.541321
11
14.656566
21
0.516296
0
LINE
8
Layer 1
10
14.656566
20
0.516296
11
14.681364
21
0.487622
0
LINE
8
Layer 1
10
14.681364
20
0.487622
11
14.702173
21
0.454697
0
LINE
8
Layer 1
10
14.702173
20
0.454697
11
14.717037
21
0.417519
0
LINE
8
Layer 1
10
14.717037
20
0.417519
11
14.725955
21
0.375998
0
LINE
8
Layer 1
10
14.725955
20
0.375998
11
14.728967
21
0.330064
0
LINE
8
Layer 1
10
14.728967
20
0.330064
11
14.725955
21
0.285194
0
LINE
8
Layer 1
10
14.725955
20
0.285194
11
14.717150
21
0.242447
0
LINE
8
Layer 1
10
14.717150
20
0.242447
11
14.702551
21
0.201871
0
LINE
8
Layer 1
10
14.702551
20
0.201871
11
14.682268
21
0.163504
0
LINE
8
Layer 1
10
14.682268
20
0.163504
11
14.656227
21
0.127869
0
LINE
8
Layer 1
10
14.656227
20
0.127869
11
14.625032
21
0.096072
0
LINE
8
Layer 1
10
14.625032
20
0.096072
11
14.588607
21
0.068152
0
LINE
8
Layer 1
10
14.588607
20
0.068152
11
14.546936
21
0.044070
0
LINE
8
Layer 1
10
14.546936
20
0.044070
11
14.500610
21
0.024729
0
LINE
8
Layer 1
10
14.500610
20
0.024729
11
14.450273
21
0.010956
0
LINE
8
Layer 1
10
14.450273
20
0.010956
11
14.395921
21
0.002716
0
LINE
8
Layer 1
10
14.395921
20
0.002716
11
14.337553
21
0.000091
0
LINE
8
Layer 1
10
14.337553
20
0.000091
11
14.280063
21
0.002349
0
LINE
8
Layer 1
10
14.280063
20
0.002349
11
14.225745
21
0.009537
0
LINE
8
Layer 1
10
14.225745
20
0.009537
11
14.174561
21
0.021466
0
LINE
8
Layer 1
10
14.174561
20
0.021466
11
14.126466
21
0.038098
0
LINE
8
Layer 1
10
14.126466
20
0.038098
11
14.082233
21
0.059434
0
LINE
8
Layer 1
10
14.082233
20
0.059434
11
14.042654
21
0.085474
0
LINE
8
Layer 1
10
14.042654
20
0.085474
11
14.007734
21
0.116067
0
LINE
8
Layer 1
10
14.007734
20
0.116067
11
13.977479
21
0.151138
0
LINE
8
Layer 1
10
13.977479
20
0.151138
11
13.977800
21
0.151148
0
LINE
8
Layer 1
10
0.643601
20
3.104300
11
0.643601
21
2.743970
0
LINE
8
Layer 1
10
0.643601
20
2.743970
11
1.287200
21
2.743970
0
LINE
8
Layer 1
10
1.287200
20
2.743970
11
1.309213
21
2.710931
0
LINE
8
Layer 1
10
1.309213
20
2.710931
11
1.309220
21
2.287490
0
LINE
8
Layer 1
10
1.309220
20
2.287490
11
1.287207
21
2.259983
0
LINE
8
Layer 1
10
1.287207
20
2.259983
11
0.643601
21
2.259990
0
LINE
8
Layer 1
10
0.643601
20
2.259990
11
0.643601
21
1.737470
0
LINE
8
Layer 1
10
0.643601
20
1.737470
11
0.618653
21
1.698945
0
LINE
8
Layer 1
10
0.618653
20
1.698945
11
0.027521
21
1.698950
0
LINE
8
Layer 1
10
0.027521
20
1.698950
11
0.000014
21
1.737475
0
LINE
8
Layer 1
10
0.000014
20
1.737475
11
0.000014
21
3.525170
0
LINE
8
Layer 1
10
0.000014
20
3.525170
11
0.027521
21
3.563699
0
LINE
8
Layer 1
10
0.027521
20
3.563699
11
1.361330
21
3.563700
0
LINE
8
Layer 1
10
1.361330
20
3.563700
11
1.383343
21
3.536193
0
LINE
8
Layer 1
10
1.383343
20
3.536193
11
1.383340
21
3.128900
0
LINE
8
Layer 1
10
1.383340
20
3.128900
11
1.361325
21
3.104315
0
LINE
8
Layer 1
10
1.361325
20
3.104315
11
0.643601
21
3.104300
0
LINE
8
Layer 1
10
1.649880
20
1.698950
11
1.622373
21
1.723522
0
LINE
8
Layer 1
10
1.622373
20
1.723522
11
1.622370
21
3.538740
0
LINE
8
Layer 1
10
1.622370
20
3.538740
11
1.649877
21
3.563688
0
LINE
8
Layer 1
10
1.649877
20
3.563688
11
2.235870
21
3.563690
0
LINE
8
Layer 1
10
2.235870
20
3.563690
11
2.263377
21
3.538742
0
LINE
8
Layer 1
10
2.263377
20
3.538742
11
2.263380
21
2.210440
0
LINE
8
Layer 1
10
2.263380
20
2.210440
11
2.934500
21
2.210440
0
LINE
8
Layer 1
10
2.934500
20
2.210440
11
2.964604
21
2.182933
0
LINE
8
Layer 1
10
2.964604
20
2.182933
11
2.964600
21
1.723530
0
LINE
8
Layer 1
10
2.964600
20
1.723530
11
2.937086
21
1.698950
0
LINE
8
Layer 1
10
2.937086
20
1.698950
11
1.649880
21
1.698950
0
LINE
8
Layer 1
10
4.059050
20
2.727610
11
4.015016
21
2.617528
0
LINE
8
Layer 1
10
4.015016
20
2.617528
11
3.891362
21
2.337191
0
LINE
8
Layer 1
10
3.891362
20
2.337191
11
4.224170
21
2.337190
0
LINE
8
Layer 1
10
4.224170
20
2.337190
11
4.103082
21
2.617527
0
LINE
8
Layer 1
10
4.103082
20
2.617527
11
4.059050
21
2.727610
0
LINE
8
Layer 1
10
4.059050
20
2.727610
11
4.059050
21
2.727610
0
LINE
8
Layer 1
10
4.507441
20
1.699100
11
4.468912
21
1.721113
0
LINE
8
Layer 1
10
4.468912
20
1.721113
11
4.375340
21
1.929890
0
LINE
8
Layer 1
10
4.375340
20
1.929890
11
3.734680
21
1.929890
0
LINE
8
Layer 1
10
3.734680
20
1.929890
11
3.646615
21
1.729177
0
LINE
8
Layer 1
10
3.646615
20
1.729177
11
3.591575
21
1.699073
0
LINE
8
Layer 1
10
3.591575
20
1.699073
11
3.027600
21
1.699070
0
LINE
8
Layer 1
10
3.027600
20
1.699070
11
3.016574
21
1.737599
0
LINE
8
Layer 1
10
3.016574
20
1.737599
11
4.009495
21
3.588409
0
LINE
8
Layer 1
10
4.009495
20
3.588409
11
4.075546
21
3.601993
0
LINE
8
Layer 1
10
4.075546
20
3.601993
11
4.147095
21
3.591005
0
LINE
8
Layer 1
10
4.147095
20
3.591005
11
5.164605
21
1.737625
0
LINE
8
Layer 1
10
5.164605
20
1.737625
11
5.153595
21
1.699093
0
LINE
8
Layer 1
10
5.153595
20
1.699093
11
4.507441
21
1.699100
0
LINE
8
Layer 1
10
6.787090
20
1.696230
11
6.762517
21
1.718243
0
LINE
8
Layer 1
10
6.762517
20
1.718243
11
6.737569
21
2.433394
0
LINE
8
Layer 1
10
6.737569
20
2.433394
11
6.316696
21
2.089580
0
LINE
8
Layer 1
10
6.316696
20
2.089580
11
6.292123
21
2.075620
0
LINE
8
Layer 1
10
6.292123
20
2.075620
11
6.267550
21
2.089580
0
LINE
8
Layer 1
10
6.267550
20
2.089580
11
5.882272
21
2.433394
0
LINE
8
Layer 1
10
5.882272
20
2.433394
11
5.863194
21
1.737322
0
LINE
8
Layer 1
10
5.863194
20
1.737322
11
5.827220
21
1.698797
0
LINE
8
Layer 1
10
5.827220
20
1.698797
11
5.324150
21
1.698800
0
LINE
8
Layer 1
10
5.324150
20
1.698800
11
5.296642
21
1.734774
0
LINE
8
Layer 1
10
5.296642
20
1.734774
11
5.359754
21
3.566504
0
LINE
8
Layer 1
10
5.359754
20
3.566504
11
5.368184
21
3.594011
0
LINE
8
Layer 1
10
5.368184
20
3.594011
11
5.398288
21
3.585582
0
LINE
8
Layer 1
10
5.398288
20
3.585582
11
6.311216
21
2.842909
0
LINE
8
Layer 1
10
6.311216
20
2.842909
11
7.254601
21
3.599159
0
LINE
8
Layer 1
10
7.254601
20
3.599159
11
7.285043
21
3.613082
0
LINE
8
Layer 1
10
7.285043
20
3.613082
11
7.293134
21
3.585575
0
LINE
8
Layer 1
10
7.293134
20
3.585575
11
7.378264
21
1.734765
0
LINE
8
Layer 1
10
7.378264
20
1.734765
11
7.359149
21
1.696236
0
LINE
8
Layer 1
10
7.359149
20
1.696236
11
6.787090
21
1.696230
0
LINE
8
Layer 1
10
7.746950
20
1.698950
11
7.719442
21
1.723522
0
LINE
8
Layer 1
10
7.719442
20
1.723522
11
7.719440
21
3.538740
0
LINE
8
Layer 1
10
7.719440
20
3.538740
11
7.746948
21
3.563688
0
LINE
8
Layer 1
10
7.746948
20
3.563688
11
8.354590
21
3.563690
0
LINE
8
Layer 1
10
8.354590
20
3.563690
11
8.382098
21
3.538742
0
LINE
8
Layer 1
10
8.382098
20
3.538742
11
8.382100
21
1.723520
0
LINE
8
Layer 1
10
8.382100
20
1.723520
11
8.354592
21
1.698948
0
LINE
8
Layer 1
10
8.354592
20
1.698948
11
7.746950
21
1.698950
0
LINE
8
Layer 1
10
10.516300
20
1.657870
11
9.350180
21
2.422200
0
LINE
8
Layer 1
10
9.350180
20
2.422200
11
9.350180
21
1.723550
0
LINE
8
Layer 1
10
9.350180
20
1.723550
11
9.322672
21
1.698978
0
LINE
8
Layer 1
10
9.322672
20
1.698978
11
8.802720
21
1.698980
0
LINE
8
Layer 1
10
8.802720
20
1.698980
11
8.772617
21
1.726487
0
LINE
8
Layer 1
10
8.772617
20
1.726487
11
8.772617
21
3.590877
0
LINE
8
Layer 1
10
8.772617
20
3.590877
11
8.778111
21
3.615826
0
LINE
8
Layer 1
10
8.778111
20
3.615826
11
8.802684
21
3.607397
0
LINE
8
Layer 1
10
8.802684
20
3.607397
11
9.971734
21
2.834636
0
LINE
8
Layer 1
10
9.971734
20
2.834636
11
9.971730
21
3.530710
0
LINE
8
Layer 1
10
9.971730
20
3.530710
11
9.996303
21
3.563749
0
LINE
8
Layer 1
10
9.996303
20
3.563749
11
10.521800
21
3.563750
0
LINE
8
Layer 1
10
10.521800
20
3.563750
11
10.551903
21
3.530711
0
LINE
8
Layer 1
10
10.551903
20
3.530711
11
10.551903
21
1.685041
0
LINE
8
Layer 1
10
10.551903
20
1.685041
11
10.546409
21
1.649444
0
LINE
8
Layer 1
10
10.546409
20
1.649444
11
10.516305
21
1.657873
0
LINE
8
Layer 1
10
10.516305
20
1.657873
11
10.516300
21
1.657870
0
LINE
8
Layer 1
10
12.372500
20
1.839350
11
12.322690
21
1.802887
0
LINE
8
Layer 1
10
12.322690
20
1.802887
11
12.269531
21
1.766800
0
LINE
8
Layer 1
10
12.269531
20
1.766800
11
12.211690
21
1.732482
0
LINE
8
Layer 1
10
12.211690
20
1.732482
11
12.147844
21
1.701325
0
LINE
8
Layer 1
10
12.147844
20
1.701325
11
12.076675
21
1.674683
0
LINE
8
Layer 1
10
12.076675
20
1.674683
11
11.996855
21
1.653949
0
LINE
8
Layer 1
10
11.996855
20
1.653949
11
11.907056
21
1.640478
0
LINE
8
Layer 1
10
11.907056
20
1.640478
11
11.805956
21
1.635699
0
LINE
8
Layer 1
10
11.805956
20
1.635699
11
11.604291
21
1.652971
0
LINE
8
Layer 1
10
11.604291
20
1.652971
11
11.416666
21
1.703865
0
LINE
8
Layer 1
10
11.416666
20
1.703865
11
11.247000
21
1.786930
0
LINE
8
Layer 1
10
11.247000
20
1.786930
11
11.099400
21
1.900710
0
LINE
8
Layer 1
10
11.099400
20
1.900710
11
10.977657
21
2.043763
0
LINE
8
Layer 1
10
10.977657
20
2.043763
11
10.885796
21
2.214647
0
LINE
8
Layer 1
10
10.885796
20
2.214647
11
10.827774
21
2.411913
0
LINE
8
Layer 1
10
10.827774
20
2.411913
11
10.807567
21
2.634120
0
LINE
8
Layer 1
10
10.807567
20
2.634120
11
10.827021
21
2.841399
0
LINE
8
Layer 1
10
10.827021
20
2.841399
11
10.883367
21
3.030360
0
LINE
8
Layer 1
10
10.883367
20
3.030360
11
10.973498
21
3.198132
0
LINE
8
Layer 1
10
10.973498
20
3.198132
11
11.094312
21
3.341843
0
LINE
8
Layer 1
10
11.094312
20
3.341843
11
11.242712
21
3.458615
0
LINE
8
Layer 1
10
11.242712
20
3.458615
11
11.415609
21
3.545581
0
LINE
8
Layer 1
10
11.415609
20
3.545581
11
11.609898
21
3.599869
0
LINE
8
Layer 1
10
11.609898
20
3.599869
11
11.822490
21
3.618609
0
LINE
8
Layer 1
10
11.822490
20
3.618609
11
11.989460
21
3.607922
0
LINE
8
Layer 1
10
11.989460
20
3.607922
11
12.139933
21
3.576990
0
LINE
8
Layer 1
10
12.139933
20
3.576990
11
12.274169
21
3.527507
0
LINE
8
Layer 1
10
12.274169
20
3.527507
11
12.392427
21
3.461125
0
LINE
8
Layer 1
10
12.392427
20
3.461125
11
12.494964
21
3.379525
0
LINE
8
Layer 1
10
12.494964
20
3.379525
11
12.582039
21
3.284375
0
LINE
8
Layer 1
10
12.582039
20
3.284375
11
12.653911
21
3.177345
0
LINE
8
Layer 1
10
12.653911
20
3.177345
11
12.710834
21
3.060114
0
LINE
8
Layer 1
10
12.710834
20
3.060114
11
12.714596
21
3.049803
0
LINE
8
Layer 1
10
12.714596
20
3.049803
11
12.717220
21
3.041224
0
LINE
8
Layer 1
10
12.717220
20
3.041224
11
12.718716
21
3.034112
0
LINE
8
Layer 1
10
12.718716
20
3.034112
11
12.718912
21
3.028204
0
LINE
8
Layer 1
10
12.718912
20
3.028204
11
12.717416
21
3.023162
0
LINE
8
Layer 1
10
12.717416
20
3.023162
11
12.714405
21
3.018721
0
LINE
8
Layer 1
10
12.714405
20
3.018721
11
12.709401
21
3.014620
0
LINE
8
Layer 1
10
12.709401
20
3.014620
11
12.702252
21
3.010556
0
LINE
8
Layer 1
10
12.702252
20
3.010556
11
12.638000
21
2.982030
0
LINE
8
Layer 1
10
12.638000
20
2.982030
11
12.573700
21
2.953500
0
LINE
8
Layer 1
10
12.573700
20
2.953500
11
12.509400
21
2.924980
0
LINE
8
Layer 1
10
12.509400
20
2.924980
11
12.445200
21
2.896460
0
LINE
8
Layer 1
10
12.445200
20
2.896460
11
12.380900
21
2.867930
0
LINE
8
Layer 1
10
12.380900
20
2.867930
11
12.316700
21
2.839410
0
LINE
8
Layer 1
10
12.316700
20
2.839410
11
12.252400
21
2.810890
0
LINE
8
Layer 1
10
12.252400
20
2.810890
11
12.188200
21
2.782360
0
LINE
8
Layer 1
10
12.188200
20
2.782360
11
12.180334
21
2.780478
0
LINE
8
Layer 1
10
12.180334
20
2.780478
11
12.173186
21
2.780312
0
LINE
8
Layer 1
10
12.173186
20
2.780312
11
12.166751
21
2.781816
0
LINE
8
Layer 1
10
12.166751
20
2.781816
11
12.160994
21
2.784827
0
LINE
8
Layer 1
10
12.160994
20
2.784827
11
12.155877
21
2.789342
0
LINE
8
Layer 1
10
12.155877
20
2.789342
11
12.151398
21
2.795137
0
LINE
8
Layer 1
10
12.151398
20
2.795137
11
12.147523
21
2.802023
0
LINE
8
Layer 1
10
12.147523
20
2.802023
11
12.144137
21
2.809850
0
LINE
8
Layer 1
10
12.144137
20
2.809850
11
12.117156
21
2.852311
0
LINE
8
Layer 1
10
12.117156
20
2.852311
11
12.084418
21
2.888925
0
LINE
8
Layer 1
10
12.084418
20
2.888925
11
12.046864
21
2.919744
0
LINE
8
Layer 1
10
12.046864
20
2.919744
11
12.005430
21
2.944805
0
LINE
8
Layer 1
10
12.005430
20
2.944805
11
11.961039
21
2.964184
0
LINE
8
Layer 1
10
11.961039
20
2.964184
11
11.914615
21
2.977957
0
LINE
8
Layer 1
10
11.914615
20
2.977957
11
11.867093
21
2.986197
0
LINE
8
Layer 1
10
11.867093
20
2.986197
11
11.819397
21
2.988831
0
LINE
8
Layer 1
10
11.819397
20
2.988831
11
11.738990
21
2.981907
0
LINE
8
Layer 1
10
11.738990
20
2.981907
11
11.667186
21
2.961850
0
LINE
8
Layer 1
10
11.667186
20
2.961850
11
11.604638
21
2.929714
0
LINE
8
Layer 1
10
11.604638
20
2.929714
11
11.551994
21
2.886595
0
LINE
8
Layer 1
10
11.551994
20
2.886595
11
11.509909
21
2.833544
0
LINE
8
Layer 1
10
11.509909
20
2.833544
11
11.479052
21
2.771644
0
LINE
8
Layer 1
10
11.479052
20
2.771644
11
11.460050
21
2.701961
0
LINE
8
Layer 1
10
11.460050
20
2.701961
11
11.453579
21
2.625566
0
LINE
8
Layer 1
10
11.453579
20
2.625566
11
11.460090
21
2.541889
0
LINE
8
Layer 1
10
11.460090
20
2.541889
11
11.479244
21
2.468312
0
LINE
8
Layer 1
10
11.479244
20
2.468312
11
11.510515
21
2.405154
0
LINE
8
Layer 1
10
11.510515
20
2.405154
11
11.553393
21
2.352751
0
LINE
8
Layer 1
10
11.553393
20
2.352751
11
11.607351
21
2.311422
0
LINE
8
Layer 1
10
11.607351
20
2.311422
11
11.671855
21
2.281507
0
LINE
8
Layer 1
10
11.671855
20
2.281507
11
11.746392
21
2.263294
0
LINE
8
Layer 1
10
11.746392
20
2.263294
11
11.830430
21
2.257161
0
LINE
8
Layer 1
10
11.830430
20
2.257161
11
11.887947
21
2.260547
0
LINE
8
Layer 1
10
11.887947
20
2.260547
11
11.940722
21
2.270595
0
LINE
8
Layer 1
10
11.940722
20
2.270595
11
11.988655
21
2.287377
0
LINE
8
Layer 1
10
11.988655
20
2.287377
11
12.031647
21
2.310858
0
LINE
8
Layer 1
10
12.031647
20
2.310858
11
12.069600
21
2.341037
0
LINE
8
Layer 1
10
12.069600
20
2.341037
11
12.102413
21
2.377952
0
LINE
8
Layer 1
10
12.102413
20
2.377952
11
12.129995
21
2.421553
0
LINE
8
Layer 1
10
12.129995
20
2.421553
11
12.152234
21
2.471864
0
LINE
8
Layer 1
10
12.152234
20
2.471864
11
12.155245
21
2.478525
0
LINE
8
Layer 1
10
12.155245
20
2.478525
11
12.157870
21
2.484169
0
LINE
8
Layer 1
10
12.157870
20
2.484169
11
12.160128
21
2.488873
0
LINE
8
Layer 1
10
12.160128
20
2.488873
11
12.162385
21
2.492636
0
LINE
8
Layer 1
10
12.162385
20
2.492636
11
12.164643
21
2.495646
0
LINE
8
Layer 1
10
12.164643
20
2.495646
11
12.167268
21
2.497529
0
LINE
8
Layer 1
10
12.167268
20
2.497529
11
12.170279
21
2.498657
0
LINE
8
Layer 1
10
12.170279
20
2.498657
11
12.174041
21
2.499033
0
LINE
8
Layer 1
10
12.174041
20
2.499033
11
12.243100
21
2.499040
0
LINE
8
Layer 1
10
12.243100
20
2.499040
11
12.312100
21
2.499040
0
LINE
8
Layer 1
10
12.312100
20
2.499040
11
12.381200
21
2.499040
0
LINE
8
Layer 1
10
12.381200
20
2.499040
11
12.450300
21
2.499040
0
LINE
8
Layer 1
10
12.450300
20
2.499040
11
12.519400
21
2.499040
0
LINE
8
Layer 1
10
12.519400
20
2.499040
11
12.588400
21
2.499040
0
LINE
8
Layer 1
10
12.588400
20
2.499040
11
12.657500
21
2.499040
0
LINE
8
Layer 1
10
12.657500
20
2.499040
11
12.726600
21
2.499040
0
LINE
8
Layer 1
10
12.726600
20
2.499040
11
12.733862
21
2.498893
0
LINE
8
Layer 1
10
12.733862
20
2.498893
11
12.739317
21
2.498518
0
LINE
8
Layer 1
10
12.739317
20
2.498518
11
12.743231
21
2.497389
0
LINE
8
Layer 1
10
12.743231
20
2.497389
11
12.745856
21
2.495885
0
LINE
8
Layer 1
10
12.745856
20
2.495885
11
12.747352
21
2.493627
0
LINE
8
Layer 1
10
12.747352
20
2.493627
11
12.748114
21
2.490240
0
LINE
8
Layer 1
10
12.748114
20
2.490240
11
12.748424
21
2.485875
0
LINE
8
Layer 1
10
12.748424
20
2.485875
11
12.748465
21
2.480344
0
LINE
8
Layer 1
10
12.748465
20
2.480344
11
12.748500
21
2.378240
0
LINE
8
Layer 1
10
12.748500
20
2.378240
11
12.748500
21
2.276140
0
LINE
8
Layer 1
10
12.748500
20
2.276140
11
12.748500
21
2.174040
0
LINE
8
Layer 1
10
12.748500
20
2.174040
11
12.748500
21
2.071940
0
LINE
8
Layer 1
10
12.748500
20
2.071940
11
12.748500
21
1.969840
0
LINE
8
Layer 1
10
12.748500
20
1.969840
11
12.748500
21
1.867740
0
LINE
8
Layer 1
10
12.748500
20
1.867740
11
12.748500
21
1.765650
0
LINE
8
Layer 1
10
12.748500
20
1.765650
11
12.748500
21
1.663540
0
LINE
8
Layer 1
10
12.748500
20
1.663540
11
12.748451
21
1.663165
0
LINE
8
Layer 1
10
12.748451
20
1.663165
11
12.748113
21
1.662036
0
LINE
8
Layer 1
10
12.748113
20
1.662036
11
12.747351
21
1.660153
0
LINE
8
Layer 1
10
12.747351
20
1.660153
11
12.745460
21
1.658271
0
LINE
8
Layer 1
10
12.745460
20
1.658271
11
12.742448
21
1.656388
0
LINE
8
Layer 1
10
12.742448
20
1.656388
11
12.738082
21
1.654506
0
LINE
8
Layer 1
10
12.738082
20
1.654506
11
12.731986
21
1.653377
0
LINE
8
Layer 1
10
12.731986
20
1.653377
11
12.723895
21
1.653002
0
LINE
8
Layer 1
10
12.723895
20
1.653002
11
12.719794
21
1.653231
0
LINE
8
Layer 1
10
12.719794
20
1.653231
11
12.715767
21
1.653985
0
LINE
8
Layer 1
10
12.715767
20
1.653985
11
12.711892
21
1.654738
0
LINE
8
Layer 1
10
12.711892
20
1.654738
11
12.708130
21
1.655867
0
LINE
8
Layer 1
10
12.708130
20
1.655867
11
12.704743
21
1.656996
0
LINE
8
Layer 1
10
12.704743
20
1.656996
11
12.701732
21
1.658125
0
LINE
8
Layer 1
10
12.701732
20
1.658125
11
12.699474
21
1.659254
0
LINE
8
Layer 1
10
12.699474
20
1.659254
11
12.697583
21
1.660008
0
LINE
8
Layer 1
10
12.697583
20
1.660008
11
12.656853
21
1.682548
0
LINE
8
Layer 1
10
12.656853
20
1.682548
11
12.616123
21
1.705088
0
LINE
8
Layer 1
10
12.616123
20
1.705088
11
12.575393
21
1.727628
0
LINE
8
Layer 1
10
12.575393
20
1.727628
11
12.534662
21
1.750168
0
LINE
8
Layer 1
10
12.534662
20
1.750168
11
12.493932
21
1.772709
0
LINE
8
Layer 1
10
12.493932
20
1.772709
11
12.453198
21
1.795249
0
LINE
8
Layer 1
10
12.453198
20
1.795249
11
12.412468
21
1.817789
0
LINE
8
Layer 1
10
12.412468
20
1.817789
11
12.372500
21
1.839350
0
LINE
8
Layer 1
10
13.568500
20
2.631210
11
13.575048
21
2.550201
0
LINE
8
Layer 1
10
13.575048
20
2.550201
11
13.594089
21
2.478626
0
LINE
8
Layer 1
10
13.594089
20
2.478626
11
13.624682
21
2.416902
0
LINE
8
Layer 1
10
13.624682
20
2.416902
11
13.665856
21
2.365462
0
LINE
8
Layer 1
10
13.665856
20
2.365462
11
13.716698
21
2.324717
0
LINE
8
Layer 1
10
13.716698
20
2.324717
11
13.776269
21
2.295102
0
LINE
8
Layer 1
10
13.776269
20
2.295102
11
13.843630
21
2.277003
0
LINE
8
Layer 1
10
13.843630
20
2.277003
11
13.917846
21
2.270869
0
LINE
8
Layer 1
10
13.917846
20
2.270869
11
13.989745
21
2.277228
0
LINE
8
Layer 1
10
13.989745
20
2.277228
11
14.056019
21
2.295855
0
LINE
8
Layer 1
10
14.056019
20
2.295855
11
14.115447
21
2.326147
0
LINE
8
Layer 1
10
14.115447
20
2.326147
11
14.166811
21
2.367506
0
LINE
8
Layer 1
10
14.166811
20
2.367506
11
14.208885
21
2.419303
0
LINE
8
Layer 1
10
14.208885
20
2.419303
11
14.240456
21
2.480929
0
LINE
8
Layer 1
10
14.240456
20
2.480929
11
14.260288
21
2.551763
0
LINE
8
Layer 1
10
14.260288
20
2.551763
11
14.267174
21
2.631191
0
LINE
8
Layer 1
10
14.267174
20
2.631191
11
14.260853
21
2.706752
0
LINE
8
Layer 1
10
14.260853
20
2.706752
11
14.242375
21
2.774233
0
LINE
8
Layer 1
10
14.242375
20
2.774233
11
14.212497
21
2.833021
0
LINE
8
Layer 1
10
14.212497
20
2.833021
11
14.171937
21
2.882497
0
LINE
8
Layer 1
10
14.171937
20
2.882497
11
14.121449
21
2.922049
0
LINE
8
Layer 1
10
14.121449
20
2.922049
11
14.061780
21
2.951062
0
LINE
8
Layer 1
10
14.061780
20
2.951062
11
13.993678
21
2.968936
0
LINE
8
Layer 1
10
13.993678
20
2.968936
11
13.917880
21
2.975032
0
LINE
8
Layer 1
10
13.917880
20
2.975032
11
13.841240
21
2.968484
0
LINE
8
Layer 1
10
13.841240
20
2.968484
11
13.772743
21
2.949519
0
LINE
8
Layer 1
10
13.772743
20
2.949519
11
13.713025
21
2.919152
0
LINE
8
Layer 1
10
13.713025
20
2.919152
11
13.662725
21
2.878376
0
LINE
8
Layer 1
10
13.662725
20
2.878376
11
13.622488
21
2.828190
0
LINE
8
Layer 1
10
13.622488
20
2.828190
11
13.592949
21
2.769597
0
LINE
8
Layer 1
10
13.592949
20
2.769597
11
13.574774
21
2.703598
0
LINE
8
Layer 1
10
13.574774
20
2.703598
11
13.568565
21
2.631199
0
LINE
8
Layer 1
10
13.568565
20
2.631199
11
13.568500
21
2.631210
0
LINE
8
Layer 1
10
12.908387
20
2.628577
11
12.929195
21
2.840943
0
LINE
8
Layer 1
10
12.929195
20
2.840943
11
12.988759
21
3.033046
0
LINE
8
Layer 1
10
12.988759
20
3.033046
11
13.082747
21
3.202398
0
LINE
8
Layer 1
10
13.082747
20
3.202398
11
13.206838
21
3.346527
0
LINE
8
Layer 1
10
13.206838
20
3.346527
11
13.356713
21
3.462942
0
LINE
8
Layer 1
10
13.356713
20
3.462942
11
13.528047
21
3.549170
0
LINE
8
Layer 1
10
13.528047
20
3.549170
11
13.716522
21
3.602724
0
LINE
8
Layer 1
10
13.716522
20
3.602724
11
13.917815
21
3.621125
0
LINE
8
Layer 1
10
13.917815
20
3.621125
11
14.112051
21
3.603515
0
LINE
8
Layer 1
10
14.112051
20
3.603515
11
14.297211
21
3.551819
0
LINE
8
Layer 1
10
14.297211
20
3.551819
11
14.468113
21
3.467830
0
LINE
8
Layer 1
10
14.468113
20
3.467830
11
14.619571
21
3.353327
0
LINE
8
Layer 1
10
14.619571
20
3.353327
11
14.746402
21
3.210079
0
LINE
8
Layer 1
10
14.746402
20
3.210079
11
14.843415
21
3.039869
0
LINE
8
Layer 1
10
14.843415
20
3.039869
11
14.905425
21
2.844470
0
LINE
8
Layer 1
10
14.905425
20
2.844470
11
14.927249
21
2.625654
0
LINE
8
Layer 1
10
14.927249
20
2.625654
11
14.905764
21
2.415587
0
LINE
8
Layer 1
10
14.905764
20
2.415587
11
14.844556
21
2.224534
0
LINE
8
Layer 1
10
14.844556
20
2.224534
11
14.748536
21
2.055261
0
LINE
8
Layer 1
10
14.748536
20
2.055261
11
14.622609
21
1.910545
0
LINE
8
Layer 1
10
14.622609
20
1.910545
11
14.471669
21
1.793163
0
LINE
8
Layer 1
10
14.471669
20
1.793163
11
14.300624
21
1.705885
0
LINE
8
Layer 1
10
14.300624
20
1.705885
11
14.114376
21
1.651484
0
LINE
8
Layer 1
10
14.114376
20
1.651484
11
13.917821
21
1.632744
0
LINE
8
Layer 1
10
13.917821
20
1.632744
11
13.705466
21
1.652537
0
LINE
8
Layer 1
10
13.705466
20
1.652537
11
13.511798
21
1.709463
0
LINE
8
Layer 1
10
13.511798
20
1.709463
11
13.339800
21
1.799920
0
LINE
8
Layer 1
10
13.339800
20
1.799920
11
13.192400
21
1.920290
0
LINE
8
Layer 1
10
13.192400
20
1.920290
11
13.072600
21
2.066970
0
LINE
8
Layer 1
10
13.072600
20
2.066970
11
12.983354
21
2.236326
0
LINE
8
Layer 1
10
12.983354
20
2.236326
11
12.927628
21
2.424749
0
LINE
8
Layer 1
10
12.927628
20
2.424749
11
12.908400
21
2.628619
0
LINE
8
Layer 1
10
12.908400
20
2.628619
11
12.908387
21
2.628577
 0 
ENDSEC
 0 
EOF